<?xml version="1.0" standalone="no"?>
<!DOCTYPE svg PUBLIC "-//W3C//DTD SVG 1.1//EN" "http://www.w3.org/Graphics/SVG/1.1/DTD/svg11.dtd" >
<svg>
<metadata>
Created by FontForge 20120731 at Wed Dec 14 10:50:03 2022
 By ffonts
</metadata>
<defs>
<font id="SANTAINCHRISTMASRegular" horiz-adv-x="249" >
  <font-face 
    font-family="SANTA IN CHRISTMAS"
    font-weight="400"
    font-stretch="normal"
    units-per-em="1000"
    panose-1="0 0 0 0 0 0 0 0 0 0"
    ascent="800"
    descent="-200"
    x-height="496.88"
    cap-height="712.541"
    bbox="-31.0003 -132.334 859.766 805.69"
    underline-thickness="0"
    underline-position="0"
    unicode-range="U+000A-2265"
  />
<missing-glyph horiz-adv-x="527" 
d="M50 700h427v-700h-427v700zM78 680l185 -309l186 309h-371zM251 350l-180 300v-601zM264 329l-185 -308h370zM276 350l181 -303v605z" />
    <glyph glyph-name=".notdef" horiz-adv-x="527" 
d="M50 700h427v-700h-427v700zM78 680l185 -309l186 309h-371zM251 350l-180 300v-601zM264 329l-185 -308h370zM276 350l181 -303v605z" />
    <glyph glyph-name=".null" horiz-adv-x="0" 
 />
    <glyph glyph-name=".null" horiz-adv-x="0" 
 />
    <glyph glyph-name="LF" unicode="&#xa;" horiz-adv-x="0" 
 />
    <glyph glyph-name="controlCR" unicode="&#xd;" horiz-adv-x="0" 
 />
    <glyph glyph-name="space" unicode=" " 
 />
    <glyph glyph-name="exclam" unicode="!" horiz-adv-x="218" 
d="M119.146 760.144c28.5898 0 62.1357 -23.8789 59.5967 -55.4268c-8.15137 -101.262 -14.2842 -202.673 -18.2275 -304.185c-3.94727 -101.661 -3.24902 -205.836 -35.5156 -303.329c-8.33887 -25.1953 -45.5869 -24.7588 -54.0879 0
c-33.3926 97.2568 -30.1846 201.801 -27.0811 303.329c3.10352 101.495 8.40137 202.911 15.7178 304.186c2.29395 31.71 27.2559 55.4258 59.5977 55.4258zM101.505 39.4922c18.7549 2.34766 45.1807 -11.9043 42.6963 -34.4238
c-0.980469 -8.9082 -1.08008 -18.8213 -3.31543 -27.5176c-0.436523 -1.69531 -3.73535 -11.2178 -3.65625 -9.94238c-0.78125 -3.44434 -1.34668 -6.96777 -2.02344 -10.4248c-3.70215 -18.8506 -36.1885 -22.5859 -44.3193 -5.38477
c-1.71973 3.63574 -3.27734 7.41699 -5.18066 10.9609c2.11914 -2.04785 1.69922 -1.4248 -1.26367 1.86621c-1.625 1.66211 -2.97949 3.51953 -4.05957 5.57227c-4.5166 7.59473 -7.09277 17.3008 -10.209 25.5566c-8.04004 21.2979 11.791 41.2988 31.3311 43.7373z" />
    <glyph glyph-name="quotedbl" unicode="&#x22;" horiz-adv-x="328" 
d="M119.264 744.235c8.30957 -7.76172 15.1982 -20.5605 15.5967 -32.4307c21.2852 -53.6104 2.85449 -118.505 -55.6621 -143.995c-22.7354 -9.90137 -44.7021 19.6602 -20.9404 33.3135c12.4316 7.14258 22.4951 16.9023 29.7041 28.0957
c-2.41406 -0.37793 -4.86133 -0.672852 -7.37109 -0.776367c-26.832 -1.11719 -52.5801 21.7803 -52.584 48.9033c0 10.5781 -0.00390625 21.1562 -0.00390625 31.7344c-0.00390625 29.3545 26.1426 48.5791 53.4609 49.7178
c7.49121 0.311523 15.6758 -1.6582 23.1045 -5.02344c0.394531 -0.158203 0.785156 -0.336914 1.17578 -0.523438c5.07715 -2.43066 9.75977 -5.50488 13.5195 -9.01562zM290.764 711.809c21.2812 -53.6143 2.84961 -118.511 -55.6631 -143.997
c-22.7354 -9.90137 -44.7021 19.6602 -20.9404 33.3135c12.4316 7.14258 22.4951 16.9023 29.7041 28.0957c-2.41406 -0.37793 -4.86133 -0.672852 -7.37109 -0.776367c-26.832 -1.11719 -52.5801 21.7803 -52.584 48.9033
c0 10.5781 -0.00390625 21.1562 -0.00390625 31.7344c-0.00390625 29.3545 26.1387 48.5791 53.4609 49.7178c7.49121 0.311523 15.6768 -1.6582 23.1055 -5.02344c0.394531 -0.158203 0.785156 -0.336914 1.17578 -0.523438
c5.07715 -2.43066 9.75977 -5.50488 13.5195 -9.01562c8.30957 -7.76562 15.1982 -20.5586 15.5967 -32.4287z" />
    <glyph glyph-name="quotedbl" unicode="&#x201c;" horiz-adv-x="328" 
d="M119.264 744.235c8.30957 -7.76172 15.1982 -20.5605 15.5967 -32.4307c21.2852 -53.6104 2.85449 -118.505 -55.6621 -143.995c-22.7354 -9.90137 -44.7021 19.6602 -20.9404 33.3135c12.4316 7.14258 22.4951 16.9023 29.7041 28.0957
c-2.41406 -0.37793 -4.86133 -0.672852 -7.37109 -0.776367c-26.832 -1.11719 -52.5801 21.7803 -52.584 48.9033c0 10.5781 -0.00390625 21.1562 -0.00390625 31.7344c-0.00390625 29.3545 26.1426 48.5791 53.4609 49.7178
c7.49121 0.311523 15.6758 -1.6582 23.1045 -5.02344c0.394531 -0.158203 0.785156 -0.336914 1.17578 -0.523438c5.07715 -2.43066 9.75977 -5.50488 13.5195 -9.01562zM290.764 711.809c21.2812 -53.6143 2.84961 -118.511 -55.6631 -143.997
c-22.7354 -9.90137 -44.7021 19.6602 -20.9404 33.3135c12.4316 7.14258 22.4951 16.9023 29.7041 28.0957c-2.41406 -0.37793 -4.86133 -0.672852 -7.37109 -0.776367c-26.832 -1.11719 -52.5801 21.7803 -52.584 48.9033
c0 10.5781 -0.00390625 21.1562 -0.00390625 31.7344c-0.00390625 29.3545 26.1387 48.5791 53.4609 49.7178c7.49121 0.311523 15.6768 -1.6582 23.1055 -5.02344c0.394531 -0.158203 0.785156 -0.336914 1.17578 -0.523438
c5.07715 -2.43066 9.75977 -5.50488 13.5195 -9.01562c8.30957 -7.76562 15.1982 -20.5586 15.5967 -32.4287z" />
    <glyph glyph-name="numbersign" unicode="#" horiz-adv-x="484" 
d="M434.604 337.109c25.7354 0.344727 24.8779 -34.958 0.00292969 -36.9521c-32.9814 -2.64258 -65.9834 -4.90234 -98.998 -6.99609c-0.27832 -17.8369 -0.834961 -35.6445 -1.99414 -53.5479c-1.94043 -29.9727 -4.64551 -64.6035 -22.6152 -89.8193
c-15.2939 -21.4639 -45.6865 -21.0938 -61.0469 0c-18.2354 25.0498 -21.1602 59.8965 -23.4326 89.8193c-1.18848 15.6514 -1.93262 31.2275 -2.42285 46.8203c-9.33594 -0.552734 -18.668 -1.10938 -28 -1.6748c-3.90137 -40.418 -11.3135 -79.918 -22.4814 -119.451
c-7.49512 -26.5449 -50.8965 -27.2139 -58.0303 0c-9.80176 37.3857 -16.3828 74.7549 -19.7646 112.797c-12.4316 -0.914062 -24.8633 -1.83203 -37.29 -2.8457c-35.0459 -2.85449 -35.6982 51.1875 0 51.6191c11.5713 0.141602 23.1426 0.370117 34.71 0.594727
c-0.270508 13.458 -0.416016 26.916 -0.458008 40.3857c-11.4219 -0.847656 -22.8398 -1.68262 -34.2529 -2.61328c-35.0459 -2.85059 -35.6982 51.1914 0 51.6191c11.4551 0.141602 22.9062 0.370117 34.3574 0.589844c0.128906 20.9111 0.287109 41.8223 0.287109 62.709
c-0.00390625 65.7383 109.917 65.5469 108.675 0c-0.37793 -19.9102 -0.606445 -39.8496 -0.855469 -59.7891c7.1377 0.237305 14.2803 0.482422 21.418 0.727539c-0.270508 29.0049 -0.544922 58.0059 -0.81543 87.0107c-0.643555 68.875 113.811 68.7715 113.936 0
l0.149414 -83.2646c32.9688 0.984375 65.9414 1.80664 98.9229 2.24707c25.7354 0.344727 24.875 -34.959 0 -36.9492c-32.9268 -2.63867 -65.8789 -4.89453 -98.8438 -6.98828c0.0292969 -16.0957 0.0585938 -32.1953 0.0878906 -48.291
c32.9102 0.984375 65.8291 1.80273 98.7559 2.24316zM198.988 330.321c8.08496 0.265625 16.1758 0.544922 24.2656 0.819336c-0.141602 15.0693 -0.283203 30.1387 -0.424805 45.2041c-7.52441 -0.444336 -15.0449 -0.888672 -22.5693 -1.3418
c-0.298828 -14.9033 -0.706055 -29.7988 -1.27148 -44.6816z" />
    <glyph glyph-name="dollar" unicode="$" horiz-adv-x="418" 
d="M382.824 174.297c8.47168 -73.4248 -22.2275 -158.62 -92.4697 -192.092c-23.5625 -11.2266 -51.5537 -17.4336 -78.9131 -20.6367c-0.257812 -15.9834 -0.519531 -31.9629 -0.806641 -47.9424c-0.449219 -25.1455 -40.4521 -24.959 -41.4824 -0.000976562
c-0.623047 15.0527 -1.10938 30.1143 -1.5459 45.1758c-42.1299 0.211914 -82.8604 11.2178 -123.416 22.041c-27.2686 7.2793 -14.3428 42.209 11.3379 38.249c27.335 -4.21289 54.3291 -6.36133 81.9922 -6.46973c9.21094 -0.0371094 19.0293 -0.0078125 28.8682 0.611328
c-1.60352 103.926 0.556641 207.963 3.95508 311.784c0.0371094 1.25488 0.0996094 2.51758 0.141602 3.77246c-44.7598 42.0967 -92.2451 82.9219 -115.533 139.984c-30.6875 75.1982 -13.4072 174.923 72.5605 200.509c16.6777 4.96484 32.5703 9.03613 48.5205 10.8184
c1.22168 18.4521 2.49707 36.8994 3.83105 55.3428c3.58594 49.5254 86.7412 48.5576 81.8008 0c-2.36035 -23.1963 -4.3252 -46.4346 -6.44824 -69.6309c27.8213 -13.3291 51.832 -33.3594 72.6523 -56.3564c18.2354 -20.1387 -12.5684 -46.8623 -30.1602 -28.0449
c-13.5908 14.5381 -29.3877 28.9268 -46.9375 39.8086c-3.37793 -30.3516 -7.66602 -60.5576 -14.1602 -90.4521c-7.3584 -33.875 -10.8066 -69.1377 -12.8096 -104.541c14.957 -13.9229 30.1016 -27.6709 44.2734 -42.2881
c57.1504 -58.9365 105.122 -126.195 114.749 -209.642zM132.786 560.398c3.61914 -31.0781 22.8818 -61.1045 42.8584 -84.9824c0.0791016 18.3809 -0.241211 36.7324 -1.28418 55.0137c-0.943359 16.5566 -3.68164 32.6064 -3.57812 49.2471
c0.0996094 16.457 1.03418 32.79 2.01855 49.2188c0.178711 3.00391 0.386719 6.00391 0.569336 9.00391c-17.3799 -3.75977 -25.7598 -12.9131 -33.6045 -30.9121c-6.53125 -14.9785 -8.88281 -30.2188 -6.97949 -46.5889zM273.312 94.5283
c19.8516 63.7109 -7.91406 128.339 -50.917 180.532c-1.3877 1.68652 -2.80469 3.35254 -4.22949 5.01465c-3.0127 -85.3652 -4.43359 -170.752 -5.75098 -256.15c26.7402 13.4365 52.334 43.123 60.8975 70.6035z" />
    <glyph glyph-name="percent" unicode="%" horiz-adv-x="612" 
d="M491.034 685.672c-43.9043 -117.47 -84.2666 -236.245 -120.792 -356.225c-18.2646 -60.0039 -35.0547 -120.424 -53.3691 -180.407c-8.97852 -29.3994 -17.292 -58.9697 -27.4092 -87.9951c-6.06641 -17.4043 -14.8418 -31.1445 -24.1738 -46.5176
c-10.2129 -16.8184 -16.5322 -26.1416 -36.1436 -32.9268c-11.127 -3.85156 -25.5195 0.44043 -33.8252 8.31348c-15.3896 14.584 -14.1553 27.0732 -15.6846 46.1895c-0.615234 7.67773 -3.24512 15.5137 -3.00781 23.3037
c0.294922 9.63086 2.9541 19.8145 4.51172 29.4082c5.13965 31.6514 12.7471 62.7959 20.1016 93.999c14.0762 59.7344 31.5928 118.575 49.4004 177.296c14.5918 48.1094 29.8232 96.0146 45.624 143.733c-3.54004 2.30566 -7.04688 4.66602 -10.5576 7.00977
c-12.6885 -35.3574 -33.2422 -67.9688 -59.4307 -93.7002c-26.8691 -26.3955 -65.4219 -45.7363 -103.289 -32.7734c-35.1211 12.0244 -54.1748 42.6621 -69.2324 74.5713c-9.77246 20.708 -21.1396 39.0596 -24.2227 62.082
c-2.65918 19.8438 -3.51953 39.6875 -1.13867 59.5977c5.30566 44.3984 22.2783 86.583 48.7822 122.556c18.2354 24.75 51.084 34.626 79.1416 19.2988c6.57715 -3.58984 12.5723 -9.12793 17.4336 -15.6924c16.6982 9.68457 37.4893 12.4805 56.5479 6.67188
c36.2012 -11.0391 58.1309 -44.7305 65.5225 -80.3252c5.30957 -25.5898 5.47168 -52.0771 1.3125 -78.0371c4.3877 -3.08691 8.81641 -6.11621 13.2451 -9.14551c19.3828 57.1172 39.5918 113.955 60.6484 170.486c11.9453 32.0713 43.2939 47.498 76.5449 40.418
c29.4707 -6.27832 54.6738 -41.1875 43.46 -71.1895zM241.6 516.697c2.63379 6.45215 5.00293 13.1191 7.08008 19.9336c-15.8008 11.4883 -31.3105 23.3799 -46.4961 35.666c-15.5977 12.6182 -34.7432 27.5469 -47.2324 45.1963
c-10.4121 -17.5332 -18.4688 -36.1514 -24.6387 -56.3271c-4.76172 -15.5596 -8.20605 -30.7119 -10.3828 -46.7998c-2.28125 -16.8936 -9.18262 -31.6436 -6.0166 -48.9482c6.0332 -32.96 29.9609 -51.1709 61.0225 -33.2549
c30.7041 17.7158 53.5264 52.3926 66.6641 84.5342zM257.488 584.461c0.785156 12.9092 0.238281 25.8135 -1.99316 38.3281c-3.90527 21.9668 -34.2939 72.8555 -61.4834 43.165c-22.6152 -24.6924 42.416 -64.999 58.1592 -77.4258
c1.75293 -1.38379 3.55566 -2.69629 5.31738 -4.06738zM571.327 207.478c31.6602 -53.3066 12.7754 -121.425 -31.0918 -162.088c-23.3379 -21.6299 -55.5625 -31.2197 -86.5996 -21.6348c-28.29 8.7373 -62.0273 32.8975 -78.3223 57.5107
c-42.8867 64.7695 -25.4736 156.064 10.6074 219.057c32.5615 56.8467 127.874 13.1875 106.514 -43.7051c31.2441 -2.23145 62.2021 -21.0361 78.8926 -49.1396zM501.176 72.9482c32.5488 20.4209 52.9053 66.9141 41.9277 103.996
c-9.83887 33.251 -44.7891 49.1973 -72.8838 33.5586c-7.30469 -22.1035 -9.62305 -45.2754 -9.75195 -70.5498c-0.0537109 -10.084 2.04004 -19.7568 3.12402 -29.7246c0.930664 -8.55469 -1.19629 -19.1162 1.10938 -27.2012
c4.72363 -16.5693 23.5488 -18.1895 36.4746 -10.0791z" />
    <glyph glyph-name="ampersand" unicode="&#x26;" horiz-adv-x="446" 
d="M373.633 101.786c5.25977 -12.3438 10.4668 -24.7148 15.7598 -37.042c11.7412 -27.3809 -36.5674 -39.4297 -47.3281 -12.1328l-1.89551 4.78711c-15.5723 -15.2568 -34.377 -28.1953 -56.9756 -38.0967c-51.4824 -22.5566 -112.43 -22.415 -159.367 10.8984
c-50.9756 36.1768 -73.9355 100.133 -82.918 159.747c-8.8457 58.6748 -9.11621 123.046 8.625 180.217c18.6846 60.2158 52.9326 114.906 97.6846 159.151c1.50781 1.4873 3.05762 2.9248 4.58691 4.3877c-9.01172 53.1484 8.66309 110.049 65.0068 128.322
c26.3164 8.53418 56.626 5.26855 78.9746 -11.5459c20.4004 -15.3564 44.2783 -32.2207 43.2686 -64.6074c-1.16309 -37.2939 -31.71 -61.4502 -57.9932 -82.6445c-19.1494 -15.4434 -37.0693 -32.4951 -53.5352 -50.7969
c40.0527 -97.9922 80.5039 -195.793 121.708 -293.295c2.19336 6.28223 4.16699 12.6348 5.8291 19.042c18.7383 72.2109 3.75195 145.905 -7.3291 217.971c-3.95508 25.748 36.1768 36.3018 41.6943 10.6914c19.873 -92.2256 32.4668 -217.457 -15.7959 -305.054z
M268.392 617.51c-0.149414 -0.00390625 -0.427734 0.100586 -0.768555 0.253906c0.141602 -0.162109 0.361328 -0.270508 0.768555 -0.253906zM194.854 577.309c-0.510742 -2.8916 -0.814453 -5.7832 -1.02637 -8.6709c9.42285 6.83496 19.1074 13.3164 29.0166 19.457
c11.7871 7.30469 25.4189 13.1797 35.3281 22.9521c1.38379 1.3623 3.99707 5.47168 6.29102 8.50098c-2.20996 1.3418 -4.69434 2.91211 -5.79102 3.29004c-31.1992 10.7939 -58.7539 -16.8066 -63.8184 -45.5293zM242.619 49.3145
c33.3633 8.81641 59.4453 29.3994 78.7031 55.7539c-24.6465 62.1943 -49.5176 124.28 -75.0205 186.146l-48.2754 117.117c-0.639648 1.55371 -1.3125 3.10742 -1.96484 4.66113c-22.752 -32.3252 -44.7979 -71.377 -61.0889 -106.926
c-24.04 -52.459 -43.3105 -122.364 -25.6777 -179.348c18.2021 -58.8203 73.1914 -93.293 133.324 -77.4053z" />
    <glyph glyph-name="quotesingle" unicode="'" horiz-adv-x="172" 
d="M134.863 711.811c21.2812 -53.6143 2.85449 -118.511 -55.6709 -144.001c-22.7314 -9.90137 -44.6982 19.6602 -20.9365 33.3135c12.4316 7.14258 22.4951 16.9023 29.7041 28.0957c-2.41406 -0.37793 -4.86133 -0.672852 -7.37109 -0.776367
c-26.8281 -1.11719 -52.5801 21.7803 -52.584 48.9033c0 10.5781 -0.00390625 21.1562 -0.00390625 31.7344c-0.00390625 29.3545 26.1426 48.583 53.4648 49.7217c7.49121 0.311523 15.6768 -1.6582 23.1055 -5.02344
c0.394531 -0.158203 0.785156 -0.336914 1.17578 -0.523438c5.07715 -2.43066 9.75977 -5.50488 13.5195 -9.01562c8.30957 -7.76562 15.1982 -20.5586 15.5967 -32.4287z" />
    <glyph glyph-name="quotesingle" unicode="&#x2018;" horiz-adv-x="172" 
d="M134.863 711.811c21.2812 -53.6143 2.85449 -118.511 -55.6709 -144.001c-22.7314 -9.90137 -44.6982 19.6602 -20.9365 33.3135c12.4316 7.14258 22.4951 16.9023 29.7041 28.0957c-2.41406 -0.37793 -4.86133 -0.672852 -7.37109 -0.776367
c-26.8281 -1.11719 -52.5801 21.7803 -52.584 48.9033c0 10.5781 -0.00390625 21.1562 -0.00390625 31.7344c-0.00390625 29.3545 26.1426 48.583 53.4648 49.7217c7.49121 0.311523 15.6768 -1.6582 23.1055 -5.02344
c0.394531 -0.158203 0.785156 -0.336914 1.17578 -0.523438c5.07715 -2.43066 9.75977 -5.50488 13.5195 -9.01562c8.30957 -7.76562 15.1982 -20.5586 15.5967 -32.4287z" />
    <glyph glyph-name="parenleft" unicode="(" 
d="M250.883 784.79c15.498 -14.4668 18.8096 -45.0312 0.000976562 -58.7842c-48.6406 -35.5693 -76.8184 -87.1768 -95.2119 -143.566c-20.6455 -63.2988 -31.1162 -129.64 -33.5098 -196.084c-2.45996 -68.2432 3.68066 -136.399 18.1973 -203.114
c14.7246 -67.6787 43.4678 -130.072 61.6748 -196.425c9.05762 -32.998 -34.751 -41.9971 -52.3262 -20.5166c-47.2324 57.7236 -70.7861 136.338 -87.5547 207.955c-17.0186 72.6602 -24.2607 148.245 -21.627 222.812c4.71582 133.558 33.7002 301.389 147.145 387.723
c18.7842 14.293 44.6689 17.3174 63.2119 0z" />
    <glyph glyph-name="parenright" unicode=")" 
d="M208.265 397.072c2.67578 -75.751 -4.83594 -152.556 -22.4355 -226.296c-16.8311 -70.5 -40.2148 -147.61 -86.7451 -204.478c-17.6914 -21.6221 -61.3301 -12.29 -52.3262 20.5166c18.207 66.3525 46.9209 128.746 61.6748 196.425
c14.542 66.7021 20.6533 134.879 18.1982 203.114c-2.39355 66.457 -12.8926 132.765 -33.5088 196.085c-18.3516 56.377 -46.6006 108.021 -95.2119 143.566c-18.9424 13.8525 -15.3896 44.416 0 58.7881c18.3516 17.1387 44.4854 14.251 63.2109 0
c113.439 -86.3291 142.428 -254.16 147.144 -387.722z" />
    <glyph glyph-name="asterisk" unicode="*" horiz-adv-x="284" 
d="M197.019 620.674c16.3613 -15.0068 32.3154 -30.4189 46.9775 -47.1631c15.5312 -17.7373 -6.06934 -45.9033 -26.5527 -32.001c-17.5127 11.8828 -34.0527 24.958 -50.2568 38.4531c-0.506836 -12.2568 -1.17578 -24.4932 -2.20215 -36.6914
c-2.14355 -25.457 -39.7744 -25.3037 -42.0684 -0.000976562c-0.921875 10.1875 -1.57812 20.4082 -2.12695 30.6416c-9.97559 -12.4102 -20.1094 -24.6631 -30.5254 -36.6328c-14.1514 -16.2617 -44.9883 4.29688 -32.1162 23.0479
c11.3174 16.4951 23.2334 32.6533 35.415 48.6494c-10.8652 -2.04004 -21.7549 -4.41699 -32.6943 -7.21777c-28.3818 -7.2666 -41.7188 34.7012 -12.4268 41.918c10.8564 2.67578 21.9336 5.22656 33.1514 7.57422c-11.4385 8.6709 -23.1963 16.96 -35.4824 24.6133
c-46.7383 29.0967 13.374 88.3447 48.3623 44.9766c7.69434 -9.53906 15.8457 -18.5879 24.2764 -27.3467c-0.0332031 9.33984 -0.0830078 18.667 -0.203125 27.9775c-0.386719 30.0186 49.8574 29.9814 49.6621 0
c-0.0371094 -5.87891 -0.0332031 -11.7666 -0.0332031 -17.6543c3.49805 4.46191 7.00098 8.91992 10.4619 13.3984c15.3896 19.9229 53.2236 1.07617 36.8281 -20.0176c-8.31836 -10.7031 -16.5537 -21.5186 -24.7725 -32.3623
c14.1807 0.298828 28.2695 -0.0712891 42.126 -1.33008c27.6338 -2.51758 28.2275 -39.2012 -0.000976562 -40.7549c-12.041 -0.665039 -23.957 -1.3252 -35.7988 -2.07715z" />
    <glyph glyph-name="plus" unicode="+" horiz-adv-x="356" 
d="M298.85 295.091c38.3447 -9.44434 37.6201 -62.3867 0.00585938 -72.1592c-25.6973 -6.67285 -55.1016 -5.79199 -83.3379 -4.87402c-1.33789 -13.9854 -3.15723 -28.0449 -5.7627 -41.7061c-3.98828 -20.9111 -17.2461 -37.5928 -27.376 -55.8535
c-9.26562 -16.6982 -39.9238 -13.8232 -44.3193 5.38477c-4.3623 19.0752 -12.8926 37.3652 -13.1338 57.1719c-0.141602 11.625 0.407227 23.4043 1.05078 35.1455c-18.9463 -0.166016 -37.8926 -0.335938 -56.8428 -0.501953
c-54.9062 -0.486328 -54.7773 79.6729 0 79.876c19.7725 0.0703125 39.5449 0.145508 59.3174 0.220703c-0.0419922 18.5469 -0.495117 37.0898 -1.36328 55.6328c-2.56348 54.6318 88.2529 54.5654 90.5635 0c0.764648 -18.04 1.22559 -36.1426 1.26758 -54.249
c27.1309 1.17578 55.1221 2.02344 79.9307 -4.08789z" />
    <glyph glyph-name="comma" unicode="," horiz-adv-x="171" 
d="M134.862 63.9688c21.2852 -53.6104 2.85547 -118.507 -55.6699 -144.001c-22.7354 -9.90137 -44.6982 19.6602 -20.9365 33.3135c12.4316 7.14258 22.4951 16.9023 29.7041 28.0957c-2.41406 -0.37793 -4.86133 -0.672852 -7.37109 -0.776367
c-26.832 -1.11719 -52.5801 21.7803 -52.584 48.9033c0 10.5781 -0.00390625 21.1562 -0.00390625 31.7344c-0.00390625 29.3545 26.1387 48.5791 53.4609 49.7178c7.49512 0.31543 15.6797 -1.6582 23.1084 -5.02344
c0.394531 -0.158203 0.78125 -0.333008 1.17188 -0.519531c5.08105 -2.43066 9.76367 -5.50098 13.5234 -9.01562c8.30957 -7.76562 15.1982 -20.5625 15.5967 -32.4287z" />
    <glyph glyph-name="hyphen" unicode="-" horiz-adv-x="350" 
d="M295.854 295.091c38.3447 -9.44434 37.6182 -62.3848 0 -72.1611c-35.9102 -9.33203 -79.0791 -3.90137 -116.153 -4.22949c-37.8594 -0.336914 -75.7139 -0.668945 -113.568 -1.00586c-54.9102 -0.486328 -54.7773 79.6729 0 79.876
c37.8594 0.141602 75.7139 0.283203 113.568 0.424805c37.1523 0.136719 80.0225 5.99512 116.153 -2.9043z" />
    <glyph glyph-name="period" unicode="." horiz-adv-x="163" 
d="M119.262 96.3975c8.94922 -8.35938 16.3525 -22.5703 15.6582 -35.1553c-0.582031 -10.5781 -1.16797 -21.1562 -1.75 -31.7344c-1.58691 -28.8682 -24.4219 -47.7314 -52.583 -48.9033c-26.8281 -1.11719 -52.5801 21.7803 -52.584 48.9033
c0 10.5781 -0.00390625 21.1562 -0.00390625 31.7344c-0.00390625 29.3545 26.1387 48.5791 53.4609 49.7178c13.0674 0.543945 28.3242 -5.70898 37.8018 -14.5625z" />
    <glyph glyph-name="slash" unicode="/" horiz-adv-x="323" 
d="M199.41 740.399c15.5518 60.1826 112.649 36.2803 99.7236 -25.5693c-29.3037 -140.185 -59.0645 -280.124 -91.1445 -419.698c-16.0293 -69.7393 -31.5889 -139.558 -49.5459 -208.831c-8.94141 -34.4932 -17.8037 -69.4854 -28.8643 -103.364
c-5.48828 -16.8066 -11.3711 -33.6211 -19.8594 -49.2021c-8.38867 -15.3936 -16 -35.3574 -29.6572 -46.8535c-13.0918 -11.0186 -40.9209 -12.917 -49.5547 5.9375c-8.43066 18.4102 -5.71777 32.1748 -6.94336 51.3906
c-1.25098 19.6191 -0.399414 36.2344 2.31738 55.8701c5.12305 37.0449 12.8389 74.0938 20.4629 110.706c14.5918 70.0762 31.4521 139.587 47.9805 209.23c33.3633 140.592 68.9375 280.485 105.085 420.384z" />
    <glyph glyph-name="zero" unicode="0" horiz-adv-x="431" 
d="M348.052 546.941c25.6641 -56.3271 39.2627 -117.197 43.5176 -178.843c3.96387 -57.3623 -0.901367 -114.907 -10.4785 -171.496c-8.6875 -51.3203 -18.0654 -108.582 -44.6562 -154.152c-23.126 -39.6328 -66.7188 -69.2734 -113.984 -62.8457
c-50.1445 6.81836 -78.5264 45.9072 -103.036 85.8184c-27.3721 44.5732 -48.1504 90.3926 -63.8184 140.218c-15.8174 50.2988 -18.4844 108.754 -17.375 161.255c2.31445 109.48 30.6377 214.312 80.5664 311.502c14.8867 28.9844 58.168 34.8594 84.335 20.5664
c26.3789 -14.4092 35.5781 -43.8799 25.6729 -70.4209c1.07617 0.532227 2.19336 1.02637 3.42285 1.44141c58.8535 19.8643 95.2754 -37.9131 115.834 -83.043zM309.582 89.6152c31.4189 86.5078 43.6162 186.943 37.3711 278.483
c-3.09961 45.4502 -12.0703 90.4727 -27.5889 133.338c-9.95117 27.4922 -33.9658 102.001 -74.874 87.1514c-14.6289 -5.30957 -25.2324 4.40039 -27.4805 15.959c-36.4092 -73.375 -59.2939 -159.23 -65.0654 -241.118
c-2.94141 -41.7148 -1.99023 -83.1094 1.73633 -124.725c3.56055 -39.7705 4.43262 -80.0684 12.1602 -119.353c7.08398 -35.998 18.3105 -80.7705 57.3076 -94.9756c42.6162 -15.5264 74.1309 31.3691 86.4336 65.2393z" />
    <glyph glyph-name="one" unicode="1" horiz-adv-x="220" 
d="M112.188 679.298c31.3525 1.30859 65.7637 -26.5049 63.9814 -59.5068c-5.84961 -108.01 -7.79004 -216.182 -7.03809 -324.341c0.370117 -53.377 2.65137 -106.696 3.43652 -160.057c0.40332 -27.4141 1.84473 -54.9023 -2.40527 -81.9756
c-4.2959 -27.3682 -13.0049 -53.6729 -18.7676 -80.7666c-6.07031 -28.5479 -46.2812 -22.3076 -55.2139 0c-10.0967 25.2119 -23.1387 49.6055 -30.5137 75.7188c-7.88965 27.9414 -10.0254 57.998 -12.7217 87.0283c-4.94043 53.1367 -6.56055 106.73 -8.21875 160.058
c-3.36133 108.117 -1.6084 216.306 3.48535 324.34c1.65332 35.1338 29.9395 58.085 63.9756 59.502z" />
    <glyph glyph-name="two" unicode="2" horiz-adv-x="464" 
d="M411.831 97.8516c9.75977 -57.0459 -34.9854 -109.24 -90.7148 -116.328c-59.3232 -7.5498 -117.487 35.8555 -175.145 27.3379c-28.9258 -28.3027 -90.6582 -16.5693 -89.3457 31c1.20508 43.6719 14.459 82.7734 27.9414 123.865
c11.9082 36.2881 24.1816 72.4268 36.6582 108.52c25.0908 72.5898 52.4463 143.979 80.9443 215.271c7.3418 18.3604 16.2744 36.2383 22.71 55.0186c4.35449 12.7012 9.52344 29.2207 7.6748 41.5146c-3.86035 25.6807 -14.6631 65.6416 -47.2207 67.208
c-30.6045 1.47461 -56.0234 -38.582 -69.8838 -60.5947c-18.9131 -30.0312 -30.9746 -62.8213 -37.6387 -97.6016c-5.04004 -26.3086 -48.5742 -15.9756 -43.3809 11.1221c12.1406 63.3447 45.8115 136.088 101.092 173.05
c51.3535 34.3311 106.842 6.05762 131.468 -45.2178c29.126 -60.6445 37.585 -129.636 23.8408 -195.175c-14.9453 -71.2559 -37.0537 -140.455 -58.6338 -209.896c-10.915 -35.1289 -22.2285 -70.1084 -33.7002 -105.067
c-8.00684 -24.3975 -15.9971 -48.3789 -26.8125 -71.1846c31.4277 -3.16602 62.3984 -15.0742 93.46 -23.0762c25.7979 -6.64746 56.3398 -11.4551 79.2168 5.84961c19.3906 14.6709 24.9414 36.0723 25.5811 59.1113c0.606445 21.9746 38.0039 27.9824 41.8887 5.27246z
" />
    <glyph glyph-name="three" unicode="3" horiz-adv-x="415" 
d="M180.333 53.6689c34.332 8.00195 62.6338 34 76.6895 66.9561c15.4854 36.2842 11.8496 84.0898 -9.49414 122.394c-9.89648 17.7617 -22.9717 34.9297 -36.3877 49.8369c-6.80176 7.55762 -15.3027 12.4932 -22.4697 19.5234
c-0.785156 0.772461 -10.0586 10.8027 -7.82715 10.2334c-0.0703125 0.0419922 -0.128906 0.0839844 -0.199219 0.125977c-10.9521 -4.97363 -22.9434 -7.78223 -36.3301 -7.2168c-20.8652 0.876953 -41.835 15.9014 -41.4814 38.5781
c0.751953 48.3213 50.2988 82.8984 78.248 118.023c14.4795 18.1943 28.6729 37.2939 41.6113 56.5596c10.3418 15.4023 23.7119 39.2217 25.6768 58.043c4.32129 41.3447 -42.8525 72.4521 -79.1406 61.3877c-44.2656 -13.4912 -67.9775 -58.9492 -88.8682 -96.5713
c-12.8555 -23.1504 -51.7949 -3.61816 -38.3418 20.8457c27.5879 50.1611 61.5371 104.166 121.558 117.79c52.4346 11.9033 99.8955 -16.208 121.525 -63.9307c26.0762 -57.5322 27.418 -117.873 1.10938 -175.899c-13.3203 -29.3828 -30.1436 -56.0566 -50.7969 -80.7197
c13.7646 -3.91406 29.3076 -9.99707 41.6641 -16.209c32.0635 -16.1211 58.0234 -45.791 75.1953 -76.8447c36.2383 -65.5264 40.2354 -149.002 3.11133 -215.168c-33.3301 -59.4023 -101.062 -103.153 -170.087 -102.086
c-60.1211 0.926758 -122.522 44.9395 -150.335 100.769c-14.1553 28.415 26.0674 48.0215 43.3887 23.5869c13.4199 -18.9297 28.5391 -28.0459 50.9961 -32.6533c4.74023 -0.972656 9.82129 -1.34668 14.4707 -2.67578
c1.5166 -0.431641 2.66309 -0.755859 3.54004 -1.02637c4.41211 1.94824 9.04492 3.02832 13.9023 3.22754c3.64844 0.548828 7.31738 0.918945 10.999 1.16406c1.27539 0.40332 7.06738 1.72461 8.07324 1.95703z" />
    <glyph glyph-name="four" unicode="4" horiz-adv-x="449" 
d="M276.325 223.623c-73.9609 -2.8252 -150.644 9.45508 -216.872 -30.8018c-17.5498 -10.665 -42.1631 9.61914 -30.3721 28.2451c39.2969 62.0781 54.7197 134.165 66.4072 205.749c13.0586 79.9971 25.3408 160.128 38.0254 240.184
c4.70703 29.7236 54.1455 18.1816 49.0146 -12.5684c-13.7148 -82.166 -26.3496 -164.606 -41.54 -246.52c-9.95898 -53.7061 -22.8682 -107.295 -45.5283 -156.787c57.624 13.3369 119.909 6.46484 179.478 8.79199c-0.398438 11.8535 -0.768555 23.7031 -1.13867 35.54
c-3.36133 108.117 -1.60352 216.306 3.48633 324.34c1.65332 35.1338 29.9395 58.085 63.9756 59.502c31.3525 1.30469 65.7627 -26.5039 63.9766 -59.502c-5.84961 -108.01 -7.79004 -216.182 -7.03809 -324.341c0.370117 -53.377 2.65137 -106.696 3.43652 -160.057
c0.40332 -27.4141 1.84473 -54.9023 -2.40527 -81.9756c-4.2959 -27.3682 -13.0049 -53.6729 -18.7676 -80.7666c-6.07031 -28.5479 -46.2812 -22.3076 -55.2139 0c-10.0967 25.2119 -23.1387 49.6055 -30.5137 75.7188c-7.88965 27.9414 -10.0254 57.998 -12.7217 87.0283
c-2.72168 29.3086 -4.4209 58.7539 -5.68848 88.2197z" />
    <glyph glyph-name="five" unicode="5" horiz-adv-x="385" 
d="M247.449 335.363c49.3096 -19.9268 88.7783 -64.8652 100.3 -117.108c28.0781 -127.363 -86.2842 -222.547 -196.62 -253.227c-27.5508 -7.66113 -40.418 32.9648 -12.1152 40.8672c84.5801 23.6162 178.841 92.1836 166.085 191.68
c-5.27637 41.1533 -32.5859 77.8818 -69.7471 95.8604c-21.7715 10.5322 -40.7217 9.90039 -63.4111 2.42188c-18.8174 -6.20312 -27.6133 -22.1914 -39.1719 -35.0303c-31.5889 -35.0791 -93.5996 -7.27441 -95.3408 36.7256
c-2.12695 53.8633 4.24609 108.399 7.61133 162.188c3.38184 54.0586 6.75977 108.121 10.1416 162.184c1.96484 31.4189 27.2305 54.8818 59.0107 54.8818c6.33203 0 12.8428 -1.21289 19.1377 -3.35254c1.5459 0.357422 3.2041 0.577148 4.96582 0.643555
c53.668 1.95703 108.279 7.00977 161.951 5.36426c28.1777 -0.864258 26.9023 -37.4229 0 -40.2109c-42.1885 -4.36719 -85.249 -4.64941 -127.932 -5.53418c0.818359 -3.77637 1.15918 -7.71094 0.888672 -11.7871l-11.0449 -166.239
c-2.19336 -32.9854 -3.70117 -66.124 -6.37695 -99.1221c31.8799 -1.96484 63.7061 -9.9043 91.668 -21.2051z" />
    <glyph glyph-name="six" unicode="6" horiz-adv-x="401" 
d="M369.065 187.555c12.9219 -76.4121 -23.1689 -156.423 -99.3691 -182.914c-37.9502 -13.2002 -75.9209 -6.22461 -111.798 9.67578c-38.2119 16.9355 -73.6816 41.7861 -92.7979 79.8691c-43.0693 85.8018 -28.6309 190.583 -9.40234 281.038
c19.9307 93.7793 54.7734 183.919 100.489 268.097c14.6748 27.0146 54.3574 33.1475 79.54 19.3945c27.293 -14.9033 35.4072 -47.2988 20.8574 -73.9727c-33.085 -60.6562 -58.6621 -124.891 -76.877 -191.405c2.74609 -0.257812 5.58398 -1.09277 8.42188 -2.63379
c82.1045 -44.5527 164.399 -109.381 180.936 -207.148zM261.935 49.9238c64.6621 27.9414 76.7656 105.209 54.1221 165.03c-25.2197 66.623 -86.0264 110.203 -146.068 143.596c-0.361328 -1.5791 -0.743164 -3.15332 -1.09668 -4.73633
c-14.4717 -64.9531 -28.7188 -136.974 -18.6143 -203.584c3.98828 -26.2998 13.2705 -63.7803 31.0781 -84.542c19.5488 -22.7939 53.8135 -27.3311 80.5791 -15.7637z" />
    <glyph glyph-name="seven" unicode="7" horiz-adv-x="421" 
d="M344.337 646.126c30.9746 2.04785 52.3691 -28.0654 46.1074 -56.2891c-21.9248 -98.8066 -45.8447 -197.775 -71.6377 -295.643c-12.9131 -48.998 -25.2783 -98.25 -39.5547 -146.866c-7.2793 -24.7959 -13.0342 -50.8174 -22.6074 -74.8281
c-9.98828 -25.0625 -26.6904 -44.8145 -48.5615 -59.917c-12.6348 -8.72559 -36.4922 -3.30371 -43.5684 10.623c-25.6523 50.498 -5.06934 104.237 7.74805 155.799c11.8916 47.8428 25.6729 95.291 38.8398 142.802c22.4199 80.916 46.4102 161.799 71.5176 242.066
c-70.4658 7.63281 -140.937 15.2607 -211.402 22.8887c-27.8711 3.0166 -28.7061 39.3965 0 41.2949c91.041 6.02441 182.078 12.0449 273.119 18.0693z" />
    <glyph glyph-name="eight" unicode="8" horiz-adv-x="431" 
d="M325.557 229.24c9.49805 -27.3682 21.457 -54.0586 24.8057 -83.292c6.57324 -57.3203 -20.7197 -113.29 -72.5811 -139.931c-52.5801 -27.0107 -119.174 -19.7646 -164.2 18.6514c-38.9023 33.1885 -57.8857 87.8291 -53.7061 138.152
c4.79883 57.7812 33.4258 109.077 65.9453 155.906c-45.1338 41.3037 -90.4258 99.2139 -88.7764 163.157c1.4248 55.2549 31.3857 112.247 79.3115 140.476c98.0547 57.752 220.457 0.444336 261.927 -98.8359c39.874 -95.458 1.13379 -202.707 -55.1064 -288.056
c0.847656 -2.06055 1.65332 -4.12988 2.38086 -6.22852zM139.025 582.141c-51.3955 -37.3857 -21.7588 -99.4658 7.93555 -141.127c36.2881 -50.8887 90.9121 -85.2744 129.004 -134.613c6.83105 -8.8418 14.0938 -17.8535 21.0322 -27.1689
c22.8271 37.7803 42.3545 76.9316 50.3027 122.577c11.3467 65.1602 -7.37109 135.273 -62.0322 175.937c-42.1719 31.373 -102.612 36.1348 -146.242 4.39551zM305.095 114.007c1.97363 23.0137 -2.93262 53.1943 -17.1211 73.3291
c-3.27441 -4.05469 -6.55664 -8.05566 -9.85156 -11.9365c-14.21 -16.7441 -43.7422 3.92578 -32.1172 23.0469c3.78906 6.23633 7.66113 12.4023 11.5547 18.543c-15.0283 13.4033 -30.4219 26.2334 -47.7227 37.0527c-16.79 10.499 -33.2598 22.3945 -49.0859 34.9756
c-34.3604 -50.3486 -65.9209 -109.68 -51.0303 -171.213c15.502 -64.0469 81.6934 -106.967 145.092 -75.2441c27.5596 13.79 47.6152 40.3809 50.2822 71.4463z" />
    <glyph glyph-name="nine" unicode="9" horiz-adv-x="401" 
d="M335.537 542.354c43.0693 -85.8018 28.6318 -190.582 9.40723 -281.041c-19.9307 -93.7793 -54.7734 -183.919 -100.489 -268.097c-14.6748 -27.0186 -54.3574 -33.1465 -79.54 -19.3936c-27.293 14.9033 -35.4072 47.2988 -20.8574 73.9727
c33.085 60.6562 58.6621 124.891 76.877 191.405c-2.74609 0.261719 -5.58398 1.09668 -8.42188 2.6377c-82.1045 44.5479 -164.403 109.376 -180.936 207.144c-12.9219 76.4082 23.1631 156.422 99.3633 182.917c37.9502 13.2002 75.9219 6.22461 111.799 -9.67578
c38.2119 -16.9355 73.6816 -41.7861 92.7979 -79.8691zM231.746 282.723c14.4717 64.9531 28.7188 136.974 18.6143 203.584c-3.98828 26.2998 -13.2705 63.7803 -31.0781 84.542c-19.5527 22.7939 -53.8135 27.3311 -80.5791 15.7637
c-64.6621 -27.9414 -76.7656 -105.209 -54.1221 -165.03c25.2197 -66.623 86.0264 -110.203 146.068 -143.596c0.361328 1.5791 0.743164 3.15332 1.09668 4.73633z" />
    <glyph glyph-name="colon" unicode=":" horiz-adv-x="175" 
d="M86.5918 341.077c-26.832 -1.11719 -52.5801 21.7822 -52.5889 48.9014c0 10.5781 -0.00390625 21.1562 -0.00390625 31.7344c-0.00390625 29.3545 26.1387 48.5791 53.4609 49.7178c13.0713 0.543945 28.3281 -5.70898 37.8057 -14.5625
c8.94922 -8.35938 16.3535 -22.5645 15.6592 -35.1533c-0.582031 -10.5781 -1.16797 -21.1562 -1.75 -31.7344c-1.58691 -28.8682 -24.4219 -47.7314 -52.583 -48.9033zM87.46 278.366c13.0713 0.543945 28.3281 -5.70996 37.8008 -14.5635
c8.94922 -8.35938 16.3535 -22.5693 15.6592 -35.1543c-0.582031 -10.5781 -1.16797 -21.1562 -1.75 -31.7344c-1.58691 -28.8721 -24.4219 -47.7354 -52.583 -48.9072c-26.832 -1.11719 -52.5801 21.7842 -52.584 48.9072
c0 10.5781 -0.00390625 21.1562 -0.00390625 31.7344c-0.00390625 29.3545 26.1387 48.5791 53.4609 49.7178z" />
    <glyph glyph-name="semicolon" unicode=";" horiz-adv-x="186" 
d="M87.5879 341.077c-26.832 -1.11719 -52.5801 21.7822 -52.584 48.9014c0 10.5781 -0.00390625 21.1562 -0.00390625 31.7344c-0.00390625 29.3545 26.1426 48.5791 53.4609 49.7178c13.0674 0.543945 28.3242 -5.70898 37.8018 -14.5625
c8.94922 -8.35938 16.3535 -22.5645 15.6592 -35.1533c-0.582031 -10.5781 -1.16797 -21.1562 -1.75 -31.7344c-1.5918 -28.8682 -24.4229 -47.7314 -52.584 -48.9033zM141.858 231.379c21.2852 -53.6143 2.85547 -118.508 -55.666 -144.002
c-22.7314 -9.90137 -44.6982 19.6602 -20.9365 33.3135c12.4316 7.14258 22.4951 16.9023 29.7041 28.0957c-2.41406 -0.381836 -4.86133 -0.676758 -7.37109 -0.780273c-26.832 -1.11719 -52.5801 21.7842 -52.584 48.9072
c0 10.5781 -0.00390625 21.1562 -0.00390625 31.7344c-0.00390625 29.3545 26.1426 48.5791 53.4609 49.7178c7.49121 0.31543 15.6758 -1.6582 23.1045 -5.02344c0.394531 -0.15332 0.785156 -0.332031 1.17578 -0.518555
c5.07715 -2.43457 9.76367 -5.50488 13.5195 -9.01562c8.30957 -7.76562 15.1982 -20.5625 15.5967 -32.4287z" />
    <glyph glyph-name="less" unicode="&#x3c;" horiz-adv-x="341" 
d="M306.507 542.778c15.6016 -24.917 5.90918 -60.4932 -20.7568 -73.6016c-38.7109 -19.0371 -78.0283 -38.6768 -115.002 -60.9346c-17.3379 -10.4365 -33.7705 -22.4062 -49.7754 -34.7666c-7.02148 -5.42188 -13.7314 -10.9062 -20.666 -15.6465
c3.12891 -3.25293 6.0293 -6.14844 7.3916 -7.83496c8.36328 -10.3584 16.9717 -20.5049 25.5801 -30.6592c14.3174 -16.8975 28.6348 -33.7949 42.9521 -50.6885c30.4258 -35.9062 60.8516 -71.8086 91.2773 -107.715
c17.2305 -20.3301 -12.9795 -46.8008 -29.7441 -27.6631l-95.7158 109.251c-16.4121 18.7305 -32.8193 37.4609 -49.2266 56.1865c-7.2959 8.32617 -14.6289 16.5947 -22.1406 24.7256c-5.44727 5.89551 -13.8027 20.1631 -21.4473 22.0703
c-13.6699 3.41504 -21.4561 14.5957 -22.9434 28.0244c-3.06641 27.7168 18.7178 46.1143 36.8701 63.5186c15.5312 14.8906 31.8643 28.8057 48.0762 42.9326c36.2266 31.5645 73.8574 59.1445 116.129 82.0996c26.4375 14.3594 62.8633 6.69824 79.1416 -19.2988z" />
    <glyph glyph-name="equal" unicode="=" horiz-adv-x="360" 
d="M71.1328 289.27c-54.9062 -0.486328 -54.7764 79.6738 0.000976562 79.873c37.8545 0.141602 75.7139 0.283203 113.568 0.424805c37.1523 0.136719 80.0225 5.99512 116.153 -2.9043c38.3447 -9.44434 37.6133 -62.3857 -0.000976562 -72.1582
c-35.9102 -9.33203 -79.0791 -3.90137 -116.153 -4.22949c-37.8545 -0.336914 -75.7139 -0.668945 -113.568 -1.00586zM300.855 265.393c38.3408 -9.44434 37.6143 -62.3848 0 -72.1611c-35.9102 -9.33203 -79.0791 -3.90137 -116.153 -4.22949
c-37.8545 -0.336914 -75.7139 -0.668945 -113.568 -1.00586c-54.9102 -0.486328 -54.7773 79.6729 0 79.876c37.8545 0.141602 75.7139 0.283203 113.568 0.424805c37.1523 0.136719 80.0225 5.99512 116.153 -2.9043z" />
    <glyph glyph-name="greater" unicode="&#x3e;" horiz-adv-x="342" 
d="M280.457 434.549c17.3926 -16.8184 37.2305 -34.4912 34.2891 -61.0156c-1.4873 -13.4326 -9.11523 -24.5674 -22.9424 -28.0244c-7.55762 -1.89062 -19.1084 -19.4951 -24.2607 -25.1162c-7.47852 -8.16016 -14.7666 -16.4785 -22.0625 -24.8008
c-15.498 -17.6875 -30.9912 -35.3789 -46.4893 -53.0664l-95.7158 -109.251c-16.7773 -19.1494 -46.9746 7.33789 -29.749 27.6631c30.4258 35.9023 60.8516 71.8086 91.2773 107.715c15.2109 17.9492 30.4258 35.9023 45.6367 53.8555
c8.60059 10.1504 17.126 20.3418 25.4775 30.7041c0.893555 1.10938 2.56348 2.8252 4.49512 4.81543c-7.86523 5.36426 -15.3936 11.6543 -23.2422 17.666c-15.0986 11.5625 -30.5879 22.7432 -46.8877 32.5527c-36.9785 22.2617 -76.2871 41.8975 -115.006 60.9346
c-26.7822 13.167 -36.3926 48.6201 -20.75 73.5986c16.2451 25.9385 52.7373 33.6377 79.1416 19.2988c42.2793 -22.9639 79.8936 -50.5312 116.128 -82.0996c17.1221 -14.916 34.3271 -29.6328 50.6602 -45.4297z" />
    <glyph glyph-name="question" unicode="?" horiz-adv-x="483" 
d="M440.153 647.892c28.9805 -99.1309 -7.91113 -197.826 -48.0928 -288.045c-43.2607 -97.1113 -82.2129 -201.913 -158.92 -278.063c-15.3975 -15.2861 -48.3496 -5.24414 -47.377 18.252c4.25879 102.833 54.1045 196.018 95.3203 288.264
c31.835 71.2471 67.1221 146.475 63.1953 224.772c-1.50391 29.9561 -6.92578 63.0498 -25.4395 87.4268c-2.96289 3.90527 -6.48633 7.38672 -8.87988 11.7041c-1.4209 2.57227 -2.40527 4.375 -3.05371 5.60059c-5.09375 3.61035 -11.2764 6.58984 -16.8193 8.7627
c-13.9648 5.47168 -29.4336 8.30078 -44.3828 8.76172c-70.5498 2.17676 -127.205 -48.209 -148.645 -113.174c-11.3594 -34.4189 -13.4746 -71.8662 6.83887 -103.077c21.3848 -32.8604 42.1338 -67.0215 67.001 -97.4062
c18.8672 -23.0557 2.60938 -58.958 -20.1221 -71.373c-26.6572 -14.5586 -59.5391 -5.47656 -76.7441 18.7129c-34.0986 47.9473 -47.7969 97.8135 -39.8193 156.151c3.19922 23.4082 2.59668 46.8994 6.84668 70.2783c4.03809 22.2285 10.4736 43.3604 20.1836 63.79
c34.0986 71.7627 106.343 123.195 187.338 119.959c19.333 -0.772461 38.6826 -4.15039 56.8896 -10.7441c8.22266 -2.97949 16.2793 -6.39844 24.3857 -9.67676c9.04492 -3.65625 18.834 -4.98145 27.6133 -9.44336c37.9883 -19.3203 70.9033 -61.1348 82.6826 -101.433z
M211.614 43.1104c27.9287 1.16309 59.0371 -23.7236 57.2627 -53.248c-1.19238 -19.8477 0.635742 -44.2744 -6.11621 -62.9629c-8.43848 -23.3418 -29.0303 -36.8496 -53.4902 -37.8721c-22.5107 -0.939453 -47.751 15.6797 -53.4893 37.8711
c-5.20996 20.1514 -2.14746 42.3213 -1.4248 62.9629c1.10059 31.4443 27.1016 51.9941 57.2578 53.249z" />
    <glyph glyph-name="at" unicode="@" horiz-adv-x="739" 
d="M668.635 133.787c19.4238 18.3145 52.1172 -9.66992 31.4092 -29.2061c-132.411 -124.828 -325.957 -203.671 -500.54 -117.412c-160.078 79.0957 -202.171 277.885 -131.326 432.969c70.8359 155.059 257.127 252.373 424.156 201.094
c78.71 -24.165 144.81 -82.1543 169.768 -161.773c26.5498 -84.6885 5.59668 -176.149 -37.626 -251.414c-20.292 -35.333 -45.0303 -77.5791 -82.9893 -96.0723c-42.9863 -20.9404 -97.4355 -11.2012 -125.563 29.4082c-25.6895 37.0947 -30.4346 89.5166 -29.3086 134.672
c-20.1758 -30.7256 -39.8652 -63.5283 -65.8125 -89.1885c-49.1309 -48.583 -118.463 -45.4209 -163.838 5.56738c-12.1611 13.6611 -23.6035 27.1689 -30.2725 44.4951c-6.40234 16.6406 -6.92188 36.0605 -5.49219 53.752c3.0791 38.042 17.4512 74.3262 34.1201 108.296
c31.2109 63.6064 87.4639 112.472 157.557 127.172c62.1729 13.0381 120.656 -9.37695 165.828 -50.0566c3.76465 -0.265625 7.55762 -0.855469 11.334 -1.82324c28.2568 -7.25 53.0195 -38.9678 42.0303 -68.8457c-14.9902 -40.7637 -24.1641 -82.0127 -27.3965 -125.244
c-2.46777 -33.0273 -8.20996 -81.5273 7.18359 -108.929c3.82617 -6.81348 2.6582 -5.56738 7.38184 -5.59668c7.44922 -0.0498047 15.3682 5.7793 20.8691 10.042c16.6855 12.9463 28.5059 30.8701 39.6074 48.5527c22.2871 35.499 39.4385 74.9746 46.3398 116.515
c11.8291 71.2021 -8.52148 146.197 -63.0498 195.021c-57.0664 51.0967 -138.651 65.7969 -212.612 52.4893c-140.767 -25.332 -252.267 -142.05 -268.729 -284.636c-8.36816 -72.4941 6.34863 -149.616 50.8965 -208.628
c38.9971 -51.6611 99.458 -83.6826 161.951 -96.8369c139.516 -29.3623 275.159 42.3213 374.124 135.618zM396.374 363.333c3.29492 16.5029 7.42578 32.8271 12.2539 48.8984c-32.2578 33.5254 -74.2139 51.5117 -117.932 20.7617
c-46.1895 -32.4863 -76.6816 -100.381 -83.2168 -155.067c-3.23633 -27.0811 -6.99609 -58.4707 17.6426 -76.2246c29.3877 -21.1729 60.9482 8.25977 78.7314 30.8701c32.8359 41.748 62.7217 86.3418 92.5205 130.762z" />
    <glyph glyph-name="A" unicode="A" horiz-adv-x="345" 
d="M20.1338 46.4941c1.6123 12.0117 3.38184 24.0215 5.27637 36.0205c-26.3877 3.29102 -25.9395 42.8828 1.76465 41.1084c1.73242 -0.112305 3.45703 -0.174805 5.18555 -0.27832c12.3691 68.6543 28.1201 137.039 43.1855 204.771
c16.5693 74.4883 34.7383 148.632 54.0127 222.472c-3.39453 25.4355 -6.70996 50.8799 -9.97168 76.3115c-4.4668 34.8135 34.8926 58.2881 63.9766 59.501c35.4238 1.47461 60.1162 -26.8203 63.9766 -59.502c12.4893 -105.804 27.8252 -211.146 42.8701 -316.604
c7.19629 -50.4482 15.0078 -100.813 23.1934 -151.108c4.49512 -27.6543 8.19336 -55.292 11.501 -83.1084c3.40723 -28.6523 -1.41699 -53.1787 -8.92871 -80.8252c-7.82812 -28.793 -46.3438 -28.2734 -61.9414 -7.52832
c-17.9443 23.8613 -30.833 45.4912 -38.4658 74.5918c-1.3418 5.13574 -2.62598 10.2666 -3.90527 15.4023c-47.5186 -1.15527 -95.2744 0.0458984 -142.644 2.33105c-2.8877 -12.8926 -5.8418 -25.7686 -8.91602 -38.6113
c-4.92773 -20.5752 -43.082 -16.6406 -40.1699 5.05566zM120.918 320.642c-15.5928 -66.1455 -28.5342 -132.939 -42.7148 -199.404c41.3115 -1.3877 82.5273 -1.45801 123.793 -0.963867c-1.55371 7.24609 -3.06152 14.5088 -4.50781 21.8086
c-10.3418 52.2139 -20.1973 104.523 -29.5625 156.92c-7.62012 42.6289 -14.5215 85.416 -20.9658 128.277c-8.91211 -35.4863 -17.6455 -71.0186 -26.042 -106.638z" />
    <glyph glyph-name="A" unicode="&#xc5;" horiz-adv-x="345" 
d="M20.1338 46.4941c1.6123 12.0117 3.38184 24.0215 5.27637 36.0205c-26.3877 3.29102 -25.9395 42.8828 1.76465 41.1084c1.73242 -0.112305 3.45703 -0.174805 5.18555 -0.27832c12.3691 68.6543 28.1201 137.039 43.1855 204.771
c16.5693 74.4883 34.7383 148.632 54.0127 222.472c-3.39453 25.4355 -6.70996 50.8799 -9.97168 76.3115c-4.4668 34.8135 34.8926 58.2881 63.9766 59.501c35.4238 1.47461 60.1162 -26.8203 63.9766 -59.502c12.4893 -105.804 27.8252 -211.146 42.8701 -316.604
c7.19629 -50.4482 15.0078 -100.813 23.1934 -151.108c4.49512 -27.6543 8.19336 -55.292 11.501 -83.1084c3.40723 -28.6523 -1.41699 -53.1787 -8.92871 -80.8252c-7.82812 -28.793 -46.3438 -28.2734 -61.9414 -7.52832
c-17.9443 23.8613 -30.833 45.4912 -38.4658 74.5918c-1.3418 5.13574 -2.62598 10.2666 -3.90527 15.4023c-47.5186 -1.15527 -95.2744 0.0458984 -142.644 2.33105c-2.8877 -12.8926 -5.8418 -25.7686 -8.91602 -38.6113
c-4.92773 -20.5752 -43.082 -16.6406 -40.1699 5.05566zM120.918 320.642c-15.5928 -66.1455 -28.5342 -132.939 -42.7148 -199.404c41.3115 -1.3877 82.5273 -1.45801 123.793 -0.963867c-1.55371 7.24609 -3.06152 14.5088 -4.50781 21.8086
c-10.3418 52.2139 -20.1973 104.523 -29.5625 156.92c-7.62012 42.6289 -14.5215 85.416 -20.9658 128.277c-8.91211 -35.4863 -17.6455 -71.0186 -26.042 -106.638z" />
    <glyph glyph-name="A" unicode="&#xc4;" horiz-adv-x="345" 
d="M20.1338 46.4941c1.6123 12.0117 3.38184 24.0215 5.27637 36.0205c-26.3877 3.29102 -25.9395 42.8828 1.76465 41.1084c1.73242 -0.112305 3.45703 -0.174805 5.18555 -0.27832c12.3691 68.6543 28.1201 137.039 43.1855 204.771
c16.5693 74.4883 34.7383 148.632 54.0127 222.472c-3.39453 25.4355 -6.70996 50.8799 -9.97168 76.3115c-4.4668 34.8135 34.8926 58.2881 63.9766 59.501c35.4238 1.47461 60.1162 -26.8203 63.9766 -59.502c12.4893 -105.804 27.8252 -211.146 42.8701 -316.604
c7.19629 -50.4482 15.0078 -100.813 23.1934 -151.108c4.49512 -27.6543 8.19336 -55.292 11.501 -83.1084c3.40723 -28.6523 -1.41699 -53.1787 -8.92871 -80.8252c-7.82812 -28.793 -46.3438 -28.2734 -61.9414 -7.52832
c-17.9443 23.8613 -30.833 45.4912 -38.4658 74.5918c-1.3418 5.13574 -2.62598 10.2666 -3.90527 15.4023c-47.5186 -1.15527 -95.2744 0.0458984 -142.644 2.33105c-2.8877 -12.8926 -5.8418 -25.7686 -8.91602 -38.6113
c-4.92773 -20.5752 -43.082 -16.6406 -40.1699 5.05566zM120.918 320.642c-15.5928 -66.1455 -28.5342 -132.939 -42.7148 -199.404c41.3115 -1.3877 82.5273 -1.45801 123.793 -0.963867c-1.55371 7.24609 -3.06152 14.5088 -4.50781 21.8086
c-10.3418 52.2139 -20.1973 104.523 -29.5625 156.92c-7.62012 42.6289 -14.5215 85.416 -20.9658 128.277c-8.91211 -35.4863 -17.6455 -71.0186 -26.042 -106.638z" />
    <glyph glyph-name="A" unicode="&#xc3;" horiz-adv-x="345" 
d="M20.1338 46.4941c1.6123 12.0117 3.38184 24.0215 5.27637 36.0205c-26.3877 3.29102 -25.9395 42.8828 1.76465 41.1084c1.73242 -0.112305 3.45703 -0.174805 5.18555 -0.27832c12.3691 68.6543 28.1201 137.039 43.1855 204.771
c16.5693 74.4883 34.7383 148.632 54.0127 222.472c-3.39453 25.4355 -6.70996 50.8799 -9.97168 76.3115c-4.4668 34.8135 34.8926 58.2881 63.9766 59.501c35.4238 1.47461 60.1162 -26.8203 63.9766 -59.502c12.4893 -105.804 27.8252 -211.146 42.8701 -316.604
c7.19629 -50.4482 15.0078 -100.813 23.1934 -151.108c4.49512 -27.6543 8.19336 -55.292 11.501 -83.1084c3.40723 -28.6523 -1.41699 -53.1787 -8.92871 -80.8252c-7.82812 -28.793 -46.3438 -28.2734 -61.9414 -7.52832
c-17.9443 23.8613 -30.833 45.4912 -38.4658 74.5918c-1.3418 5.13574 -2.62598 10.2666 -3.90527 15.4023c-47.5186 -1.15527 -95.2744 0.0458984 -142.644 2.33105c-2.8877 -12.8926 -5.8418 -25.7686 -8.91602 -38.6113
c-4.92773 -20.5752 -43.082 -16.6406 -40.1699 5.05566zM120.918 320.642c-15.5928 -66.1455 -28.5342 -132.939 -42.7148 -199.404c41.3115 -1.3877 82.5273 -1.45801 123.793 -0.963867c-1.55371 7.24609 -3.06152 14.5088 -4.50781 21.8086
c-10.3418 52.2139 -20.1973 104.523 -29.5625 156.92c-7.62012 42.6289 -14.5215 85.416 -20.9658 128.277c-8.91211 -35.4863 -17.6455 -71.0186 -26.042 -106.638z" />
    <glyph glyph-name="A" unicode="&#xc2;" horiz-adv-x="345" 
d="M20.1338 46.4941c1.6123 12.0117 3.38184 24.0215 5.27637 36.0205c-26.3877 3.29102 -25.9395 42.8828 1.76465 41.1084c1.73242 -0.112305 3.45703 -0.174805 5.18555 -0.27832c12.3691 68.6543 28.1201 137.039 43.1855 204.771
c16.5693 74.4883 34.7383 148.632 54.0127 222.472c-3.39453 25.4355 -6.70996 50.8799 -9.97168 76.3115c-4.4668 34.8135 34.8926 58.2881 63.9766 59.501c35.4238 1.47461 60.1162 -26.8203 63.9766 -59.502c12.4893 -105.804 27.8252 -211.146 42.8701 -316.604
c7.19629 -50.4482 15.0078 -100.813 23.1934 -151.108c4.49512 -27.6543 8.19336 -55.292 11.501 -83.1084c3.40723 -28.6523 -1.41699 -53.1787 -8.92871 -80.8252c-7.82812 -28.793 -46.3438 -28.2734 -61.9414 -7.52832
c-17.9443 23.8613 -30.833 45.4912 -38.4658 74.5918c-1.3418 5.13574 -2.62598 10.2666 -3.90527 15.4023c-47.5186 -1.15527 -95.2744 0.0458984 -142.644 2.33105c-2.8877 -12.8926 -5.8418 -25.7686 -8.91602 -38.6113
c-4.92773 -20.5752 -43.082 -16.6406 -40.1699 5.05566zM120.918 320.642c-15.5928 -66.1455 -28.5342 -132.939 -42.7148 -199.404c41.3115 -1.3877 82.5273 -1.45801 123.793 -0.963867c-1.55371 7.24609 -3.06152 14.5088 -4.50781 21.8086
c-10.3418 52.2139 -20.1973 104.523 -29.5625 156.92c-7.62012 42.6289 -14.5215 85.416 -20.9658 128.277c-8.91211 -35.4863 -17.6455 -71.0186 -26.042 -106.638z" />
    <glyph glyph-name="A" unicode="&#xc1;" horiz-adv-x="345" 
d="M20.1338 46.4941c1.6123 12.0117 3.38184 24.0215 5.27637 36.0205c-26.3877 3.29102 -25.9395 42.8828 1.76465 41.1084c1.73242 -0.112305 3.45703 -0.174805 5.18555 -0.27832c12.3691 68.6543 28.1201 137.039 43.1855 204.771
c16.5693 74.4883 34.7383 148.632 54.0127 222.472c-3.39453 25.4355 -6.70996 50.8799 -9.97168 76.3115c-4.4668 34.8135 34.8926 58.2881 63.9766 59.501c35.4238 1.47461 60.1162 -26.8203 63.9766 -59.502c12.4893 -105.804 27.8252 -211.146 42.8701 -316.604
c7.19629 -50.4482 15.0078 -100.813 23.1934 -151.108c4.49512 -27.6543 8.19336 -55.292 11.501 -83.1084c3.40723 -28.6523 -1.41699 -53.1787 -8.92871 -80.8252c-7.82812 -28.793 -46.3438 -28.2734 -61.9414 -7.52832
c-17.9443 23.8613 -30.833 45.4912 -38.4658 74.5918c-1.3418 5.13574 -2.62598 10.2666 -3.90527 15.4023c-47.5186 -1.15527 -95.2744 0.0458984 -142.644 2.33105c-2.8877 -12.8926 -5.8418 -25.7686 -8.91602 -38.6113
c-4.92773 -20.5752 -43.082 -16.6406 -40.1699 5.05566zM120.918 320.642c-15.5928 -66.1455 -28.5342 -132.939 -42.7148 -199.404c41.3115 -1.3877 82.5273 -1.45801 123.793 -0.963867c-1.55371 7.24609 -3.06152 14.5088 -4.50781 21.8086
c-10.3418 52.2139 -20.1973 104.523 -29.5625 156.92c-7.62012 42.6289 -14.5215 85.416 -20.9658 128.277c-8.91211 -35.4863 -17.6455 -71.0186 -26.042 -106.638z" />
    <glyph glyph-name="A" unicode="&#xc0;" horiz-adv-x="345" 
d="M20.1338 46.4941c1.6123 12.0117 3.38184 24.0215 5.27637 36.0205c-26.3877 3.29102 -25.9395 42.8828 1.76465 41.1084c1.73242 -0.112305 3.45703 -0.174805 5.18555 -0.27832c12.3691 68.6543 28.1201 137.039 43.1855 204.771
c16.5693 74.4883 34.7383 148.632 54.0127 222.472c-3.39453 25.4355 -6.70996 50.8799 -9.97168 76.3115c-4.4668 34.8135 34.8926 58.2881 63.9766 59.501c35.4238 1.47461 60.1162 -26.8203 63.9766 -59.502c12.4893 -105.804 27.8252 -211.146 42.8701 -316.604
c7.19629 -50.4482 15.0078 -100.813 23.1934 -151.108c4.49512 -27.6543 8.19336 -55.292 11.501 -83.1084c3.40723 -28.6523 -1.41699 -53.1787 -8.92871 -80.8252c-7.82812 -28.793 -46.3438 -28.2734 -61.9414 -7.52832
c-17.9443 23.8613 -30.833 45.4912 -38.4658 74.5918c-1.3418 5.13574 -2.62598 10.2666 -3.90527 15.4023c-47.5186 -1.15527 -95.2744 0.0458984 -142.644 2.33105c-2.8877 -12.8926 -5.8418 -25.7686 -8.91602 -38.6113
c-4.92773 -20.5752 -43.082 -16.6406 -40.1699 5.05566zM120.918 320.642c-15.5928 -66.1455 -28.5342 -132.939 -42.7148 -199.404c41.3115 -1.3877 82.5273 -1.45801 123.793 -0.963867c-1.55371 7.24609 -3.06152 14.5088 -4.50781 21.8086
c-10.3418 52.2139 -20.1973 104.523 -29.5625 156.92c-7.62012 42.6289 -14.5215 85.416 -20.9658 128.277c-8.91211 -35.4863 -17.6455 -71.0186 -26.042 -106.638z" />
    <glyph glyph-name="B" unicode="B" horiz-adv-x="432" 
d="M124.046 -22.041c-8.5918 -2.36426 -17.667 -2.56738 -25.9189 -0.15332c-6.25293 0.810547 -10.9229 3.65234 -13.9766 7.54102c-3.46973 3 -6.51074 6.75195 -8.91602 11.3682c-14.3799 27.6094 -14.6211 56.6562 -17.0557 87.1113
c-2.20215 27.543 -4.49609 55.0811 -6.71484 82.624c-4.3291 53.7139 -7.49121 107.387 -9.45215 161.242c-3.97656 109.09 -4.05566 217.702 -0.00878906 326.792c2.29395 61.791 91.332 69.5361 112.405 22.7441c50.8594 24.3057 111.666 20.334 159.82 -12.4268
c26.3711 -17.9404 53.8057 -39.0596 73.0762 -64.624c22.7852 -30.2344 32.8525 -71.8037 34.3154 -109.123c2.9541 -75.5605 -24.5889 -151.191 -75.54 -206.903c-29.8359 -32.624 -75.3145 -50.5146 -121.554 -56.2314c38.3203 -34.498 54.707 -90.2314 39.6455 -141.444
c-18.5557 -63.0996 -76.9395 -103.036 -140.126 -108.517zM217.234 98.5039c13.5693 47.5312 -10.1426 95.1406 -55.75 113.302c-0.980469 0.390625 -1.88184 0.889648 -2.74609 1.43359c0.162109 -14.2217 0.31543 -28.4434 0.485352 -42.665
c0.311523 -26.1758 0.793945 -52.335 1.75781 -78.498c0.722656 -19.6396 3.34473 -40.2598 1.56641 -60.1035c25.7354 13.5615 46.0029 36.1182 54.6865 66.5312zM298.558 617.19c-36.4385 33.7041 -96.0244 41.2734 -136.646 10.5771
c-1.10059 -0.834961 -2.24707 -1.5293 -3.40234 -2.15234c-1.25879 -97.9004 -1.73633 -195.913 -0.958984 -293.793c0.15332 -19.7188 0.356445 -39.4375 0.551758 -59.1562c24.0195 0.573242 47.7109 5.59277 68.2275 18.7432
c20.3213 13.0215 39.209 34.5605 55.9326 52.0938c32.3994 33.9619 50.4521 83.1885 52.8535 129.603c1.44629 27.9121 -1.31641 54.748 -8.95312 81.5547c-5.88281 20.6367 -11.2842 47.4355 -27.6045 62.5303z" />
    <glyph glyph-name="C" unicode="C" horiz-adv-x="462" 
d="M259.884 -25.46c-46.2393 -4.55762 -100.128 10.3525 -135.544 40.7041c-41.2949 35.3828 -65.6836 93.4717 -79.2744 144.871c-29.2334 110.573 -28.1035 228.846 3.78516 338.774c15.2861 52.6963 35.8232 107.682 70.9355 150.506
c36.5088 44.5195 98.1836 64.0186 151.341 40.1699c22.4941 -10.0918 43.4678 -19.8887 61.4707 -37.5342c16.7734 -16.4404 31.1953 -35.8936 43.1445 -56.0859c27.0068 -45.624 41.4658 -97.2275 42.3213 -150.193c0.457031 -28.3154 -45.6787 -28.1162 -46.7422 0
c-1.84863 48.7119 -17.2344 95.2295 -44.4697 135.669c-12.2402 18.1777 -26.791 36.7168 -45.3379 48.8486c-18.8174 12.3105 -30.3594 4.53711 -47.4482 -7.74023c-27.543 -19.79 -40.9385 -56.3945 -52.5391 -85.8154
c-16.1836 -41.0498 -27.4844 -83.5957 -35.4365 -126.96c-14.8457 -80.9443 -9.14941 -164.577 6.66406 -244.808c7.95703 -40.3682 19.167 -79.0254 44.4951 -112.202c11.1309 -14.5791 22.7607 -28.6475 40.8838 -33.3301
c17.8496 -4.6123 35.0713 -2.9707 52.3301 3.21191c83.4375 29.8818 100.908 122.784 115.247 199.316c4.5498 24.2764 42.9785 14.2627 39.4385 -10.1143c-8.32227 -57.3076 -19.6523 -118.019 -55.8242 -165.114c-31.8057 -41.416 -77.5586 -67.0596 -129.44 -72.1738z
" />
    <glyph glyph-name="C" unicode="&#xc7;" horiz-adv-x="462" 
d="M259.884 -25.46c-46.2393 -4.55762 -100.128 10.3525 -135.544 40.7041c-41.2949 35.3828 -65.6836 93.4717 -79.2744 144.871c-29.2334 110.573 -28.1035 228.846 3.78516 338.774c15.2861 52.6963 35.8232 107.682 70.9355 150.506
c36.5088 44.5195 98.1836 64.0186 151.341 40.1699c22.4941 -10.0918 43.4678 -19.8887 61.4707 -37.5342c16.7734 -16.4404 31.1953 -35.8936 43.1445 -56.0859c27.0068 -45.624 41.4658 -97.2275 42.3213 -150.193c0.457031 -28.3154 -45.6787 -28.1162 -46.7422 0
c-1.84863 48.7119 -17.2344 95.2295 -44.4697 135.669c-12.2402 18.1777 -26.791 36.7168 -45.3379 48.8486c-18.8174 12.3105 -30.3594 4.53711 -47.4482 -7.74023c-27.543 -19.79 -40.9385 -56.3945 -52.5391 -85.8154
c-16.1836 -41.0498 -27.4844 -83.5957 -35.4365 -126.96c-14.8457 -80.9443 -9.14941 -164.577 6.66406 -244.808c7.95703 -40.3682 19.167 -79.0254 44.4951 -112.202c11.1309 -14.5791 22.7607 -28.6475 40.8838 -33.3301
c17.8496 -4.6123 35.0713 -2.9707 52.3301 3.21191c83.4375 29.8818 100.908 122.784 115.247 199.316c4.5498 24.2764 42.9785 14.2627 39.4385 -10.1143c-8.32227 -57.3076 -19.6523 -118.019 -55.8242 -165.114c-31.8057 -41.416 -77.5586 -67.0596 -129.44 -72.1738z
" />
    <glyph glyph-name="D" unicode="D" horiz-adv-x="512" 
d="M75.2432 -3.29004c-14.3799 27.6133 -14.6172 56.6592 -17.0645 87.1143c-2.20215 27.543 -4.49609 55.0811 -6.71484 82.624c-4.3291 53.7139 -7.49121 107.386 -9.45215 161.241c-3.97656 109.09 -4.05566 217.702 -0.00878906 326.792
c2.26855 61.0928 89.3047 69.332 111.642 24.2891c60.9014 26.084 131.866 22.4404 192.062 -10.9229c141.913 -78.6514 182.764 -271.532 124.151 -414.534c-29.8193 -72.7637 -76.7031 -137.812 -141.211 -183.433c-33.7578 -23.874 -70.665 -41.7979 -109.688 -55.3467
c-18.668 -6.48145 -37.9424 -12.1152 -57.4199 -15.5469c-2.9248 -0.515625 -5.8623 -0.852539 -8.7998 -1.08984c-17.0303 -25.332 -61.3418 -32.208 -77.4961 -1.1875zM305.068 603.18c-46.875 26.6699 -103.769 26.5234 -146.892 -6.42871
c-0.980469 -88.2949 -1.30859 -176.66 -0.606445 -264.918c0.423828 -53.7471 1.02637 -107.498 1.6748 -161.245c0.311523 -26.1758 0.793945 -52.335 1.75781 -78.498c0.211914 -5.88281 0.602539 -11.8574 0.993164 -17.8691
c12.7803 3.32422 25.4521 7.16699 37.7461 11.9531c33.5713 13.0586 65.6055 31.5811 93.3477 54.541c47.0283 38.9189 84.9912 86.4004 104.652 144.78c19.3535 57.4619 23.0303 120.383 7.27051 179.149c-15.1484 56.4727 -48.2334 109.114 -99.9443 138.535z" />
    <glyph glyph-name="E" unicode="E" horiz-adv-x="384" 
d="M355.092 594.382c-65.1895 -5.43848 -131.566 -3.75684 -197.021 -4.83691c-0.626953 -58.4834 -0.97168 -116.992 -0.892578 -175.48c43.8799 1.04688 88.8643 4.78613 132.549 1.49121c28.4854 -2.15234 27.3262 -37.4023 0 -40.7549
c-43.4473 -5.33496 -88.5107 -3.75195 -132.353 -4.77832c0.0585938 -12.7266 0.0751953 -25.4609 0.174805 -38.1826c0.423828 -53.7471 1.03027 -107.498 1.67383 -161.245c0.31543 -26.1758 0.792969 -52.335 1.75684 -78.498
c0.515625 -13.9814 1.99512 -28.4531 2.16504 -42.792c63.7979 1.14648 128.318 4.70312 191.941 1.4707c28.2451 -1.4375 27.6348 -38.4492 0.000976562 -40.7549c-65.6797 -5.48047 -132.561 -3.72754 -198.502 -4.87402
c-12.7471 -31.0283 -63.7559 -42.2256 -81.3555 -8.42969c-14.376 27.6094 -14.6172 56.6562 -17.0518 87.1113c-2.20215 27.543 -4.49609 55.0811 -6.71484 82.624c-4.3291 53.7139 -7.49121 107.387 -9.45215 161.242
c-3.97168 109.09 -4.05469 217.702 -0.0078125 326.792c2.61328 70.4121 117.877 70.666 116.854 0c-0.0996094 -6.96777 -0.162109 -13.9395 -0.253906 -20.9072c65.2725 1.05078 131.352 4.86914 196.487 1.55762c28.2451 -1.4375 27.6348 -38.4492 0.000976562 -40.7549z
" />
    <glyph glyph-name="E" unicode="&#xcb;" horiz-adv-x="384" 
d="M355.092 594.382c-65.1895 -5.43848 -131.566 -3.75684 -197.021 -4.83691c-0.626953 -58.4834 -0.97168 -116.992 -0.892578 -175.48c43.8799 1.04688 88.8643 4.78613 132.549 1.49121c28.4854 -2.15234 27.3262 -37.4023 0 -40.7549
c-43.4473 -5.33496 -88.5107 -3.75195 -132.353 -4.77832c0.0585938 -12.7266 0.0751953 -25.4609 0.174805 -38.1826c0.423828 -53.7471 1.03027 -107.498 1.67383 -161.245c0.31543 -26.1758 0.792969 -52.335 1.75684 -78.498
c0.515625 -13.9814 1.99512 -28.4531 2.16504 -42.792c63.7979 1.14648 128.318 4.70312 191.941 1.4707c28.2451 -1.4375 27.6348 -38.4492 0.000976562 -40.7549c-65.6797 -5.48047 -132.561 -3.72754 -198.502 -4.87402
c-12.7471 -31.0283 -63.7559 -42.2256 -81.3555 -8.42969c-14.376 27.6094 -14.6172 56.6562 -17.0518 87.1113c-2.20215 27.543 -4.49609 55.0811 -6.71484 82.624c-4.3291 53.7139 -7.49121 107.387 -9.45215 161.242
c-3.97168 109.09 -4.05469 217.702 -0.0078125 326.792c2.61328 70.4121 117.877 70.666 116.854 0c-0.0996094 -6.96777 -0.162109 -13.9395 -0.253906 -20.9072c65.2725 1.05078 131.352 4.86914 196.487 1.55762c28.2451 -1.4375 27.6348 -38.4492 0.000976562 -40.7549z
" />
    <glyph glyph-name="E" unicode="&#xca;" horiz-adv-x="384" 
d="M355.092 594.382c-65.1895 -5.43848 -131.566 -3.75684 -197.021 -4.83691c-0.626953 -58.4834 -0.97168 -116.992 -0.892578 -175.48c43.8799 1.04688 88.8643 4.78613 132.549 1.49121c28.4854 -2.15234 27.3262 -37.4023 0 -40.7549
c-43.4473 -5.33496 -88.5107 -3.75195 -132.353 -4.77832c0.0585938 -12.7266 0.0751953 -25.4609 0.174805 -38.1826c0.423828 -53.7471 1.03027 -107.498 1.67383 -161.245c0.31543 -26.1758 0.792969 -52.335 1.75684 -78.498
c0.515625 -13.9814 1.99512 -28.4531 2.16504 -42.792c63.7979 1.14648 128.318 4.70312 191.941 1.4707c28.2451 -1.4375 27.6348 -38.4492 0.000976562 -40.7549c-65.6797 -5.48047 -132.561 -3.72754 -198.502 -4.87402
c-12.7471 -31.0283 -63.7559 -42.2256 -81.3555 -8.42969c-14.376 27.6094 -14.6172 56.6562 -17.0518 87.1113c-2.20215 27.543 -4.49609 55.0811 -6.71484 82.624c-4.3291 53.7139 -7.49121 107.387 -9.45215 161.242
c-3.97168 109.09 -4.05469 217.702 -0.0078125 326.792c2.61328 70.4121 117.877 70.666 116.854 0c-0.0996094 -6.96777 -0.162109 -13.9395 -0.253906 -20.9072c65.2725 1.05078 131.352 4.86914 196.487 1.55762c28.2451 -1.4375 27.6348 -38.4492 0.000976562 -40.7549z
" />
    <glyph glyph-name="E" unicode="&#xc9;" horiz-adv-x="384" 
d="M355.092 594.382c-65.1895 -5.43848 -131.566 -3.75684 -197.021 -4.83691c-0.626953 -58.4834 -0.97168 -116.992 -0.892578 -175.48c43.8799 1.04688 88.8643 4.78613 132.549 1.49121c28.4854 -2.15234 27.3262 -37.4023 0 -40.7549
c-43.4473 -5.33496 -88.5107 -3.75195 -132.353 -4.77832c0.0585938 -12.7266 0.0751953 -25.4609 0.174805 -38.1826c0.423828 -53.7471 1.03027 -107.498 1.67383 -161.245c0.31543 -26.1758 0.792969 -52.335 1.75684 -78.498
c0.515625 -13.9814 1.99512 -28.4531 2.16504 -42.792c63.7979 1.14648 128.318 4.70312 191.941 1.4707c28.2451 -1.4375 27.6348 -38.4492 0.000976562 -40.7549c-65.6797 -5.48047 -132.561 -3.72754 -198.502 -4.87402
c-12.7471 -31.0283 -63.7559 -42.2256 -81.3555 -8.42969c-14.376 27.6094 -14.6172 56.6562 -17.0518 87.1113c-2.20215 27.543 -4.49609 55.0811 -6.71484 82.624c-4.3291 53.7139 -7.49121 107.387 -9.45215 161.242
c-3.97168 109.09 -4.05469 217.702 -0.0078125 326.792c2.61328 70.4121 117.877 70.666 116.854 0c-0.0996094 -6.96777 -0.162109 -13.9395 -0.253906 -20.9072c65.2725 1.05078 131.352 4.86914 196.487 1.55762c28.2451 -1.4375 27.6348 -38.4492 0.000976562 -40.7549z
" />
    <glyph glyph-name="E" unicode="&#xc8;" horiz-adv-x="384" 
d="M355.092 594.382c-65.1895 -5.43848 -131.566 -3.75684 -197.021 -4.83691c-0.626953 -58.4834 -0.97168 -116.992 -0.892578 -175.48c43.8799 1.04688 88.8643 4.78613 132.549 1.49121c28.4854 -2.15234 27.3262 -37.4023 0 -40.7549
c-43.4473 -5.33496 -88.5107 -3.75195 -132.353 -4.77832c0.0585938 -12.7266 0.0751953 -25.4609 0.174805 -38.1826c0.423828 -53.7471 1.03027 -107.498 1.67383 -161.245c0.31543 -26.1758 0.792969 -52.335 1.75684 -78.498
c0.515625 -13.9814 1.99512 -28.4531 2.16504 -42.792c63.7979 1.14648 128.318 4.70312 191.941 1.4707c28.2451 -1.4375 27.6348 -38.4492 0.000976562 -40.7549c-65.6797 -5.48047 -132.561 -3.72754 -198.502 -4.87402
c-12.7471 -31.0283 -63.7559 -42.2256 -81.3555 -8.42969c-14.376 27.6094 -14.6172 56.6562 -17.0518 87.1113c-2.20215 27.543 -4.49609 55.0811 -6.71484 82.624c-4.3291 53.7139 -7.49121 107.387 -9.45215 161.242
c-3.97168 109.09 -4.05469 217.702 -0.0078125 326.792c2.61328 70.4121 117.877 70.666 116.854 0c-0.0996094 -6.96777 -0.162109 -13.9395 -0.253906 -20.9072c65.2725 1.05078 131.352 4.86914 196.487 1.55762c28.2451 -1.4375 27.6348 -38.4492 0.000976562 -40.7549z
" />
    <glyph glyph-name="F" unicode="F" horiz-adv-x="372" 
d="M355.094 653.551c-64.9482 -5.41797 -131.067 -3.77246 -196.299 -4.83594c-1.49121 -105.575 -2.07715 -211.308 -1.23828 -316.883c0.0703125 -9.26074 0.173828 -18.5264 0.256836 -27.792c43.6797 1.06738 88.4395 4.75684 131.916 1.47461
c28.4854 -2.15234 27.3223 -37.4023 0 -40.7549c-43.1689 -5.30176 -87.9336 -3.77734 -131.506 -4.76172c0.307617 -29.8027 0.644531 -59.6094 1.00195 -89.4121c0.31543 -26.1758 0.792969 -52.335 1.75684 -78.498c1.03906 -28.1865 6.0166 -58.3838 -3.76367 -85.4072
c-11.6543 -32.1963 -64.0928 -44.3164 -81.9834 -9.96387c-14.3799 27.6094 -14.6211 56.6562 -17.0557 87.1113c-2.20215 27.543 -4.49609 55.0811 -6.71484 82.624c-4.3291 53.7139 -7.49121 107.386 -9.45215 161.241
c-3.97656 109.09 -4.05566 217.702 -0.00878906 326.792c2.02734 54.6318 71.8457 67.001 102.575 36.8037c2.40527 0.822266 5.09766 1.30859 8.09766 1.35059c67.1963 0.897461 135.307 5.07715 202.416 1.66602c28.2451 -1.4375 27.6348 -38.4492 0.000976562 -40.7549z
" />
    <glyph glyph-name="G" unicode="G" horiz-adv-x="491" 
d="M465.394 199.857c-7.4082 -0.910156 -14.8779 -1.56543 -22.3652 -2.11426c-8.23047 -53.0449 -20.4834 -107.776 -53.7061 -151.032c-31.8057 -41.416 -77.5547 -67.0596 -129.437 -72.1738c-46.2432 -4.55762 -100.128 10.3584 -135.544 40.7051
c-41.2949 35.3828 -65.6885 93.4717 -79.2793 144.871c-29.2295 110.573 -28.1035 228.846 3.78516 338.774c15.2861 52.6963 35.8232 107.682 70.9355 150.506c36.5049 44.5195 98.1836 64.0186 151.341 40.1699c22.4902 -10.0918 43.4639 -19.8887 61.4668 -37.5342
c16.7773 -16.4404 31.1943 -35.8936 43.1436 -56.0859c27.0068 -45.624 41.4697 -97.2275 42.3252 -150.193c0.457031 -28.3154 -45.6787 -28.1162 -46.7422 0c-1.84473 48.7119 -17.2344 95.2295 -44.4697 135.669c-12.2441 18.1777 -26.79 36.7168 -45.3369 48.8486
c-18.8135 12.3105 -30.3594 4.53711 -47.4482 -7.74023c-27.5381 -19.79 -40.9375 -56.3945 -52.5381 -85.8154c-16.1836 -41.0498 -27.4844 -83.5957 -35.4365 -126.96c-14.8457 -80.9443 -9.14941 -164.577 6.66406 -244.808
c7.95703 -40.3682 19.1631 -79.0254 44.4912 -112.202c11.1309 -14.5791 22.7607 -28.6475 40.8838 -33.3301c17.8496 -4.6123 35.0713 -2.9707 52.3301 3.21191c74.1602 26.5615 96.2012 102.902 110.253 173.29c-24.21 -0.453125 -48.4863 -0.257812 -72.3682 -0.926758
c-30.2559 -0.847656 -30.1523 43.4307 -0.000976562 44.0127c45.3008 0.876953 91.877 5.02344 137.053 1.6123c28.4854 -2.15234 27.3262 -37.4023 0 -40.7549z" />
    <glyph glyph-name="H" unicode="H" horiz-adv-x="447" 
d="M317.702 666.215c-0.543945 52.7129 88.7197 52.4453 87.0498 0.00292969c-3.51074 -110.781 -6.75195 -221.861 -4.5625 -332.684c2.18945 -110.735 4.66992 -221.545 3.48145 -332.326c-0.253906 -23.3252 -40.5557 -29.3828 -44.1865 -5.56348
c-13.4951 88.5479 -22.166 177.923 -27.4385 267.36c-57.7734 -2.9209 -116.1 -2.03223 -173.831 -3.03809c0.311523 -29.7939 0.648438 -59.5928 1.00586 -89.3828c0.31543 -26.1758 0.792969 -52.335 1.75684 -78.498c1.04297 -28.1865 6.0166 -58.3838 -3.76367 -85.4072
c-11.6543 -32.1963 -64.0928 -44.3164 -81.9834 -9.96387c-14.376 27.6094 -14.6172 56.6562 -17.0518 87.1113c-2.20215 27.543 -4.49609 55.0811 -6.71484 82.624c-4.3291 53.7139 -7.49121 107.387 -9.45215 161.242
c-3.97168 109.09 -4.05469 217.702 -0.0078125 326.792c2.61328 70.4121 117.877 70.666 116.854 0c-1.5498 -107.494 -2.16504 -215.159 -1.30957 -322.657c0.0751953 -9.27734 0.178711 -18.5547 0.261719 -27.832c57.0918 0.93457 114.711 3.75586 171.928 2.9043
c-0.348633 7.50781 -0.739258 15.0195 -1.04297 22.5273c-4.57422 112.285 -9.83398 224.396 -10.9932 336.788z" />
    <glyph glyph-name="I" unicode="I" horiz-adv-x="229" 
d="M190.185 -22.7715c-44.1455 -4.25488 -89.8691 -1.00586 -134.21 -0.980469c-30.2432 0.00878906 -30.1973 44.291 0 44.0127c6.21191 -0.0537109 12.457 -0.0449219 18.7139 -0.00292969c-5.57129 20.458 -6.21484 41.6475 -7.96777 63.5723
c-2.20215 27.543 -4.49609 55.0811 -6.71484 82.624c-4.3291 53.7139 -7.49121 107.387 -9.45215 161.242c-3.97656 109.09 -4.05566 217.702 -0.00878906 326.792c0.186523 5.04004 1.00488 9.67676 2.26367 13.998
c-1.71191 0.00878906 -3.43164 0.0419922 -5.14355 0.0419922c-30.2432 0.0126953 -30.1973 44.291 0 44.0127c44.3574 -0.407227 90.1025 2.40137 134.21 -2.27246c27.833 -2.9541 27.9951 -38.0547 0 -40.7549c-5.30176 -0.510742 -10.6201 -0.901367 -15.959 -1.21289
c0.99707 -4.2666 1.55371 -8.8457 1.4834 -13.8145c-1.55371 -107.494 -2.16406 -215.159 -1.30859 -322.657c0.423828 -53.7471 1.02637 -107.498 1.6748 -161.245c0.31543 -26.1758 0.792969 -52.335 1.75684 -78.498
c0.876953 -23.7617 4.5166 -48.9482 -0.211914 -72.4609c6.98828 -0.407227 13.9521 -0.90625 20.874 -1.6416c27.833 -2.9541 27.9951 -38.0547 0 -40.7549z" />
    <glyph glyph-name="I" unicode="&#xcf;" horiz-adv-x="229" 
d="M190.185 -22.7715c-44.1455 -4.25488 -89.8691 -1.00586 -134.21 -0.980469c-30.2432 0.00878906 -30.1973 44.291 0 44.0127c6.21191 -0.0537109 12.457 -0.0449219 18.7139 -0.00292969c-5.57129 20.458 -6.21484 41.6475 -7.96777 63.5723
c-2.20215 27.543 -4.49609 55.0811 -6.71484 82.624c-4.3291 53.7139 -7.49121 107.387 -9.45215 161.242c-3.97656 109.09 -4.05566 217.702 -0.00878906 326.792c0.186523 5.04004 1.00488 9.67676 2.26367 13.998
c-1.71191 0.00878906 -3.43164 0.0419922 -5.14355 0.0419922c-30.2432 0.0126953 -30.1973 44.291 0 44.0127c44.3574 -0.407227 90.1025 2.40137 134.21 -2.27246c27.833 -2.9541 27.9951 -38.0547 0 -40.7549c-5.30176 -0.510742 -10.6201 -0.901367 -15.959 -1.21289
c0.99707 -4.2666 1.55371 -8.8457 1.4834 -13.8145c-1.55371 -107.494 -2.16406 -215.159 -1.30859 -322.657c0.423828 -53.7471 1.02637 -107.498 1.6748 -161.245c0.31543 -26.1758 0.792969 -52.335 1.75684 -78.498
c0.876953 -23.7617 4.5166 -48.9482 -0.211914 -72.4609c6.98828 -0.407227 13.9521 -0.90625 20.874 -1.6416c27.833 -2.9541 27.9951 -38.0547 0 -40.7549z" />
    <glyph glyph-name="I" unicode="&#xce;" horiz-adv-x="229" 
d="M190.185 -22.7715c-44.1455 -4.25488 -89.8691 -1.00586 -134.21 -0.980469c-30.2432 0.00878906 -30.1973 44.291 0 44.0127c6.21191 -0.0537109 12.457 -0.0449219 18.7139 -0.00292969c-5.57129 20.458 -6.21484 41.6475 -7.96777 63.5723
c-2.20215 27.543 -4.49609 55.0811 -6.71484 82.624c-4.3291 53.7139 -7.49121 107.387 -9.45215 161.242c-3.97656 109.09 -4.05566 217.702 -0.00878906 326.792c0.186523 5.04004 1.00488 9.67676 2.26367 13.998
c-1.71191 0.00878906 -3.43164 0.0419922 -5.14355 0.0419922c-30.2432 0.0126953 -30.1973 44.291 0 44.0127c44.3574 -0.407227 90.1025 2.40137 134.21 -2.27246c27.833 -2.9541 27.9951 -38.0547 0 -40.7549c-5.30176 -0.510742 -10.6201 -0.901367 -15.959 -1.21289
c0.99707 -4.2666 1.55371 -8.8457 1.4834 -13.8145c-1.55371 -107.494 -2.16406 -215.159 -1.30859 -322.657c0.423828 -53.7471 1.02637 -107.498 1.6748 -161.245c0.31543 -26.1758 0.792969 -52.335 1.75684 -78.498
c0.876953 -23.7617 4.5166 -48.9482 -0.211914 -72.4609c6.98828 -0.407227 13.9521 -0.90625 20.874 -1.6416c27.833 -2.9541 27.9951 -38.0547 0 -40.7549z" />
    <glyph glyph-name="I" unicode="&#xcd;" horiz-adv-x="229" 
d="M190.185 -22.7715c-44.1455 -4.25488 -89.8691 -1.00586 -134.21 -0.980469c-30.2432 0.00878906 -30.1973 44.291 0 44.0127c6.21191 -0.0537109 12.457 -0.0449219 18.7139 -0.00292969c-5.57129 20.458 -6.21484 41.6475 -7.96777 63.5723
c-2.20215 27.543 -4.49609 55.0811 -6.71484 82.624c-4.3291 53.7139 -7.49121 107.387 -9.45215 161.242c-3.97656 109.09 -4.05566 217.702 -0.00878906 326.792c0.186523 5.04004 1.00488 9.67676 2.26367 13.998
c-1.71191 0.00878906 -3.43164 0.0419922 -5.14355 0.0419922c-30.2432 0.0126953 -30.1973 44.291 0 44.0127c44.3574 -0.407227 90.1025 2.40137 134.21 -2.27246c27.833 -2.9541 27.9951 -38.0547 0 -40.7549c-5.30176 -0.510742 -10.6201 -0.901367 -15.959 -1.21289
c0.99707 -4.2666 1.55371 -8.8457 1.4834 -13.8145c-1.55371 -107.494 -2.16406 -215.159 -1.30859 -322.657c0.423828 -53.7471 1.02637 -107.498 1.6748 -161.245c0.31543 -26.1758 0.792969 -52.335 1.75684 -78.498
c0.876953 -23.7617 4.5166 -48.9482 -0.211914 -72.4609c6.98828 -0.407227 13.9521 -0.90625 20.874 -1.6416c27.833 -2.9541 27.9951 -38.0547 0 -40.7549z" />
    <glyph glyph-name="I" unicode="&#xcc;" horiz-adv-x="229" 
d="M190.185 -22.7715c-44.1455 -4.25488 -89.8691 -1.00586 -134.21 -0.980469c-30.2432 0.00878906 -30.1973 44.291 0 44.0127c6.21191 -0.0537109 12.457 -0.0449219 18.7139 -0.00292969c-5.57129 20.458 -6.21484 41.6475 -7.96777 63.5723
c-2.20215 27.543 -4.49609 55.0811 -6.71484 82.624c-4.3291 53.7139 -7.49121 107.387 -9.45215 161.242c-3.97656 109.09 -4.05566 217.702 -0.00878906 326.792c0.186523 5.04004 1.00488 9.67676 2.26367 13.998
c-1.71191 0.00878906 -3.43164 0.0419922 -5.14355 0.0419922c-30.2432 0.0126953 -30.1973 44.291 0 44.0127c44.3574 -0.407227 90.1025 2.40137 134.21 -2.27246c27.833 -2.9541 27.9951 -38.0547 0 -40.7549c-5.30176 -0.510742 -10.6201 -0.901367 -15.959 -1.21289
c0.99707 -4.2666 1.55371 -8.8457 1.4834 -13.8145c-1.55371 -107.494 -2.16406 -215.159 -1.30859 -322.657c0.423828 -53.7471 1.02637 -107.498 1.6748 -161.245c0.31543 -26.1758 0.792969 -52.335 1.75684 -78.498
c0.876953 -23.7617 4.5166 -48.9482 -0.211914 -72.4609c6.98828 -0.407227 13.9521 -0.90625 20.874 -1.6416c27.833 -2.9541 27.9951 -38.0547 0 -40.7549z" />
    <glyph glyph-name="J" unicode="J" horiz-adv-x="401" 
d="M357.877 710.597c27.9707 -1.99414 27.9062 -38.7578 0.00683594 -40.7646c-5.9375 -0.423828 -11.8994 -0.722656 -17.8574 -1.02148c4.2627 -8.51367 6.79688 -17.8955 6.94238 -27.7012c1.35059 -91.1904 3.72266 -182.436 3.74805 -273.639
c0.0253906 -79.877 3.83984 -160.867 -4.84766 -240.407c-7.3291 -67.1094 -20.4004 -169.489 -106.231 -176.295c-70.292 -5.57129 -114.823 66.79 -145.282 118.759c-37.3105 63.6611 -68.9453 129.802 -93.085 199.595c-9.31934 26.9404 35.416 37.2363 44.5068 11.4141
c24.335 -69.124 55.3838 -136.897 95.79 -198.198c14.21 -21.5596 30.6797 -52.8994 56.3027 -62.6504c18.0693 -6.87598 30.2676 4.43359 33.8701 21.2188c5.7002 26.5781 -0.544922 58.915 -3.0957 86.167c-3.16602 33.8242 -6.82617 67.6113 -8.6084 101.544
c-7.21289 137.472 -12.751 274.943 -17.9697 412.502c-0.374023 9.84277 1.69922 18.8506 5.55469 26.8574c-13.3125 0.145508 -26.6035 0.257812 -39.8447 0.21582v44.0117c63.0703 -0.186523 127.192 2.87988 190.101 -1.60742z" />
    <glyph glyph-name="K" unicode="K" horiz-adv-x="423" 
d="M396.665 1.87012c13.0957 -19.9805 -18.6631 -40.7725 -33.5039 -24.0205c-39.7578 44.8887 -74.4883 95.2119 -111.15 142.664c-31.1992 40.3848 -62.4023 80.7695 -93.6055 121.154c0.257812 -23.6953 0.52832 -47.3867 0.81543 -71.0781
c0.31543 -26.1758 0.792969 -52.335 1.75684 -78.498c1.03906 -28.1865 6.0166 -58.3838 -3.76367 -85.4072c-11.6543 -32.1963 -64.0928 -44.3164 -81.9834 -9.96387c-14.376 27.6094 -14.6172 56.6562 -17.0518 87.1113c-2.20215 27.543 -4.49609 55.0811 -6.71484 82.624
c-4.3291 53.7139 -7.49121 107.386 -9.45215 161.241c-3.97168 109.09 -4.05469 217.702 -0.0078125 326.792c2.61328 70.4121 117.877 70.666 116.854 0c-1.5498 -107.494 -2.16504 -215.159 -1.30957 -322.657c0.0253906 -3.0127 0.0625 -6.02051 0.0878906 -9.0332
c73.1084 72.9014 146.296 145.728 219.504 218.529c21.4473 21.3311 58.7832 -10.7734 35.5283 -33.043c-77.0557 -73.79 -154.137 -147.563 -231.305 -221.241c35.8311 -47.3115 71.6621 -94.623 107.498 -141.931c35.8691 -47.3574 75.249 -93.5635 107.803 -143.243z" />
    <glyph glyph-name="L" unicode="L" horiz-adv-x="397" 
d="M42.0049 654.485c2.61328 70.4082 117.879 70.6631 116.861 0.00195312c-1.55371 -107.494 -2.16406 -215.159 -1.30859 -322.657c0.423828 -53.7471 1.02637 -107.498 1.6748 -161.245c0.31543 -26.1758 0.792969 -52.335 1.75684 -78.498
c0.764648 -20.8242 3.66895 -42.7451 1.19238 -63.6729c72.0703 14.6377 144.161 30.3887 216.643 42.251c25.7764 4.2168 38.6104 -31.7764 11.3379 -38.25c-82.2451 -19.5234 -166.016 -34.0615 -248.851 -50.9219
c-3.0127 -0.610352 -5.83789 -0.647461 -8.46387 -0.265625c-20.085 -9.48145 -46.0527 -6.70215 -57.6113 15.4893c-14.3799 27.6094 -14.6211 56.6562 -17.0557 87.1113c-2.20215 27.543 -4.49609 55.0811 -6.71484 82.624
c-4.3291 53.7139 -7.49121 107.386 -9.45215 161.241c-3.97656 109.09 -4.05566 217.702 -0.00878906 326.792z" />
    <glyph glyph-name="M" unicode="M" horiz-adv-x="577" 
d="M416.929 449.036c-26.2051 -59.377 -52.4121 -118.754 -78.6172 -178.135c-0.482422 -1.10059 -1.06445 -2.10156 -1.67969 -3.05762c4.37109 -20.2803 -29.6943 -30.543 -39.8281 -12.3652c-35.5859 63.8311 -63.2861 133.425 -94.3604 199.587
c-14.9121 31.751 -29.8242 63.498 -44.7363 95.249c-0.602539 -72.8389 -0.739258 -145.702 -0.162109 -218.495c0.423828 -53.7471 1.03027 -107.498 1.67383 -161.245c0.31543 -26.1758 0.792969 -52.335 1.75684 -78.498
c1.03906 -28.1865 6.0166 -58.3838 -3.76367 -85.4072c-11.6543 -32.1963 -64.0928 -44.3164 -81.9834 -9.96387c-14.376 27.6094 -14.6172 56.6562 -17.0518 87.1113c-2.20215 27.543 -4.49609 55.0811 -6.71484 82.624c-4.3291 53.7139 -7.49121 107.386 -9.45215 161.241
c-3.97168 109.09 -4.05469 217.702 -0.0078125 326.792c2.61328 70.4121 117.877 70.666 116.854 0c-0.0126953 -0.951172 -0.0214844 -1.91113 -0.0341797 -2.8623c27.8955 -59.8047 55.791 -119.605 83.6865 -179.41c23.3174 -49.9785 49.3271 -99.7285 71.9873 -150.438
l63.0088 141.598c13.707 30.8125 26.6406 62.3604 40.1816 93.6006c0.0458984 15.4688 0.0917969 30.9414 0.117188 46.4102c0.116211 72.7686 120.661 72.6436 120.362 0c-0.398438 -97.4932 -0.0371094 -194.999 -2.52148 -292.464
c-1.2627 -49.4258 -2.24316 -98.8682 -3.78418 -148.29c-0.731445 -23.3877 -2.53906 -46.792 -5.33105 -70.0264c-3.22852 -26.8779 -16.3867 -47.2324 -23.1387 -72.8389c-6.58496 -24.9746 -47.6104 -25.1533 -54.0879 0
c-3.41504 13.2666 -9.79688 24.6758 -14.7998 37.3691c-5.13574 13.0254 -6.90527 25.6855 -8.41309 39.5918c-2.52637 23.2588 -4.02637 46.6377 -4.56641 70.0254c-1.11328 48.0547 -1.90723 96.1182 -2.8584 144.173c-0.917969 46.4307 -1.18359 92.8691 -1.2002 139.312
c-0.178711 -0.394531 -0.361328 -0.792969 -0.536133 -1.1875z" />
    <glyph glyph-name="N" unicode="N" horiz-adv-x="485" 
d="M356.974 9.57812c-3.34473 13.2207 -9.54199 24.8799 -14.5107 37.4941c-3.88086 9.82227 -5.9082 19.7109 -7.34961 29.9277c-15.6055 38.7188 -29.3252 78.4639 -44.3154 117.154c-20.3799 52.6045 -40.7637 105.213 -61.1436 157.817
c-24.0068 61.9736 -48.0176 123.943 -72.0283 185.917c-0.515625 -68.6924 -0.619141 -137.409 -0.0751953 -206.056c0.423828 -53.7471 1.03027 -107.498 1.67383 -161.245c0.31543 -26.1758 0.792969 -52.335 1.75684 -78.498
c1.03906 -28.1865 6.0166 -58.3838 -3.76367 -85.4072c-11.6543 -32.1963 -64.0928 -44.3164 -81.9834 -9.96387c-14.3799 27.6094 -14.6211 56.6562 -17.0557 87.1113c-2.20215 27.543 -4.49609 55.0811 -6.71484 82.624
c-4.3291 53.7139 -7.49121 107.387 -9.45215 161.242c-3.97168 109.09 -4.05469 217.702 -0.0078125 326.792c1.80762 48.7734 57.6572 63.8555 91.4814 45.0469c5.19336 -1.58301 9.83887 -4.85742 12.793 -10.0381c7.2334 -7.88574 11.9033 -18.3975 12.4521 -31.5186
c37.4141 -97.0615 74.8281 -194.119 112.242 -291.181c19.0459 -49.4092 38.0918 -98.8145 57.1377 -148.224c-0.548828 28.8809 -1.10156 57.7656 -1.6543 86.6455c-1.89062 98.9688 -0.930664 197.967 -0.739258 296.952c0.141602 72.7686 120.687 72.6436 120.362 0
c-0.44043 -98.9854 -0.120117 -197.991 -2.64258 -296.951c-1.2627 -49.4922 -2.27246 -98.9932 -3.78906 -148.478c-0.760742 -24.7715 -2.44336 -49.6465 -5.52246 -74.2393c-3.33203 -26.6113 -16.4609 -47.498 -23.0635 -72.9258
c-6.48535 -24.9707 -47.7227 -25.166 -54.0879 0z" />
    <glyph glyph-name="N" unicode="&#xd1;" horiz-adv-x="485" 
d="M356.974 9.57812c-3.34473 13.2207 -9.54199 24.8799 -14.5107 37.4941c-3.88086 9.82227 -5.9082 19.7109 -7.34961 29.9277c-15.6055 38.7188 -29.3252 78.4639 -44.3154 117.154c-20.3799 52.6045 -40.7637 105.213 -61.1436 157.817
c-24.0068 61.9736 -48.0176 123.943 -72.0283 185.917c-0.515625 -68.6924 -0.619141 -137.409 -0.0751953 -206.056c0.423828 -53.7471 1.03027 -107.498 1.67383 -161.245c0.31543 -26.1758 0.792969 -52.335 1.75684 -78.498
c1.03906 -28.1865 6.0166 -58.3838 -3.76367 -85.4072c-11.6543 -32.1963 -64.0928 -44.3164 -81.9834 -9.96387c-14.3799 27.6094 -14.6211 56.6562 -17.0557 87.1113c-2.20215 27.543 -4.49609 55.0811 -6.71484 82.624
c-4.3291 53.7139 -7.49121 107.387 -9.45215 161.242c-3.97168 109.09 -4.05469 217.702 -0.0078125 326.792c1.80762 48.7734 57.6572 63.8555 91.4814 45.0469c5.19336 -1.58301 9.83887 -4.85742 12.793 -10.0381c7.2334 -7.88574 11.9033 -18.3975 12.4521 -31.5186
c37.4141 -97.0615 74.8281 -194.119 112.242 -291.181c19.0459 -49.4092 38.0918 -98.8145 57.1377 -148.224c-0.548828 28.8809 -1.10156 57.7656 -1.6543 86.6455c-1.89062 98.9688 -0.930664 197.967 -0.739258 296.952c0.141602 72.7686 120.687 72.6436 120.362 0
c-0.44043 -98.9854 -0.120117 -197.991 -2.64258 -296.951c-1.2627 -49.4922 -2.27246 -98.9932 -3.78906 -148.478c-0.760742 -24.7715 -2.44336 -49.6465 -5.52246 -74.2393c-3.33203 -26.6113 -16.4609 -47.498 -23.0635 -72.9258
c-6.48535 -24.9707 -47.7227 -25.166 -54.0879 0z" />
    <glyph glyph-name="O" unicode="O" horiz-adv-x="444" 
d="M380.783 119.931c-18.6426 -48.9238 -46.8818 -95.9072 -97.4385 -116.802c-51.8779 -21.4395 -121.197 -7.17188 -165.7 24.9863c-53.2236 38.4619 -76.1211 111.732 -86.9648 173.582c-13.2461 75.5518 -12.3027 148.42 -0.78125 224.088
c4.09277 26.8857 31.5352 41.166 57.374 43.875c-1.625 7.14258 -2.87988 14.1855 -3.74805 20.9541c-8.22266 64.0342 16.6113 127.786 72.3154 162.483c48.749 30.3633 108.679 26.5078 154.822 -6.67676c47.8682 -34.4229 71.2021 -90.4219 86.3047 -145.549
c33.8906 -123.702 29.6191 -260.737 -16.1836 -380.941zM197.435 85.8486c18.04 -29.3623 52.2949 -47.7334 86.543 -28.6963c35.5283 19.752 52.335 67.3877 63.7529 103.598c31.2109 98.9814 35.877 206.268 12.5928 307.472
c-10.3662 45.0557 -24.2646 94.4482 -56.4062 129.232c-31.0117 33.5586 -76.4824 47.918 -118.513 26.0264c-43.0273 -22.4111 -62.7168 -68.6172 -60.7432 -115.608c0.585938 -13.9434 3.27441 -31.8799 8.74609 -49.0225
c13.8896 -10.084 22.0625 -25.8555 24.2686 -43.0645c10.0469 -9.71387 22.7236 -15.3184 38.5244 -13.5938c27.1436 2.96289 26.6865 -36.7529 0 -39.665c-15.917 -1.73633 -29.9893 0.910156 -42.3545 6.66895c-5.65918 -47.7061 -5.10645 -99.75 0.0126953 -148.038
c2.58398 -24.4102 7.01758 -49.082 13.6982 -72.7109c6.50684 -23.0098 17.0723 -41.7568 29.8779 -62.5977z" />
    <glyph glyph-name="O" unicode="&#xd8;" horiz-adv-x="444" 
d="M380.783 119.931c-18.6426 -48.9238 -46.8818 -95.9072 -97.4385 -116.802c-51.8779 -21.4395 -121.197 -7.17188 -165.7 24.9863c-53.2236 38.4619 -76.1211 111.732 -86.9648 173.582c-13.2461 75.5518 -12.3027 148.42 -0.78125 224.088
c4.09277 26.8857 31.5352 41.166 57.374 43.875c-1.625 7.14258 -2.87988 14.1855 -3.74805 20.9541c-8.22266 64.0342 16.6113 127.786 72.3154 162.483c48.749 30.3633 108.679 26.5078 154.822 -6.67676c47.8682 -34.4229 71.2021 -90.4219 86.3047 -145.549
c33.8906 -123.702 29.6191 -260.737 -16.1836 -380.941zM197.435 85.8486c18.04 -29.3623 52.2949 -47.7334 86.543 -28.6963c35.5283 19.752 52.335 67.3877 63.7529 103.598c31.2109 98.9814 35.877 206.268 12.5928 307.472
c-10.3662 45.0557 -24.2646 94.4482 -56.4062 129.232c-31.0117 33.5586 -76.4824 47.918 -118.513 26.0264c-43.0273 -22.4111 -62.7168 -68.6172 -60.7432 -115.608c0.585938 -13.9434 3.27441 -31.8799 8.74609 -49.0225
c13.8896 -10.084 22.0625 -25.8555 24.2686 -43.0645c10.0469 -9.71387 22.7236 -15.3184 38.5244 -13.5938c27.1436 2.96289 26.6865 -36.7529 0 -39.665c-15.917 -1.73633 -29.9893 0.910156 -42.3545 6.66895c-5.65918 -47.7061 -5.10645 -99.75 0.0126953 -148.038
c2.58398 -24.4102 7.01758 -49.082 13.6982 -72.7109c6.50684 -23.0098 17.0723 -41.7568 29.8779 -62.5977z" />
    <glyph glyph-name="O" unicode="&#xd6;" horiz-adv-x="444" 
d="M380.783 119.931c-18.6426 -48.9238 -46.8818 -95.9072 -97.4385 -116.802c-51.8779 -21.4395 -121.197 -7.17188 -165.7 24.9863c-53.2236 38.4619 -76.1211 111.732 -86.9648 173.582c-13.2461 75.5518 -12.3027 148.42 -0.78125 224.088
c4.09277 26.8857 31.5352 41.166 57.374 43.875c-1.625 7.14258 -2.87988 14.1855 -3.74805 20.9541c-8.22266 64.0342 16.6113 127.786 72.3154 162.483c48.749 30.3633 108.679 26.5078 154.822 -6.67676c47.8682 -34.4229 71.2021 -90.4219 86.3047 -145.549
c33.8906 -123.702 29.6191 -260.737 -16.1836 -380.941zM197.435 85.8486c18.04 -29.3623 52.2949 -47.7334 86.543 -28.6963c35.5283 19.752 52.335 67.3877 63.7529 103.598c31.2109 98.9814 35.877 206.268 12.5928 307.472
c-10.3662 45.0557 -24.2646 94.4482 -56.4062 129.232c-31.0117 33.5586 -76.4824 47.918 -118.513 26.0264c-43.0273 -22.4111 -62.7168 -68.6172 -60.7432 -115.608c0.585938 -13.9434 3.27441 -31.8799 8.74609 -49.0225
c13.8896 -10.084 22.0625 -25.8555 24.2686 -43.0645c10.0469 -9.71387 22.7236 -15.3184 38.5244 -13.5938c27.1436 2.96289 26.6865 -36.7529 0 -39.665c-15.917 -1.73633 -29.9893 0.910156 -42.3545 6.66895c-5.65918 -47.7061 -5.10645 -99.75 0.0126953 -148.038
c2.58398 -24.4102 7.01758 -49.082 13.6982 -72.7109c6.50684 -23.0098 17.0723 -41.7568 29.8779 -62.5977z" />
    <glyph glyph-name="O" unicode="&#xd5;" horiz-adv-x="444" 
d="M380.783 119.931c-18.6426 -48.9238 -46.8818 -95.9072 -97.4385 -116.802c-51.8779 -21.4395 -121.197 -7.17188 -165.7 24.9863c-53.2236 38.4619 -76.1211 111.732 -86.9648 173.582c-13.2461 75.5518 -12.3027 148.42 -0.78125 224.088
c4.09277 26.8857 31.5352 41.166 57.374 43.875c-1.625 7.14258 -2.87988 14.1855 -3.74805 20.9541c-8.22266 64.0342 16.6113 127.786 72.3154 162.483c48.749 30.3633 108.679 26.5078 154.822 -6.67676c47.8682 -34.4229 71.2021 -90.4219 86.3047 -145.549
c33.8906 -123.702 29.6191 -260.737 -16.1836 -380.941zM197.435 85.8486c18.04 -29.3623 52.2949 -47.7334 86.543 -28.6963c35.5283 19.752 52.335 67.3877 63.7529 103.598c31.2109 98.9814 35.877 206.268 12.5928 307.472
c-10.3662 45.0557 -24.2646 94.4482 -56.4062 129.232c-31.0117 33.5586 -76.4824 47.918 -118.513 26.0264c-43.0273 -22.4111 -62.7168 -68.6172 -60.7432 -115.608c0.585938 -13.9434 3.27441 -31.8799 8.74609 -49.0225
c13.8896 -10.084 22.0625 -25.8555 24.2686 -43.0645c10.0469 -9.71387 22.7236 -15.3184 38.5244 -13.5938c27.1436 2.96289 26.6865 -36.7529 0 -39.665c-15.917 -1.73633 -29.9893 0.910156 -42.3545 6.66895c-5.65918 -47.7061 -5.10645 -99.75 0.0126953 -148.038
c2.58398 -24.4102 7.01758 -49.082 13.6982 -72.7109c6.50684 -23.0098 17.0723 -41.7568 29.8779 -62.5977z" />
    <glyph glyph-name="O" unicode="&#xd4;" horiz-adv-x="444" 
d="M380.783 119.931c-18.6426 -48.9238 -46.8818 -95.9072 -97.4385 -116.802c-51.8779 -21.4395 -121.197 -7.17188 -165.7 24.9863c-53.2236 38.4619 -76.1211 111.732 -86.9648 173.582c-13.2461 75.5518 -12.3027 148.42 -0.78125 224.088
c4.09277 26.8857 31.5352 41.166 57.374 43.875c-1.625 7.14258 -2.87988 14.1855 -3.74805 20.9541c-8.22266 64.0342 16.6113 127.786 72.3154 162.483c48.749 30.3633 108.679 26.5078 154.822 -6.67676c47.8682 -34.4229 71.2021 -90.4219 86.3047 -145.549
c33.8906 -123.702 29.6191 -260.737 -16.1836 -380.941zM197.435 85.8486c18.04 -29.3623 52.2949 -47.7334 86.543 -28.6963c35.5283 19.752 52.335 67.3877 63.7529 103.598c31.2109 98.9814 35.877 206.268 12.5928 307.472
c-10.3662 45.0557 -24.2646 94.4482 -56.4062 129.232c-31.0117 33.5586 -76.4824 47.918 -118.513 26.0264c-43.0273 -22.4111 -62.7168 -68.6172 -60.7432 -115.608c0.585938 -13.9434 3.27441 -31.8799 8.74609 -49.0225
c13.8896 -10.084 22.0625 -25.8555 24.2686 -43.0645c10.0469 -9.71387 22.7236 -15.3184 38.5244 -13.5938c27.1436 2.96289 26.6865 -36.7529 0 -39.665c-15.917 -1.73633 -29.9893 0.910156 -42.3545 6.66895c-5.65918 -47.7061 -5.10645 -99.75 0.0126953 -148.038
c2.58398 -24.4102 7.01758 -49.082 13.6982 -72.7109c6.50684 -23.0098 17.0723 -41.7568 29.8779 -62.5977z" />
    <glyph glyph-name="O" unicode="&#xd3;" horiz-adv-x="444" 
d="M380.783 119.931c-18.6426 -48.9238 -46.8818 -95.9072 -97.4385 -116.802c-51.8779 -21.4395 -121.197 -7.17188 -165.7 24.9863c-53.2236 38.4619 -76.1211 111.732 -86.9648 173.582c-13.2461 75.5518 -12.3027 148.42 -0.78125 224.088
c4.09277 26.8857 31.5352 41.166 57.374 43.875c-1.625 7.14258 -2.87988 14.1855 -3.74805 20.9541c-8.22266 64.0342 16.6113 127.786 72.3154 162.483c48.749 30.3633 108.679 26.5078 154.822 -6.67676c47.8682 -34.4229 71.2021 -90.4219 86.3047 -145.549
c33.8906 -123.702 29.6191 -260.737 -16.1836 -380.941zM197.435 85.8486c18.04 -29.3623 52.2949 -47.7334 86.543 -28.6963c35.5283 19.752 52.335 67.3877 63.7529 103.598c31.2109 98.9814 35.877 206.268 12.5928 307.472
c-10.3662 45.0557 -24.2646 94.4482 -56.4062 129.232c-31.0117 33.5586 -76.4824 47.918 -118.513 26.0264c-43.0273 -22.4111 -62.7168 -68.6172 -60.7432 -115.608c0.585938 -13.9434 3.27441 -31.8799 8.74609 -49.0225
c13.8896 -10.084 22.0625 -25.8555 24.2686 -43.0645c10.0469 -9.71387 22.7236 -15.3184 38.5244 -13.5938c27.1436 2.96289 26.6865 -36.7529 0 -39.665c-15.917 -1.73633 -29.9893 0.910156 -42.3545 6.66895c-5.65918 -47.7061 -5.10645 -99.75 0.0126953 -148.038
c2.58398 -24.4102 7.01758 -49.082 13.6982 -72.7109c6.50684 -23.0098 17.0723 -41.7568 29.8779 -62.5977z" />
    <glyph glyph-name="O" unicode="&#xd2;" horiz-adv-x="444" 
d="M380.783 119.931c-18.6426 -48.9238 -46.8818 -95.9072 -97.4385 -116.802c-51.8779 -21.4395 -121.197 -7.17188 -165.7 24.9863c-53.2236 38.4619 -76.1211 111.732 -86.9648 173.582c-13.2461 75.5518 -12.3027 148.42 -0.78125 224.088
c4.09277 26.8857 31.5352 41.166 57.374 43.875c-1.625 7.14258 -2.87988 14.1855 -3.74805 20.9541c-8.22266 64.0342 16.6113 127.786 72.3154 162.483c48.749 30.3633 108.679 26.5078 154.822 -6.67676c47.8682 -34.4229 71.2021 -90.4219 86.3047 -145.549
c33.8906 -123.702 29.6191 -260.737 -16.1836 -380.941zM197.435 85.8486c18.04 -29.3623 52.2949 -47.7334 86.543 -28.6963c35.5283 19.752 52.335 67.3877 63.7529 103.598c31.2109 98.9814 35.877 206.268 12.5928 307.472
c-10.3662 45.0557 -24.2646 94.4482 -56.4062 129.232c-31.0117 33.5586 -76.4824 47.918 -118.513 26.0264c-43.0273 -22.4111 -62.7168 -68.6172 -60.7432 -115.608c0.585938 -13.9434 3.27441 -31.8799 8.74609 -49.0225
c13.8896 -10.084 22.0625 -25.8555 24.2686 -43.0645c10.0469 -9.71387 22.7236 -15.3184 38.5244 -13.5938c27.1436 2.96289 26.6865 -36.7529 0 -39.665c-15.917 -1.73633 -29.9893 0.910156 -42.3545 6.66895c-5.65918 -47.7061 -5.10645 -99.75 0.0126953 -148.038
c2.58398 -24.4102 7.01758 -49.082 13.6982 -72.7109c6.50684 -23.0098 17.0723 -41.7568 29.8779 -62.5977z" />
    <glyph glyph-name="P" unicode="P" horiz-adv-x="442" 
d="M414.08 311.98c-33.002 -111.021 -129.149 -218.796 -253.296 -212.971c0.0791016 -2.30566 0.112305 -4.61621 0.199219 -6.92188c1.03906 -28.1865 6.0166 -58.3838 -3.76367 -85.4072c-11.6543 -32.1963 -64.0928 -44.3164 -81.9834 -9.96387
c-14.3799 27.6094 -14.6211 56.6562 -17.0557 87.1113c-2.20215 27.543 -4.49609 55.0811 -6.71484 82.624c-4.3291 53.7139 -7.49121 107.387 -9.45215 161.242c-3.97656 109.09 -4.05566 217.702 -0.00878906 326.792c2.26855 61.1094 89.3545 69.3398 111.662 24.251
c61.3545 4.66602 122.256 -15.5186 170.822 -53.1074c93.9287 -72.6973 122.464 -203.06 89.5908 -313.649zM159.222 170.581c0.128906 -10.5986 0.316406 -21.1904 0.515625 -31.7773c138.36 1.95703 226.493 149.296 221.44 276.235
c-4.79102 120.329 -99.8125 225.846 -222.563 219.493c-1.3457 -100.863 -1.86914 -201.855 -1.06738 -302.706c0.423828 -53.7471 1.02637 -107.498 1.6748 -161.245z" />
    <glyph glyph-name="Q" unicode="Q" horiz-adv-x="508" 
d="M29.8975 425.782c4.09277 26.8857 31.5303 41.1689 57.3818 43.874c-1.62891 7.14258 -2.88379 14.1846 -3.75195 20.9531c-8.21875 64.0342 16.6104 127.786 72.3184 162.483c48.7451 30.3633 108.675 26.5078 154.822 -6.67676
c47.8682 -34.4229 71.2021 -90.4219 86.3047 -145.549c33.8867 -123.702 29.6201 -260.737 -16.1875 -380.941c-7.11719 -18.668 -15.6426 -37.0449 -26.2578 -53.8057c5.26465 -4.00977 10.6455 -7.88672 16.1963 -11.543c41.0996 -27.0439 85 -40.6924 132.968 -49.501
c22.8184 -4.19238 16.8516 -38.748 -5.43945 -37.3564c-61.3418 3.83496 -120.794 27.8662 -170.98 64.5283c-12.4521 -12.0361 -26.8984 -22.083 -43.9287 -29.1211c-51.873 -21.4395 -121.192 -7.17188 -165.695 24.9863
c-53.2236 38.4619 -76.125 111.732 -86.9688 173.581c-13.2461 75.5518 -12.3027 148.42 -0.78125 224.088zM185.404 623.485c-43.0322 -22.4072 -62.7217 -68.6143 -60.748 -115.614c0.585938 -13.9434 3.27441 -31.8799 8.74609 -49.0225
c13.8896 -10.084 22.0664 -25.8555 24.2686 -43.0645c10.0469 -9.71387 22.7275 -15.3184 38.5244 -13.5938c27.1436 2.96289 26.6865 -36.7529 0 -39.665c-15.917 -1.73633 -29.9893 0.910156 -42.3545 6.66895c-5.65918 -47.7061 -5.10254 -99.75 0.0117188 -148.038
c2.58398 -24.4102 7.01758 -49.082 13.6982 -72.7109c6.51074 -23.0098 17.0762 -41.7568 29.8818 -62.5977c18.04 -29.3584 52.293 -47.7314 86.541 -28.6895c2.61719 1.45801 5.10547 3.10742 7.52734 4.85254c-23.3008 21.9707 -43.6553 46.7959 -60 73.4746
c-16.1621 26.3916 27.792 48.3418 42.3799 23.0391c13.125 -22.7646 28.9883 -43.7803 47.1787 -62.5605c12.1533 20.5664 20.2598 44.4775 26.667 64.791c31.2109 98.9814 35.877 206.268 12.5928 307.472c-10.3662 45.0557 -24.2646 94.4482 -56.4062 129.232
c-31.0078 33.5586 -76.4785 47.918 -118.509 26.0264z" />
    <glyph glyph-name="R" unicode="R" horiz-adv-x="439" 
d="M330.217 -7.63574c-39.583 35.6523 -73.6357 79.8467 -109.467 119.301c-20.542 22.623 -41.0879 45.2461 -61.6299 67.8691c0.0371094 -2.9834 0.0664062 -5.9707 0.103516 -8.9541c0.31543 -26.1758 0.792969 -52.335 1.75684 -78.498
c1.03906 -28.1865 6.0166 -58.3838 -3.76367 -85.4072c-11.6543 -32.1963 -64.0928 -44.3164 -81.9834 -9.96387c-14.376 27.6094 -14.6172 56.6562 -17.0518 87.1113c-2.20605 27.543 -4.5 55.0811 -6.71875 82.624c-4.3291 53.7139 -7.49121 107.387 -9.45215 161.242
c-3.97168 109.09 -4.05469 217.702 -0.0078125 326.792c2.26465 61.0186 89.0762 69.3115 111.55 24.46c123.183 6.68066 264.397 -66.8018 273.842 -201.743c9.51074 -135.889 -124.056 -245.884 -252.478 -248.156c27.0811 -30.0352 54.1621 -60.0752 81.248 -90.1104
c35.9932 -39.9238 76.707 -78.5059 108.467 -121.874c15.1816 -20.7285 -18.2314 -39.2715 -34.415 -24.6924zM380.952 477.197c-8.45117 108.524 -125.277 160.645 -222.339 157.416c-1.3457 -100.893 -1.86914 -201.914 -1.06738 -302.794
c0.166016 -20.9609 0.37793 -41.9307 0.589844 -62.8965c0.0664062 0.00390625 0.116211 0.0205078 0.182617 0.0205078c59.2402 1.10938 116.078 20.4795 159.559 61.5791c39.7373 37.5645 67.4131 90.9668 63.0752 146.675z" />
    <glyph glyph-name="S" unicode="S" horiz-adv-x="416" 
d="M140.815 -9.68848c-44.627 20.1846 -78.2441 60.1768 -97.9092 104.256c-40.9834 91.8682 -32.2041 229.838 69.4277 278.113c22.7607 10.8105 45.1182 -21.498 20.9365 -33.3145c-107.852 -52.7002 -82.873 -236.868 5.77441 -296.37
c35.2627 -23.6699 87.5518 -32.1455 121.027 -2.15625c2.17285 2.73828 2.8623 2.45605 2.07715 -0.84668c1.61621 5.04004 3.66016 9.90918 6.13184 14.6045c2.75098 5.17676 6.19531 9.95898 9.20801 14.9824c5.35547 8.93262 8.99512 17.5 11.7285 27.6084
c4.5166 16.6855 4.95312 38.125 2.23633 52.625c-20.5127 109.405 -121.476 176.644 -179.644 264.834c-30.5342 46.2891 -54.4785 104.191 -51.3379 160.539c1.84082 32.96 15.5479 65.7627 44.2705 83.8691c18.252 11.5088 39.3291 18.335 59.9375 24.3428
c45.791 13.3496 94.8477 -3.02051 129.146 -34.5479c40.5596 -37.2812 58.4375 -90.7627 69.6602 -143.155c5.95801 -27.8125 -38.9023 -38.2656 -44.5068 -11.4131c-11.8789 56.9219 -35.3457 134.851 -101.121 149.534
c-19.8438 4.42871 -46.7754 2.47559 -51.8115 -17.4756c-6.52734 -25.8389 0.623047 -59.5391 8.8457 -84.0693c35.8311 -106.879 141.692 -174.724 191.468 -275.03c26.8613 -54.1299 39.2432 -111.487 24.8506 -171.172
c-6.92578 -28.7354 -20.9277 -56.8516 -40.7627 -78.8389c-16.4072 -18.1855 -44.9219 -30.9824 -68.7334 -36.8574c-47.4316 -11.7041 -95.9814 -10.3789 -140.899 9.93848z" />
    <glyph glyph-name="T" unicode="T" horiz-adv-x="308" 
d="M345.504 714.195c23.5498 -3.09082 16.248 -37.2939 -5.43652 -37.3564c-42.0557 -0.132812 -84.0732 2.08984 -126.091 4.79492c4.36719 -7.44531 6.90137 -16.4736 6.74805 -27.1514c-1.55371 -107.494 -2.16406 -215.159 -1.30859 -322.657
c0.423828 -53.7471 1.02637 -107.498 1.6748 -161.245c0.31543 -26.1758 0.792969 -52.335 1.75684 -78.498c1.04297 -28.1865 6.0166 -58.3838 -3.76367 -85.4072c-11.6504 -32.1963 -64.0889 -44.3164 -81.9795 -9.96387
c-14.3799 27.6094 -14.6211 56.6562 -17.0557 87.1113c-2.20215 27.543 -4.49609 55.0811 -6.71484 82.624c-4.3291 53.7139 -7.49121 107.387 -9.45215 161.242c-3.97656 109.09 -4.05566 217.702 -0.00878906 326.792c0.515625 13.877 5.44727 24.9873 12.9639 33.4092
c-33.4629 1.87402 -66.9424 3.14941 -100.455 2.88379c-39.7158 -0.31543 -32.4199 56.1201 7.375 50.6982c106.688 -14.5293 215.067 -13.2666 321.747 -27.2764z" />
    <glyph glyph-name="U" unicode="U" horiz-adv-x="469" 
d="M43.457 216.863c-7.2207 43.4307 -11.2842 87.2979 -12.7549 131.289c-3.05371 91.54 4.3457 182.992 11.7998 274.149c2.18164 26.6572 46.6514 26.624 44.4082 0c-7.56152 -89.8359 -15.0781 -179.955 -12.5811 -270.19
c1.11719 -40.3145 4.05078 -80.749 10.3789 -120.603c5.67578 -35.7607 11.792 -74.5088 28.3447 -107.096c14.4756 -28.498 42.4961 -56.3975 77.1729 -49.9658c34.8223 6.46094 57.5156 39.2266 69.7354 69.9268c27.7588 69.71 38.5283 149.279 50.1748 223.003
c3.20801 20.3213 5.9668 40.7012 8.52246 61.1143c-3.28223 62.9707 -5.16406 125.983 -7.01758 189.12c-2.10645 71.9414 118.654 72.0117 119.194 0c0.739258 -98.5986 1.4502 -196.898 -3.24512 -295.41c-2.34766 -49.2471 -2.9375 -98.416 -3.96777 -147.705
c-1.03027 -49.4805 -8.7334 -97.1904 -16.0088 -146.072c-3.60645 -24.21 -46.8877 -23.3916 -51.2715 0c-9.41113 50.2275 -18.4727 99.0762 -21.3936 150.173c-1.3125 22.9971 -2.55078 45.9648 -3.92578 68.9248c-5.72949 -27.9375 -12.1572 -55.7588 -19.9189 -83.1309
c-10.2422 -36.1094 -25.4443 -72.9756 -53.8848 -98.665c-57.1748 -51.6445 -136.777 -35.1328 -176.178 28.9766c-22.3818 36.4219 -30.6748 80.6084 -37.584 122.161z" />
    <glyph glyph-name="U" unicode="&#xdc;" horiz-adv-x="469" 
d="M43.457 216.863c-7.2207 43.4307 -11.2842 87.2979 -12.7549 131.289c-3.05371 91.54 4.3457 182.992 11.7998 274.149c2.18164 26.6572 46.6514 26.624 44.4082 0c-7.56152 -89.8359 -15.0781 -179.955 -12.5811 -270.19
c1.11719 -40.3145 4.05078 -80.749 10.3789 -120.603c5.67578 -35.7607 11.792 -74.5088 28.3447 -107.096c14.4756 -28.498 42.4961 -56.3975 77.1729 -49.9658c34.8223 6.46094 57.5156 39.2266 69.7354 69.9268c27.7588 69.71 38.5283 149.279 50.1748 223.003
c3.20801 20.3213 5.9668 40.7012 8.52246 61.1143c-3.28223 62.9707 -5.16406 125.983 -7.01758 189.12c-2.10645 71.9414 118.654 72.0117 119.194 0c0.739258 -98.5986 1.4502 -196.898 -3.24512 -295.41c-2.34766 -49.2471 -2.9375 -98.416 -3.96777 -147.705
c-1.03027 -49.4805 -8.7334 -97.1904 -16.0088 -146.072c-3.60645 -24.21 -46.8877 -23.3916 -51.2715 0c-9.41113 50.2275 -18.4727 99.0762 -21.3936 150.173c-1.3125 22.9971 -2.55078 45.9648 -3.92578 68.9248c-5.72949 -27.9375 -12.1572 -55.7588 -19.9189 -83.1309
c-10.2422 -36.1094 -25.4443 -72.9756 -53.8848 -98.665c-57.1748 -51.6445 -136.777 -35.1328 -176.178 28.9766c-22.3818 36.4219 -30.6748 80.6084 -37.584 122.161z" />
    <glyph glyph-name="U" unicode="&#xdb;" horiz-adv-x="469" 
d="M43.457 216.863c-7.2207 43.4307 -11.2842 87.2979 -12.7549 131.289c-3.05371 91.54 4.3457 182.992 11.7998 274.149c2.18164 26.6572 46.6514 26.624 44.4082 0c-7.56152 -89.8359 -15.0781 -179.955 -12.5811 -270.19
c1.11719 -40.3145 4.05078 -80.749 10.3789 -120.603c5.67578 -35.7607 11.792 -74.5088 28.3447 -107.096c14.4756 -28.498 42.4961 -56.3975 77.1729 -49.9658c34.8223 6.46094 57.5156 39.2266 69.7354 69.9268c27.7588 69.71 38.5283 149.279 50.1748 223.003
c3.20801 20.3213 5.9668 40.7012 8.52246 61.1143c-3.28223 62.9707 -5.16406 125.983 -7.01758 189.12c-2.10645 71.9414 118.654 72.0117 119.194 0c0.739258 -98.5986 1.4502 -196.898 -3.24512 -295.41c-2.34766 -49.2471 -2.9375 -98.416 -3.96777 -147.705
c-1.03027 -49.4805 -8.7334 -97.1904 -16.0088 -146.072c-3.60645 -24.21 -46.8877 -23.3916 -51.2715 0c-9.41113 50.2275 -18.4727 99.0762 -21.3936 150.173c-1.3125 22.9971 -2.55078 45.9648 -3.92578 68.9248c-5.72949 -27.9375 -12.1572 -55.7588 -19.9189 -83.1309
c-10.2422 -36.1094 -25.4443 -72.9756 -53.8848 -98.665c-57.1748 -51.6445 -136.777 -35.1328 -176.178 28.9766c-22.3818 36.4219 -30.6748 80.6084 -37.584 122.161z" />
    <glyph glyph-name="U" unicode="&#xda;" horiz-adv-x="469" 
d="M43.457 216.863c-7.2207 43.4307 -11.2842 87.2979 -12.7549 131.289c-3.05371 91.54 4.3457 182.992 11.7998 274.149c2.18164 26.6572 46.6514 26.624 44.4082 0c-7.56152 -89.8359 -15.0781 -179.955 -12.5811 -270.19
c1.11719 -40.3145 4.05078 -80.749 10.3789 -120.603c5.67578 -35.7607 11.792 -74.5088 28.3447 -107.096c14.4756 -28.498 42.4961 -56.3975 77.1729 -49.9658c34.8223 6.46094 57.5156 39.2266 69.7354 69.9268c27.7588 69.71 38.5283 149.279 50.1748 223.003
c3.20801 20.3213 5.9668 40.7012 8.52246 61.1143c-3.28223 62.9707 -5.16406 125.983 -7.01758 189.12c-2.10645 71.9414 118.654 72.0117 119.194 0c0.739258 -98.5986 1.4502 -196.898 -3.24512 -295.41c-2.34766 -49.2471 -2.9375 -98.416 -3.96777 -147.705
c-1.03027 -49.4805 -8.7334 -97.1904 -16.0088 -146.072c-3.60645 -24.21 -46.8877 -23.3916 -51.2715 0c-9.41113 50.2275 -18.4727 99.0762 -21.3936 150.173c-1.3125 22.9971 -2.55078 45.9648 -3.92578 68.9248c-5.72949 -27.9375 -12.1572 -55.7588 -19.9189 -83.1309
c-10.2422 -36.1094 -25.4443 -72.9756 -53.8848 -98.665c-57.1748 -51.6445 -136.777 -35.1328 -176.178 28.9766c-22.3818 36.4219 -30.6748 80.6084 -37.584 122.161z" />
    <glyph glyph-name="U" unicode="&#xd9;" horiz-adv-x="469" 
d="M43.457 216.863c-7.2207 43.4307 -11.2842 87.2979 -12.7549 131.289c-3.05371 91.54 4.3457 182.992 11.7998 274.149c2.18164 26.6572 46.6514 26.624 44.4082 0c-7.56152 -89.8359 -15.0781 -179.955 -12.5811 -270.19
c1.11719 -40.3145 4.05078 -80.749 10.3789 -120.603c5.67578 -35.7607 11.792 -74.5088 28.3447 -107.096c14.4756 -28.498 42.4961 -56.3975 77.1729 -49.9658c34.8223 6.46094 57.5156 39.2266 69.7354 69.9268c27.7588 69.71 38.5283 149.279 50.1748 223.003
c3.20801 20.3213 5.9668 40.7012 8.52246 61.1143c-3.28223 62.9707 -5.16406 125.983 -7.01758 189.12c-2.10645 71.9414 118.654 72.0117 119.194 0c0.739258 -98.5986 1.4502 -196.898 -3.24512 -295.41c-2.34766 -49.2471 -2.9375 -98.416 -3.96777 -147.705
c-1.03027 -49.4805 -8.7334 -97.1904 -16.0088 -146.072c-3.60645 -24.21 -46.8877 -23.3916 -51.2715 0c-9.41113 50.2275 -18.4727 99.0762 -21.3936 150.173c-1.3125 22.9971 -2.55078 45.9648 -3.92578 68.9248c-5.72949 -27.9375 -12.1572 -55.7588 -19.9189 -83.1309
c-10.2422 -36.1094 -25.4443 -72.9756 -53.8848 -98.665c-57.1748 -51.6445 -136.777 -35.1328 -176.178 28.9766c-22.3818 36.4219 -30.6748 80.6084 -37.584 122.161z" />
    <glyph glyph-name="V" unicode="V" horiz-adv-x="429" 
d="M301.035 157.038c-7.85645 -26.7031 -15.5137 -53.4619 -22.9629 -80.2812c-7.61133 -27.4219 -13.1455 -56.3232 -23.1045 -82.9805c0.0537109 -2.65527 0.107422 -5.30566 0.140625 -7.98926c0.332031 -24.9668 -37.6221 -33.9043 -49.5381 -12.4775
c-14.1934 25.5312 -26.4541 49.708 -36.9531 76.9473c-9.78906 25.4023 -17.3887 51.4658 -25.3203 77.542c-15.7969 51.9521 -29.7617 104.428 -45.5459 156.393c-16.1914 53.3232 -34.2979 105.97 -49.9121 159.468c-15.2021 52.085 -27.2969 105.038 -39.9854 157.784
c-8.34277 34.6768 12.2529 64.4883 45.5 74.5303c30.4424 9.19434 72.8672 -9.53613 80.1387 -42.3184c12.0537 -54.3408 25.0586 -108.471 35.4668 -163.148c10.1797 -53.4775 18.2529 -107.267 28.8184 -160.673c10.8105 -54.6484 23.9521 -108.678 35.7266 -163.11
c2.38086 -10.9941 4.76172 -21.9551 7.05566 -32.9238c5.17285 17.0518 10.4082 33.9785 15.2402 50.7305c15.8174 54.8438 32.4912 109.442 50.0127 163.767c35.582 110.324 74.2891 219.584 116.402 327.585c10.7275 27.5137 59.1943 15.9346 47.8887 -12.2773
c-42.6533 -106.435 -82.3691 -214.087 -118.155 -323.027c-17.8203 -54.2461 -34.7969 -108.766 -50.9131 -163.539z" />
    <glyph glyph-name="W" unicode="W" horiz-adv-x="641" 
d="M369.71 161.413c-17.3047 40.3848 -33.1299 81.373 -47.8418 122.768c-3.69336 -7.47461 -7.27051 -14.9951 -11.043 -22.1826c-17.7578 -33.833 -34.8467 -67.915 -51.6699 -102.222c-24.6094 -50.1826 -49.0146 -100.461 -73.3535 -150.776
c-3.51465 -17.0098 -8.70801 -33.3428 -13.0664 -51.0215c-7.375 -29.9111 -47.3242 -22.9355 -57.4658 -0.000976562c-6.22363 14.0811 -15.6387 26.8242 -20.9316 41.1875c-4.22949 11.4678 -6.85938 23.708 -9.16504 35.7402
c-5.54688 28.9346 -8.26367 58.4004 -11.6875 87.6377c-6.28223 53.71 -11.3516 107.573 -17.1846 161.333c-11.8164 108.882 -23.0801 217.739 -33.1104 326.804c-3.15332 34.3105 33.2598 57.1826 62.8086 58.4121c34.0859 1.4209 59.9785 -26.209 62.8076 -58.4131
c9.56055 -108.882 17.8662 -217.78 25.6357 -326.804c3.83105 -53.7803 8.36426 -107.527 11.8174 -161.333c0.191406 -2.9873 0.399414 -5.97461 0.607422 -8.96191c10.167 22.3154 20.3506 44.627 30.4551 66.9756c15.1279 33.4463 29.8818 66.9639 44.0791 100.813
c7.1709 17.0977 16.3701 34.8096 21.6221 52.5928c5.03613 17.0518 5.60156 34.1904 11.4512 51.1133c9.66016 43.2314 88.1367 53.7305 104.066 1.87402c20.001 -65.1152 42.7275 -129.283 67.0498 -192.902c9.39844 -24.5801 19.6816 -48.7734 29.666 -73.0957
c8.65039 67.1055 18.6514 134.082 27.709 201.066c7.03027 51.9688 14.0557 103.938 21.0811 155.91c3.32812 24.5967 6.08301 49.1436 8.44336 73.8525c1.09277 11.4678 3.75977 25.3662 2.20215 36.9287c-1.96484 14.6084 -8.38867 25.3574 -7.3457 41.0293
c3.78125 56.8135 93.8418 45.7617 82.0586 -10.3291c-3.14551 -14.9785 -12.7471 -24.335 -18.1855 -37.8174c-4.93555 -12.2363 -6.26953 -27.3555 -8.60059 -40.2725c-4.54102 -25.1787 -8.42578 -50.3652 -11.9785 -75.7012
c-7.10449 -50.6016 -14.2051 -101.208 -21.3057 -151.81c-14.2549 -101.606 -26.375 -203.791 -44.4365 -304.791c-0.287109 -1.59082 -0.777344 -3.02832 -1.41309 -4.34082c0.191406 -1.16797 0.374023 -2.33984 0.569336 -3.50781
c3.68945 -21.9707 -24.3516 -40.8965 -41.5029 -22.4697c-24.9707 26.8232 -52.4346 52.459 -69.0039 85.4404c-15.9297 31.71 -29.8652 64.6621 -43.8379 97.2734z" />
    <glyph glyph-name="X" unicode="X" horiz-adv-x="308" 
d="M186.094 148.454c-8.08984 21.6426 -16.8096 43.0439 -25.2275 64.5703c-33.1143 -68.3145 -64.0176 -137.621 -92.6943 -207.56c-9.57324 -23.3418 -51.0557 -13.6572 -41.1299 10.5449c34.4893 84.1104 72.0449 166.514 112.239 247.529
c-4.3252 9.46094 -8.6709 18.9219 -12.9131 28.5527c-42.8242 97.3271 -80.7705 196.233 -111.122 298.289c-9.64355 32.4365 12.9922 64.7734 44.4814 72.8584c29.2793 7.51172 72.1611 -8.21484 78.3398 -41.3701c16.4033 -88.0371 32.6367 -176.22 49.4307 -264.207
c49.7666 94.2324 103.011 186.687 159.251 277.79c15.8047 25.6025 61.0928 2.43555 43.3848 -23.5859c-69.6973 -102.413 -132.867 -209.804 -189.968 -320.314c3.80176 -19.6943 7.73242 -39.0098 13.3584 -58.6787c7.24609 -25.3154 14.5 -50.623 22.9307 -75.5732
c16.873 -49.9209 34.6729 -99.5176 53.2656 -148.823c10.0088 -26.5371 -33.7461 -35.8604 -43.9463 -11.2676c-20.7617 50.0664 -40.7051 100.473 -59.6807 151.245z" />
    <glyph glyph-name="Y" unicode="Y" horiz-adv-x="477" 
d="M328.91 -64.4404c-65.0146 -30.4717 -133.1 0.841797 -177.133 52.1582c-42.2676 49.2637 -56.9053 115.912 -63.7021 178.87c-2.33105 21.6006 34.9375 25.2148 39.5947 4.98047c8.7334 -37.9258 14.4756 -76.9893 32.2295 -112.123
c12.5977 -24.9287 35.8232 -58.8535 66.1621 -62.3184c68.6299 -7.83984 84.3516 60.3574 88.207 114.101c5.83301 81.3018 7.31641 162.338 6.06152 243.354c-1.80762 -2.95801 -3.61035 -5.91602 -5.47168 -8.82031c-35.3701 -55.2676 -89.499 -105.766 -159.508 -103.713
c-75.502 2.21484 -114.541 65.4766 -126.582 133.034c-14.3594 80.5664 -10.7861 162.895 8.55469 242.302c6.92578 28.4277 54.7686 17.1885 47.3271 -12.1318c-16.4404 -64.8027 -21.1562 -131.671 -13.5234 -198.141c6.29492 -54.8154 25.1826 -126.91 94.0078 -122.955
c59.8965 3.44434 99.8662 58.4834 126.877 106.098c10.167 17.9199 18.6387 36.2549 25.8594 54.9639c-2.03613 53.5107 -4.99023 107.046 -8.44727 160.685c-2.31055 35.8232 33.8574 59.5391 65.4385 60.8564c33.501 1.39648 65.2812 -27.1055 65.4395 -60.8555
c0.411133 -87.3438 0.951172 -174.766 -0.723633 -262.097c-1.4668 -76.3164 -4.62012 -153.094 -14.957 -228.782c-9.31934 -68.2227 -26.6367 -147.09 -95.7109 -179.465z" />
    <glyph glyph-name="Y" unicode="&#x178;" horiz-adv-x="477" 
d="M328.91 -64.4404c-65.0146 -30.4717 -133.1 0.841797 -177.133 52.1582c-42.2676 49.2637 -56.9053 115.912 -63.7021 178.87c-2.33105 21.6006 34.9375 25.2148 39.5947 4.98047c8.7334 -37.9258 14.4756 -76.9893 32.2295 -112.123
c12.5977 -24.9287 35.8232 -58.8535 66.1621 -62.3184c68.6299 -7.83984 84.3516 60.3574 88.207 114.101c5.83301 81.3018 7.31641 162.338 6.06152 243.354c-1.80762 -2.95801 -3.61035 -5.91602 -5.47168 -8.82031c-35.3701 -55.2676 -89.499 -105.766 -159.508 -103.713
c-75.502 2.21484 -114.541 65.4766 -126.582 133.034c-14.3594 80.5664 -10.7861 162.895 8.55469 242.302c6.92578 28.4277 54.7686 17.1885 47.3271 -12.1318c-16.4404 -64.8027 -21.1562 -131.671 -13.5234 -198.141c6.29492 -54.8154 25.1826 -126.91 94.0078 -122.955
c59.8965 3.44434 99.8662 58.4834 126.877 106.098c10.167 17.9199 18.6387 36.2549 25.8594 54.9639c-2.03613 53.5107 -4.99023 107.046 -8.44727 160.685c-2.31055 35.8232 33.8574 59.5391 65.4385 60.8564c33.501 1.39648 65.2812 -27.1055 65.4395 -60.8555
c0.411133 -87.3438 0.951172 -174.766 -0.723633 -262.097c-1.4668 -76.3164 -4.62012 -153.094 -14.957 -228.782c-9.31934 -68.2227 -26.6367 -147.09 -95.7109 -179.465z" />
    <glyph glyph-name="Y" unicode="&#xdd;" horiz-adv-x="477" 
d="M328.91 -64.4404c-65.0146 -30.4717 -133.1 0.841797 -177.133 52.1582c-42.2676 49.2637 -56.9053 115.912 -63.7021 178.87c-2.33105 21.6006 34.9375 25.2148 39.5947 4.98047c8.7334 -37.9258 14.4756 -76.9893 32.2295 -112.123
c12.5977 -24.9287 35.8232 -58.8535 66.1621 -62.3184c68.6299 -7.83984 84.3516 60.3574 88.207 114.101c5.83301 81.3018 7.31641 162.338 6.06152 243.354c-1.80762 -2.95801 -3.61035 -5.91602 -5.47168 -8.82031c-35.3701 -55.2676 -89.499 -105.766 -159.508 -103.713
c-75.502 2.21484 -114.541 65.4766 -126.582 133.034c-14.3594 80.5664 -10.7861 162.895 8.55469 242.302c6.92578 28.4277 54.7686 17.1885 47.3271 -12.1318c-16.4404 -64.8027 -21.1562 -131.671 -13.5234 -198.141c6.29492 -54.8154 25.1826 -126.91 94.0078 -122.955
c59.8965 3.44434 99.8662 58.4834 126.877 106.098c10.167 17.9199 18.6387 36.2549 25.8594 54.9639c-2.03613 53.5107 -4.99023 107.046 -8.44727 160.685c-2.31055 35.8232 33.8574 59.5391 65.4385 60.8564c33.501 1.39648 65.2812 -27.1055 65.4395 -60.8555
c0.411133 -87.3438 0.951172 -174.766 -0.723633 -262.097c-1.4668 -76.3164 -4.62012 -153.094 -14.957 -228.782c-9.31934 -68.2227 -26.6367 -147.09 -95.7109 -179.465z" />
    <glyph glyph-name="Z" unicode="Z" horiz-adv-x="361" 
d="M79.6104 -7.20801c-4.50391 -0.136719 -8.31934 0.741211 -11.4766 2.30762c-21.5264 4.81543 -40.4521 21.9248 -40.3359 45.624c0.145508 29.1709 13.2627 54.9189 23.8535 81.4355c9.01562 22.5693 17.9277 45.1758 26.7441 67.8242
c18.123 46.5596 35.8809 93.2646 53.3311 140.081c32.292 86.6367 63.0293 173.839 92.4414 261.489c-65.3809 2.25195 -130.766 4.5498 -196.15 6.82617c-32.0625 1.11719 -31.9873 48.4414 0.000976562 46.7295c71.2891 -3.81445 142.574 -7.60742 213.859 -11.4629
c33.2598 40.9668 119.049 14.3096 99.5049 -44.8262c-32.2041 -97.4561 -66.1162 -194.339 -101.86 -290.553c-17.8779 -48.1211 -36.3301 -96.0137 -55.2637 -143.728c-9.46875 -23.8613 -19.0498 -47.6768 -28.7393 -71.4463
c-6.30664 -15.4648 -12.0732 -30.6338 -19.6436 -44.8271c23.3291 0.602539 46.6582 1.20508 69.9873 1.81152c41.8398 1.08398 84.5186 4.71973 126.254 1.4082c21.5059 -1.70801 30.5137 -35.0303 5.59277 -38.4248c-42.1797 -5.74219 -85.249 -4.99414 -127.774 -6.29004
c-43.4385 -1.3291 -86.8818 -2.6543 -130.325 -3.97949z" />
    <glyph glyph-name="bracketleft" unicode="[" horiz-adv-x="361" 
d="M299.898 704.136c-42.3506 -21.2852 -90.5352 -24.8877 -134.281 -10.749c-4.41699 -125.327 -5.9541 -250.767 -6.19531 -376.164c-0.125 -64.6367 0.136719 -129.295 0.602539 -193.928c0.195312 -26.8857 1.04688 -52.2969 6.38574 -78.6514
c2.8125 -13.8857 11.542 -27.4219 16.3447 -41.2744c2.92871 -1.21777 7.25781 -3.39062 10.4443 -3.75195c8.37207 -0.947266 16.1211 0.93457 24.0068 3.62695c19.4072 6.62695 36.9736 18.3682 54.1992 29.2334c18.7754 11.8418 44.7764 -16.5986 25.4893 -30.7256
c-23.1797 -16.9766 -46.5303 -34.1738 -74.123 -43.2939c-11.916 -3.93848 -24.2646 -7.05078 -36.7705 -8.28906c-9.64746 -0.956055 -18.5186 0.581055 -27.7461 1.49121c-29.7402 -9.85547 -61.7656 17.7207 -78.4512 39.7539
c-20.7617 27.418 -26.084 59.4229 -28.876 92.9609c-5.63379 67.6494 -5.98242 136.117 -6.65137 203.962c-1.36719 139.005 2.43457 277.835 9.55176 416.652c1.96484 38.333 38.6934 54.9609 69.6055 49.7715c5.60938 2.41406 12.3232 2.19434 18.9258 -2.47949
c37.1855 -26.3379 82.291 -33.9414 124.321 -17.7373c3.39062 4.94434 9.10742 8.33496 16.9639 7.88184c1.73242 -0.0996094 3.46094 -0.199219 5.18945 -0.298828c19.6191 -1.13379 31.7559 -27.5918 11.0645 -37.9912z" />
    <glyph glyph-name="backslash" unicode="\" horiz-adv-x="323" 
d="M296.982 -3.94238c2.48828 -18.0527 2.91895 -33.8623 1.76367 -51.8486c-1.25879 -19.7939 1.66602 -32.5947 -6.94238 -51.3916c-8.63379 -18.8506 -36.4629 -16.9561 -49.5508 -5.9375c-13.6318 11.4717 -21.21 31.4023 -29.6572 46.8545
c-8.48828 15.5312 -14.4336 32.4209 -19.8594 49.2021c-10.9688 33.916 -19.918 68.8584 -28.8633 103.364c-17.9531 69.2734 -33.5176 139.088 -49.543 208.831c-32.0801 139.578 -61.8408 279.514 -91.1445 419.698c-12.9512 61.9492 84.2021 85.6484 99.7246 25.5693
c36.1475 -139.898 71.7217 -279.792 105.081 -420.384c16.8477 -70.9902 33.9492 -141.852 48.8232 -213.277c7.62012 -36.5957 15.0615 -73.6484 20.168 -110.681z" />
    <glyph glyph-name="bracketright" unicode="]" horiz-adv-x="361" 
d="M306.856 704.992c7.11719 -138.822 10.9189 -277.649 9.54395 -416.65c-0.677734 -68.9873 -0.412109 -139.018 -6.95996 -207.747c-3.08691 -32.4082 -8.63379 -62.6426 -28.5684 -89.1758c-16.6113 -22.1084 -48.7744 -49.5225 -78.4355 -39.75
c-9.25293 -0.901367 -18.0693 -2.43457 -27.7588 -1.5c-12.4932 1.20508 -24.8828 4.31738 -36.7695 8.28906c-27.5801 9.21582 -50.9141 26.2969 -74.1191 43.2939c-19.4941 14.2842 6.92676 42.4336 25.4902 30.7256c17.2256 -10.8652 34.7969 -22.6064 54.2002 -29.2334
c7.88574 -2.69629 15.6348 -4.57812 24.0068 -3.62695c3.20801 0.365234 7.58301 2.56738 10.5117 3.78027c4.81152 13.8691 13.4785 27.4883 16.2793 41.2451c5.62988 27.6465 6.22363 54.5908 6.41504 82.7773c0.427734 63.2617 0.702148 126.544 0.573242 189.806
c-0.249023 125.397 -1.77832 250.837 -6.19531 376.164c-43.7461 -14.1387 -91.9385 -10.5322 -134.285 10.749c-20.7373 10.4199 -8.53027 36.8574 11.0645 37.9912l5.18555 0.298828c7.96484 0.460938 13.6865 -2.94629 17.0479 -7.91113
c42.0098 -16.1621 87.082 -8.55078 124.243 17.7656c6.59766 4.67383 13.3115 4.89355 18.9121 2.48828c30.916 5.16895 67.6572 -11.5049 69.6182 -49.7793z" />
    <glyph glyph-name="asciicircum" unicode="^" horiz-adv-x="234" 
d="M205.965 590.842c7.55371 -23.1338 -30.0332 -36.5117 -40.582 -15.9033c-17.334 33.8457 -33.3838 67.2344 -52.75 99.3848c-16.1787 -28.1826 -29.1748 -57.832 -38.8887 -89.2432c-8.34277 -26.9688 -54.4199 -16.0957 -45.6367 11.7002
c14.7373 46.6426 36.1553 90.5967 64.1133 130.741c9.77246 14.0264 30.3555 14.0176 40.1279 -0.000976562c29.0303 -41.6445 57.7695 -88.1416 73.6162 -136.679z" />
    <glyph glyph-name="underscore" unicode="_" horiz-adv-x="348" 
d="M294.854 60.3174c38.3447 -9.44434 37.6143 -62.3838 0 -72.1562c-35.9102 -9.33203 -79.0791 -3.90137 -116.153 -4.22949c-37.8545 -0.332031 -75.7139 -0.668945 -113.568 -1.00586c-54.9062 -0.486328 -54.7773 79.6729 0 79.876
c37.8545 0.141602 75.7139 0.27832 113.568 0.419922c37.1523 0.136719 80.0225 5.99512 116.153 -2.9043z" />
    <glyph glyph-name="grave" unicode="`" horiz-adv-x="181" 
d="M152.325 621.883c3.98047 -9.22754 -2.97559 -20.4248 -10.874 -24.8496c-9.69336 -5.43066 -20.2637 -2.71777 -28.6768 3.43945c-8.05176 5.8916 -15.5342 10.6152 -24.2266 14.8945c-10.3867 3.31152 -18.4102 8.94531 -26.7734 18.959l-23.6572 28.3184
c-16.125 19.2988 -17.5957 44.4893 4.4043 60.415c21.751 15.7471 48.4541 8.60938 63.96 -11.3584c7.52832 -9.69727 15.0566 -19.3906 22.585 -29.0879c8.37598 -10.79 12.4688 -19.9844 12.8057 -31.3477c2.46777 -10.3623 5.97461 -19 10.4531 -29.3828z" />
    <glyph glyph-name="a" unicode="a" horiz-adv-x="424" 
d="M338.27 430.64c26.998 0 58.3457 -22.4629 56.0859 -52.166c-4.91504 -64.6533 -5.32617 -129.12 -4.86523 -193.915c0.449219 -62.9004 11.8789 -133.113 -12.3027 -192.382c-9.30273 -22.7979 -38.0664 -25.877 -52.8623 -6.42383
c-40.6797 53.498 -42.6445 129.877 -46.4209 194.768c-0.332031 5.72559 -0.552734 11.459 -0.785156 17.1885c-10.1338 -27.6006 -21.3398 -54.8438 -34.1533 -81.6133c-26.043 -54.4033 -68.1729 -123.357 -139.694 -106.854
c-66.2617 15.2861 -88.8604 86.6045 -87.1855 146.846c1.78223 64.3174 21.2646 130.625 76.707 168.579c57.96 39.6826 123.632 21.6797 179.756 -10.3125c2.66699 9.53516 4.96875 18.0527 6.89258 25.2695c0.814453 12.9717 1.71191 25.9307 2.73828 38.8525
c2.36816 29.832 25.4814 52.1641 56.0898 52.1641zM86.1729 66.3486c71.4805 -76.8936 137.022 86.9355 172.479 200.899c-30.1514 19.4072 -64.6328 39.9492 -101.952 35.6611c-29.7109 -3.41113 -53.1982 -24.1318 -68.1016 -49.04
c-16.9102 -28.2695 -23.6826 -61.7324 -25.5645 -94.2646c-1.84863 -31.9385 0.137695 -68.5098 23.1387 -93.2559z" />
    <glyph glyph-name="a" unicode="&#xe5;" horiz-adv-x="424" 
d="M338.27 430.64c26.998 0 58.3457 -22.4629 56.0859 -52.166c-4.91504 -64.6533 -5.32617 -129.12 -4.86523 -193.915c0.449219 -62.9004 11.8789 -133.113 -12.3027 -192.382c-9.30273 -22.7979 -38.0664 -25.877 -52.8623 -6.42383
c-40.6797 53.498 -42.6445 129.877 -46.4209 194.768c-0.332031 5.72559 -0.552734 11.459 -0.785156 17.1885c-10.1338 -27.6006 -21.3398 -54.8438 -34.1533 -81.6133c-26.043 -54.4033 -68.1729 -123.357 -139.694 -106.854
c-66.2617 15.2861 -88.8604 86.6045 -87.1855 146.846c1.78223 64.3174 21.2646 130.625 76.707 168.579c57.96 39.6826 123.632 21.6797 179.756 -10.3125c2.66699 9.53516 4.96875 18.0527 6.89258 25.2695c0.814453 12.9717 1.71191 25.9307 2.73828 38.8525
c2.36816 29.832 25.4814 52.1641 56.0898 52.1641zM86.1729 66.3486c71.4805 -76.8936 137.022 86.9355 172.479 200.899c-30.1514 19.4072 -64.6328 39.9492 -101.952 35.6611c-29.7109 -3.41113 -53.1982 -24.1318 -68.1016 -49.04
c-16.9102 -28.2695 -23.6826 -61.7324 -25.5645 -94.2646c-1.84863 -31.9385 0.137695 -68.5098 23.1387 -93.2559z" />
    <glyph glyph-name="a" unicode="&#xe4;" horiz-adv-x="424" 
d="M338.27 430.64c26.998 0 58.3457 -22.4629 56.0859 -52.166c-4.91504 -64.6533 -5.32617 -129.12 -4.86523 -193.915c0.449219 -62.9004 11.8789 -133.113 -12.3027 -192.382c-9.30273 -22.7979 -38.0664 -25.877 -52.8623 -6.42383
c-40.6797 53.498 -42.6445 129.877 -46.4209 194.768c-0.332031 5.72559 -0.552734 11.459 -0.785156 17.1885c-10.1338 -27.6006 -21.3398 -54.8438 -34.1533 -81.6133c-26.043 -54.4033 -68.1729 -123.357 -139.694 -106.854
c-66.2617 15.2861 -88.8604 86.6045 -87.1855 146.846c1.78223 64.3174 21.2646 130.625 76.707 168.579c57.96 39.6826 123.632 21.6797 179.756 -10.3125c2.66699 9.53516 4.96875 18.0527 6.89258 25.2695c0.814453 12.9717 1.71191 25.9307 2.73828 38.8525
c2.36816 29.832 25.4814 52.1641 56.0898 52.1641zM86.1729 66.3486c71.4805 -76.8936 137.022 86.9355 172.479 200.899c-30.1514 19.4072 -64.6328 39.9492 -101.952 35.6611c-29.7109 -3.41113 -53.1982 -24.1318 -68.1016 -49.04
c-16.9102 -28.2695 -23.6826 -61.7324 -25.5645 -94.2646c-1.84863 -31.9385 0.137695 -68.5098 23.1387 -93.2559z" />
    <glyph glyph-name="a" unicode="&#xe3;" horiz-adv-x="424" 
d="M338.27 430.64c26.998 0 58.3457 -22.4629 56.0859 -52.166c-4.91504 -64.6533 -5.32617 -129.12 -4.86523 -193.915c0.449219 -62.9004 11.8789 -133.113 -12.3027 -192.382c-9.30273 -22.7979 -38.0664 -25.877 -52.8623 -6.42383
c-40.6797 53.498 -42.6445 129.877 -46.4209 194.768c-0.332031 5.72559 -0.552734 11.459 -0.785156 17.1885c-10.1338 -27.6006 -21.3398 -54.8438 -34.1533 -81.6133c-26.043 -54.4033 -68.1729 -123.357 -139.694 -106.854
c-66.2617 15.2861 -88.8604 86.6045 -87.1855 146.846c1.78223 64.3174 21.2646 130.625 76.707 168.579c57.96 39.6826 123.632 21.6797 179.756 -10.3125c2.66699 9.53516 4.96875 18.0527 6.89258 25.2695c0.814453 12.9717 1.71191 25.9307 2.73828 38.8525
c2.36816 29.832 25.4814 52.1641 56.0898 52.1641zM86.1729 66.3486c71.4805 -76.8936 137.022 86.9355 172.479 200.899c-30.1514 19.4072 -64.6328 39.9492 -101.952 35.6611c-29.7109 -3.41113 -53.1982 -24.1318 -68.1016 -49.04
c-16.9102 -28.2695 -23.6826 -61.7324 -25.5645 -94.2646c-1.84863 -31.9385 0.137695 -68.5098 23.1387 -93.2559z" />
    <glyph glyph-name="a" unicode="&#xe2;" horiz-adv-x="424" 
d="M338.27 430.64c26.998 0 58.3457 -22.4629 56.0859 -52.166c-4.91504 -64.6533 -5.32617 -129.12 -4.86523 -193.915c0.449219 -62.9004 11.8789 -133.113 -12.3027 -192.382c-9.30273 -22.7979 -38.0664 -25.877 -52.8623 -6.42383
c-40.6797 53.498 -42.6445 129.877 -46.4209 194.768c-0.332031 5.72559 -0.552734 11.459 -0.785156 17.1885c-10.1338 -27.6006 -21.3398 -54.8438 -34.1533 -81.6133c-26.043 -54.4033 -68.1729 -123.357 -139.694 -106.854
c-66.2617 15.2861 -88.8604 86.6045 -87.1855 146.846c1.78223 64.3174 21.2646 130.625 76.707 168.579c57.96 39.6826 123.632 21.6797 179.756 -10.3125c2.66699 9.53516 4.96875 18.0527 6.89258 25.2695c0.814453 12.9717 1.71191 25.9307 2.73828 38.8525
c2.36816 29.832 25.4814 52.1641 56.0898 52.1641zM86.1729 66.3486c71.4805 -76.8936 137.022 86.9355 172.479 200.899c-30.1514 19.4072 -64.6328 39.9492 -101.952 35.6611c-29.7109 -3.41113 -53.1982 -24.1318 -68.1016 -49.04
c-16.9102 -28.2695 -23.6826 -61.7324 -25.5645 -94.2646c-1.84863 -31.9385 0.137695 -68.5098 23.1387 -93.2559z" />
    <glyph glyph-name="a" unicode="&#xe1;" horiz-adv-x="424" 
d="M338.27 430.64c26.998 0 58.3457 -22.4629 56.0859 -52.166c-4.91504 -64.6533 -5.32617 -129.12 -4.86523 -193.915c0.449219 -62.9004 11.8789 -133.113 -12.3027 -192.382c-9.30273 -22.7979 -38.0664 -25.877 -52.8623 -6.42383
c-40.6797 53.498 -42.6445 129.877 -46.4209 194.768c-0.332031 5.72559 -0.552734 11.459 -0.785156 17.1885c-10.1338 -27.6006 -21.3398 -54.8438 -34.1533 -81.6133c-26.043 -54.4033 -68.1729 -123.357 -139.694 -106.854
c-66.2617 15.2861 -88.8604 86.6045 -87.1855 146.846c1.78223 64.3174 21.2646 130.625 76.707 168.579c57.96 39.6826 123.632 21.6797 179.756 -10.3125c2.66699 9.53516 4.96875 18.0527 6.89258 25.2695c0.814453 12.9717 1.71191 25.9307 2.73828 38.8525
c2.36816 29.832 25.4814 52.1641 56.0898 52.1641zM86.1729 66.3486c71.4805 -76.8936 137.022 86.9355 172.479 200.899c-30.1514 19.4072 -64.6328 39.9492 -101.952 35.6611c-29.7109 -3.41113 -53.1982 -24.1318 -68.1016 -49.04
c-16.9102 -28.2695 -23.6826 -61.7324 -25.5645 -94.2646c-1.84863 -31.9385 0.137695 -68.5098 23.1387 -93.2559z" />
    <glyph glyph-name="a" unicode="&#xe0;" horiz-adv-x="424" 
d="M338.27 430.64c26.998 0 58.3457 -22.4629 56.0859 -52.166c-4.91504 -64.6533 -5.32617 -129.12 -4.86523 -193.915c0.449219 -62.9004 11.8789 -133.113 -12.3027 -192.382c-9.30273 -22.7979 -38.0664 -25.877 -52.8623 -6.42383
c-40.6797 53.498 -42.6445 129.877 -46.4209 194.768c-0.332031 5.72559 -0.552734 11.459 -0.785156 17.1885c-10.1338 -27.6006 -21.3398 -54.8438 -34.1533 -81.6133c-26.043 -54.4033 -68.1729 -123.357 -139.694 -106.854
c-66.2617 15.2861 -88.8604 86.6045 -87.1855 146.846c1.78223 64.3174 21.2646 130.625 76.707 168.579c57.96 39.6826 123.632 21.6797 179.756 -10.3125c2.66699 9.53516 4.96875 18.0527 6.89258 25.2695c0.814453 12.9717 1.71191 25.9307 2.73828 38.8525
c2.36816 29.832 25.4814 52.1641 56.0898 52.1641zM86.1729 66.3486c71.4805 -76.8936 137.022 86.9355 172.479 200.899c-30.1514 19.4072 -64.6328 39.9492 -101.952 35.6611c-29.7109 -3.41113 -53.1982 -24.1318 -68.1016 -49.04
c-16.9102 -28.2695 -23.6826 -61.7324 -25.5645 -94.2646c-1.84863 -31.9385 0.137695 -68.5098 23.1387 -93.2559z" />
    <glyph glyph-name="b" unicode="b" horiz-adv-x="487" 
d="M405.568 364.179c49.0479 -54.375 80.5391 -142.092 60.4004 -214.195c-19.4658 -69.7188 -67.2256 -132.698 -134.829 -161.434c-59.4023 -25.2451 -126.541 -20.957 -181.016 11.5918c-15.8506 -27.1396 -62.2686 -35.3457 -78.8877 -3.43262
c-14.3799 27.6094 -14.6211 56.6562 -17.0557 87.1113c-2.20215 27.5469 -4.49609 55.085 -6.71484 82.6279c-4.3291 53.7178 -7.49121 107.386 -9.45215 161.241c-3.97656 109.09 -4.05566 217.702 -0.00878906 326.792c2.60938 70.4121 117.877 70.666 116.854 0
c-1.5 -104 -2.09375 -208.162 -1.3584 -312.179c14.7705 19.582 33.0273 36.7002 55.5596 50.1748c64.3047 38.4531 146.205 27.4717 196.508 -28.2988zM405.172 185.932c4.5166 57.8975 -1.94727 117.789 -46.2666 159.974
c-45.5 43.3018 -111.736 30.9746 -154.116 -10.3701c-24.8457 -24.2393 -40.4512 -54.7148 -50.4355 -87.3301c0.274414 -25.876 0.573242 -51.752 0.884766 -77.6279c0.31543 -26.1758 0.792969 -52.3389 1.75684 -78.498
c0.585938 -15.8838 2.41797 -32.4072 2.16016 -48.6406c0.0126953 -0.00878906 0.0292969 -0.0175781 0.0419922 -0.0302734c50.585 -38.1709 122.534 -37.1699 174.125 -1.5918c21.5098 14.833 38.7852 35.6113 51.5449 58.2549
c15.5225 27.5508 17.8994 55.0312 20.3047 85.8604z" />
    <glyph glyph-name="c" unicode="c" horiz-adv-x="438" 
d="M392.768 194.96c7.36621 21.2686 43.5371 13.0938 36.623 -9.38379c-23.0225 -74.8252 -59.5312 -153.173 -137.892 -182.544c-69.5068 -26.0547 -144.581 3.91016 -201.074 45.8408c-70.3623 52.2266 -80.0889 142.175 -65.7676 223.307
c6.69336 37.9131 21.4346 79.4658 46.4756 109.119c26.6494 31.5557 59.8096 42.624 100.149 42.9609c18.3018 0.15332 35.1582 3.86328 53.627 1.05859c16.0625 -2.44336 32.0176 -8.07324 45.9326 -16.5205c27.4922 -16.6904 47.2441 -42.0146 57.4863 -72.3662
c9.22754 -27.3428 -36.1016 -37.8213 -45.0723 -11.5547c-10.5654 30.9375 -37.7881 54.9443 -70.9688 57.9941c-14.3096 1.31738 -26.0508 0.237305 -35.4697 -11.5752c-9.32324 -11.6875 -16.8057 -28.083 -23.748 -41.3369
c-29.4121 -56.1484 -38.6357 -126.623 -20.0557 -187.646c8.53027 -28.0166 14.6172 -60.96 37.2324 -81.4434c24.2559 -21.9707 62.3555 -29.0088 93.874 -22.0869c72.7598 15.9756 106.784 93.0566 128.647 156.177z" />
    <glyph glyph-name="c" unicode="&#xe7;" horiz-adv-x="438" 
d="M392.768 194.96c7.36621 21.2686 43.5371 13.0938 36.623 -9.38379c-23.0225 -74.8252 -59.5312 -153.173 -137.892 -182.544c-69.5068 -26.0547 -144.581 3.91016 -201.074 45.8408c-70.3623 52.2266 -80.0889 142.175 -65.7676 223.307
c6.69336 37.9131 21.4346 79.4658 46.4756 109.119c26.6494 31.5557 59.8096 42.624 100.149 42.9609c18.3018 0.15332 35.1582 3.86328 53.627 1.05859c16.0625 -2.44336 32.0176 -8.07324 45.9326 -16.5205c27.4922 -16.6904 47.2441 -42.0146 57.4863 -72.3662
c9.22754 -27.3428 -36.1016 -37.8213 -45.0723 -11.5547c-10.5654 30.9375 -37.7881 54.9443 -70.9688 57.9941c-14.3096 1.31738 -26.0508 0.237305 -35.4697 -11.5752c-9.32324 -11.6875 -16.8057 -28.083 -23.748 -41.3369
c-29.4121 -56.1484 -38.6357 -126.623 -20.0557 -187.646c8.53027 -28.0166 14.6172 -60.96 37.2324 -81.4434c24.2559 -21.9707 62.3555 -29.0088 93.874 -22.0869c72.7598 15.9756 106.784 93.0566 128.647 156.177z" />
    <glyph glyph-name="d" unicode="d" horiz-adv-x="465" 
d="M424.773 92.0859c1.03906 -28.1865 6.01562 -58.3857 -3.76465 -85.4131c-11.6543 -32.2002 -64.0928 -44.3154 -81.9834 -9.96289c-14.3799 27.6094 -14.6211 56.6562 -17.0557 87.1113c-1.27148 15.9258 -2.58008 31.8428 -3.88086 47.7637
c-6.94238 -37.6641 -15.418 -76.8066 -37.9414 -107.938c-46.667 -64.5039 -133.653 -64.5244 -189.927 -12.0029c-58.293 54.4033 -75.3574 151.016 -73.0137 227.54c2.52637 82.5566 52.04 168.284 142.965 168.098c36.3965 -0.0751953 72.3193 -1.7207 105.392 -18.668
c14.542 -7.44922 27.8086 -17.3252 39.2178 -29.0049c-2.89551 98.374 -2.6377 196.433 1.01465 294.878c2.60938 70.4121 117.877 70.666 116.854 0c-1.55371 -107.494 -2.16406 -215.154 -1.3125 -322.657c0.427734 -53.7471 1.03027 -107.498 1.67871 -161.245
c0.31543 -26.1758 0.792969 -52.3389 1.75684 -78.498zM268.181 101.258c16.6445 61.3379 26.4307 125.113 33.4609 188.321c-2.53418 1.74902 -4.75684 4.25879 -6.40625 7.69043c-13.0918 27.2354 -34.7969 49.3184 -63.7227 59.5264
c-14.1641 4.99805 -30.1357 7.52832 -44.96 3.94727c-13.1787 -3.18262 -25.0156 -13.6318 -35.3818 -21.9785c-46.0566 -37.082 -67.8076 -92.7031 -68.6055 -151.066c-0.78125 -56.9336 5.65918 -128.899 60.2461 -161.328
c25.9932 -15.4395 59.8301 -17.3047 84.4102 1.88281c22.7773 17.7783 33.6377 46.0146 40.959 73.0049z" />
    <glyph glyph-name="e" unicode="e" horiz-adv-x="408" 
d="M355.901 219.806c5.59668 24.8711 46.5938 15.0391 41.126 -10.5381c-18.8672 -88.3359 -53.0908 -200.509 -157.074 -217.909c-40.9336 -6.85156 -84.2227 5.84961 -118.164 28.8721c-8.8418 5.99512 -17.7871 12.0859 -25.9805 18.9453
c-8.71289 7.2959 -14.9785 16.7646 -23.2969 24.1934c-9.28223 8.28516 -17.3008 14.1729 -23.7988 25.5576c-5.61328 9.83887 -9.95508 20.8535 -13.9062 31.457c-31.9717 85.8223 -23.2959 222.778 69.7227 267.846c23.8574 11.5586 46.751 20.8447 73.832 16.7607
c16.5488 -2.50098 33.6211 -3.01172 49.7168 -7.95215c36.4297 -11.1807 69.4072 -36.2217 77.6504 -75.2734c8.60449 -40.7588 -14.7705 -72.8096 -51.2832 -88.083c-42.0684 -17.5996 -87.6641 -28.5059 -132.72 -36.3086
c-1.4502 -12.9053 -2.13965 -25.8438 -1.4873 -39.1475c1.07617 -21.9541 10.5537 -43.2598 9.92188 -64.8652c15.917 -58.3877 93.4883 -75.8467 140.363 -44.7354c56.2607 37.3398 71.5586 109.771 85.3779 171.181zM189.343 347.507
c-31.1113 -28.9219 -50.9678 -66.6602 -60.5693 -108.084c20.126 4.18359 40.1025 9.04883 59.8379 14.8945c20.7617 6.15332 54.9268 12.0488 68.916 30.4756c27.5264 36.2432 -35.6562 92.9531 -68.1846 62.7139z" />
    <glyph glyph-name="e" unicode="&#xeb;" horiz-adv-x="408" 
d="M355.901 219.806c5.59668 24.8711 46.5938 15.0391 41.126 -10.5381c-18.8672 -88.3359 -53.0908 -200.509 -157.074 -217.909c-40.9336 -6.85156 -84.2227 5.84961 -118.164 28.8721c-8.8418 5.99512 -17.7871 12.0859 -25.9805 18.9453
c-8.71289 7.2959 -14.9785 16.7646 -23.2969 24.1934c-9.28223 8.28516 -17.3008 14.1729 -23.7988 25.5576c-5.61328 9.83887 -9.95508 20.8535 -13.9062 31.457c-31.9717 85.8223 -23.2959 222.778 69.7227 267.846c23.8574 11.5586 46.751 20.8447 73.832 16.7607
c16.5488 -2.50098 33.6211 -3.01172 49.7168 -7.95215c36.4297 -11.1807 69.4072 -36.2217 77.6504 -75.2734c8.60449 -40.7588 -14.7705 -72.8096 -51.2832 -88.083c-42.0684 -17.5996 -87.6641 -28.5059 -132.72 -36.3086
c-1.4502 -12.9053 -2.13965 -25.8438 -1.4873 -39.1475c1.07617 -21.9541 10.5537 -43.2598 9.92188 -64.8652c15.917 -58.3877 93.4883 -75.8467 140.363 -44.7354c56.2607 37.3398 71.5586 109.771 85.3779 171.181zM189.343 347.507
c-31.1113 -28.9219 -50.9678 -66.6602 -60.5693 -108.084c20.126 4.18359 40.1025 9.04883 59.8379 14.8945c20.7617 6.15332 54.9268 12.0488 68.916 30.4756c27.5264 36.2432 -35.6562 92.9531 -68.1846 62.7139z" />
    <glyph glyph-name="e" unicode="&#xea;" horiz-adv-x="408" 
d="M355.901 219.806c5.59668 24.8711 46.5938 15.0391 41.126 -10.5381c-18.8672 -88.3359 -53.0908 -200.509 -157.074 -217.909c-40.9336 -6.85156 -84.2227 5.84961 -118.164 28.8721c-8.8418 5.99512 -17.7871 12.0859 -25.9805 18.9453
c-8.71289 7.2959 -14.9785 16.7646 -23.2969 24.1934c-9.28223 8.28516 -17.3008 14.1729 -23.7988 25.5576c-5.61328 9.83887 -9.95508 20.8535 -13.9062 31.457c-31.9717 85.8223 -23.2959 222.778 69.7227 267.846c23.8574 11.5586 46.751 20.8447 73.832 16.7607
c16.5488 -2.50098 33.6211 -3.01172 49.7168 -7.95215c36.4297 -11.1807 69.4072 -36.2217 77.6504 -75.2734c8.60449 -40.7588 -14.7705 -72.8096 -51.2832 -88.083c-42.0684 -17.5996 -87.6641 -28.5059 -132.72 -36.3086
c-1.4502 -12.9053 -2.13965 -25.8438 -1.4873 -39.1475c1.07617 -21.9541 10.5537 -43.2598 9.92188 -64.8652c15.917 -58.3877 93.4883 -75.8467 140.363 -44.7354c56.2607 37.3398 71.5586 109.771 85.3779 171.181zM189.343 347.507
c-31.1113 -28.9219 -50.9678 -66.6602 -60.5693 -108.084c20.126 4.18359 40.1025 9.04883 59.8379 14.8945c20.7617 6.15332 54.9268 12.0488 68.916 30.4756c27.5264 36.2432 -35.6562 92.9531 -68.1846 62.7139z" />
    <glyph glyph-name="e" unicode="&#xe9;" horiz-adv-x="408" 
d="M355.901 219.806c5.59668 24.8711 46.5938 15.0391 41.126 -10.5381c-18.8672 -88.3359 -53.0908 -200.509 -157.074 -217.909c-40.9336 -6.85156 -84.2227 5.84961 -118.164 28.8721c-8.8418 5.99512 -17.7871 12.0859 -25.9805 18.9453
c-8.71289 7.2959 -14.9785 16.7646 -23.2969 24.1934c-9.28223 8.28516 -17.3008 14.1729 -23.7988 25.5576c-5.61328 9.83887 -9.95508 20.8535 -13.9062 31.457c-31.9717 85.8223 -23.2959 222.778 69.7227 267.846c23.8574 11.5586 46.751 20.8447 73.832 16.7607
c16.5488 -2.50098 33.6211 -3.01172 49.7168 -7.95215c36.4297 -11.1807 69.4072 -36.2217 77.6504 -75.2734c8.60449 -40.7588 -14.7705 -72.8096 -51.2832 -88.083c-42.0684 -17.5996 -87.6641 -28.5059 -132.72 -36.3086
c-1.4502 -12.9053 -2.13965 -25.8438 -1.4873 -39.1475c1.07617 -21.9541 10.5537 -43.2598 9.92188 -64.8652c15.917 -58.3877 93.4883 -75.8467 140.363 -44.7354c56.2607 37.3398 71.5586 109.771 85.3779 171.181zM189.343 347.507
c-31.1113 -28.9219 -50.9678 -66.6602 -60.5693 -108.084c20.126 4.18359 40.1025 9.04883 59.8379 14.8945c20.7617 6.15332 54.9268 12.0488 68.916 30.4756c27.5264 36.2432 -35.6562 92.9531 -68.1846 62.7139z" />
    <glyph glyph-name="e" unicode="&#xe8;" horiz-adv-x="408" 
d="M355.901 219.806c5.59668 24.8711 46.5938 15.0391 41.126 -10.5381c-18.8672 -88.3359 -53.0908 -200.509 -157.074 -217.909c-40.9336 -6.85156 -84.2227 5.84961 -118.164 28.8721c-8.8418 5.99512 -17.7871 12.0859 -25.9805 18.9453
c-8.71289 7.2959 -14.9785 16.7646 -23.2969 24.1934c-9.28223 8.28516 -17.3008 14.1729 -23.7988 25.5576c-5.61328 9.83887 -9.95508 20.8535 -13.9062 31.457c-31.9717 85.8223 -23.2959 222.778 69.7227 267.846c23.8574 11.5586 46.751 20.8447 73.832 16.7607
c16.5488 -2.50098 33.6211 -3.01172 49.7168 -7.95215c36.4297 -11.1807 69.4072 -36.2217 77.6504 -75.2734c8.60449 -40.7588 -14.7705 -72.8096 -51.2832 -88.083c-42.0684 -17.5996 -87.6641 -28.5059 -132.72 -36.3086
c-1.4502 -12.9053 -2.13965 -25.8438 -1.4873 -39.1475c1.07617 -21.9541 10.5537 -43.2598 9.92188 -64.8652c15.917 -58.3877 93.4883 -75.8467 140.363 -44.7354c56.2607 37.3398 71.5586 109.771 85.3779 171.181zM189.343 347.507
c-31.1113 -28.9219 -50.9678 -66.6602 -60.5693 -108.084c20.126 4.18359 40.1025 9.04883 59.8379 14.8945c20.7617 6.15332 54.9268 12.0488 68.916 30.4756c27.5264 36.2432 -35.6562 92.9531 -68.1846 62.7139z" />
    <glyph glyph-name="f" unicode="f" horiz-adv-x="356" 
d="M413.408 502.996c2.16016 -23.9316 -23.7246 -41.8428 -45.002 -41.8301c-23.7285 0 -43.9248 17.9824 -44.9883 41.8398c-0.602539 13.5322 -4.13867 25.959 -10.1553 38.1328c-6.43555 13.0293 -15.377 24.2227 -19.1787 37.7305
c-15.0947 18.1611 -35.4785 26.0508 -59.9004 24.1934c-26.1924 -1.99414 -43.8965 -27.0312 -52.5557 -42.3418c-28.2988 -50.0449 -31.6895 -105.579 -32.292 -161.611c-0.748047 -69.5146 8.08496 -138.693 11.7041 -208.021
c1.44629 -27.6963 3.0166 -55.3672 3.89355 -83.0762c35.877 3.36914 71.7705 6.45605 107.668 8.4873c23.417 1.32129 29.4209 -35.7568 5.67188 -38.96c-37.6348 -5.07324 -75.4688 -9.05762 -113.34 -12.7559c-1.89844 -29.4619 -8.80371 -57.7607 -19.0664 -85.7559
c-7.57422 -20.6787 -40.6387 -28.1279 -52.3262 -6.36035c-9.72266 18.1025 -20.8242 39.0176 -27.1807 58.5908c-2.47168 7.62012 -4.25781 15.4766 -5.69141 23.4336c-2.16016 -0.219727 -4.3291 -0.427734 -6.48926 -0.652344
c-29.6279 -3.05762 -29.5283 40.8672 0 43.4678c0.270508 0.0253906 0.541016 0.0546875 0.811523 0.0751953c-0.132812 1.10059 -0.261719 2.20996 -0.398438 3.30664c-5.18555 40.7676 -8.67188 82 -11.6797 122.987c-6.11133 83.2012 -14.0889 166.972 -1.46191 249.911
c11.1973 73.5371 46.2686 139.462 119.02 166.248c16.0879 5.9209 32.4502 7.06738 49.4521 7.4248c14.1973 0.298828 28.3154 2.55078 42.6377 1.52051c30.2852 -2.17676 62.6641 -12.0156 89.1143 -27.3926c46.6836 -13.5283 67.7402 -74.3594 71.7334 -118.592z" />
    <glyph glyph-name="g" unicode="g" horiz-adv-x="466" 
d="M423.867 326.818c1.85742 -76.9814 9.87207 -156.897 1.57031 -233.608c-7.47852 -69.1621 -30.5254 -171.937 -112.654 -187.306c-64.3799 -12.0488 -135.494 35.3037 -135.59 103.526c-0.0371094 27.1807 42.1758 26.3535 44.4072 -0.000976562
c1.6748 -19.8018 19.2627 -51.0176 42.8203 -39.9863c17.5166 8.20215 26.5156 29.2588 31.4141 46.5518c15.585 54.998 13.4414 112.65 10.7246 169.198c-3.66504 76.1914 -7.00586 152.354 -9.99707 228.533c-16.0664 -55.0439 -44.54 -107.287 -86.583 -146.072
c-25.0957 -23.1504 -58.9414 -37.0439 -93.3018 -30.2969c-28.5684 5.60449 -55.4629 27.7578 -73.3828 49.9033c-25.3984 31.3857 -28.8389 72.3564 -29.2588 111.416c-0.407227 38.0498 2.41797 77.3135 16.8145 112.899c15.248 37.6846 38.6396 67.7822 76.9229 83.0225
c8.7627 3.48633 17.4961 8.01465 26.8066 10.001c8.27246 1.76562 15.8838 -0.648438 23.8486 -0.419922c15.1484 0.431641 28.9346 3.62207 44.3574 1.17871c40.7803 -6.46094 68.7051 -32.3203 89.1846 -64.5908c-0.328125 10.0303 -0.706055 20.0557 -1.01758 30.0859
c-2.33105 74.5967 120.088 74.1396 123.283 0c3.50293 -81.3271 7.66992 -162.654 9.63086 -244.035zM271.197 473.691c0.411133 2.65039 1.47461 4.82617 2.94922 6.62109c-9.14941 22.4443 -20.3799 44.1406 -37.9883 60.9258
c-10.873 10.3623 -24.3057 19.1123 -39.3301 21.8174c-7.69434 1.38379 -15.1357 1.13477 -22.5479 -1.17578c-1.68262 -3.58105 -3.99707 -6.77246 -6.98047 -9.54395c-2.875 -2.74219 -5.7373 -5.50098 -8.5791 -8.28027
c0.448242 2.78418 0.140625 2.59766 -0.915039 -0.564453c-4.66602 -6.66895 -7.55371 -15.8555 -11.7168 -23.1055c-7.02539 -12.2363 -12.1152 -24.165 -16.2207 -37.8926c-8.84961 -29.6035 -12.1445 -60.6357 -15.9668 -91.1738
c-2.18945 -17.5 -3.89746 -34.5762 -4.08887 -52.2178c-0.136719 -12.7842 -1.90234 -26.25 1.7168 -38.7266c10.4658 -36.0889 55.3467 -18.5303 74.7461 -1.2959c48.3711 42.9697 75.2822 112.173 84.9219 174.612z" />
    <glyph glyph-name="h" unicode="h" horiz-adv-x="460" 
d="M437.575 116.749c1.08398 -39.4756 3.16699 -81.3477 -15.8369 -117.225c-14.6953 -27.7295 -59.8672 -25.4316 -75.1738 0c-16.6318 27.6377 -19.0205 61.4707 -20.5039 93.0264c-1.3916 29.5244 -1.70703 59.1738 -2.44238 88.7227
c-0.71875 28.6973 -1.32129 57.499 -1.14648 86.1963c0.0869141 14.0352 1.42871 28.1699 0.785156 41.8516c-0.506836 10.8066 -0.494141 19.8057 1.14258 29.6025c-1.37988 5.9082 -2.60156 11.4053 -3.02148 17.376c-23.2627 15.1113 -52.5752 0.357422 -71.251 -17.8906
c-23.5703 -23.0303 -40.6465 -54.458 -52.9199 -84.7217c-24.1318 -59.4932 -32.6826 -123.046 -38.7822 -186.536c1.24219 -20.5254 1.73633 -41.2998 -5.20605 -60.4785c-11.6543 -32.2002 -64.0928 -44.3154 -81.9834 -9.96289
c-14.3799 27.6094 -14.6211 56.6562 -17.0557 87.1113c-2.20215 27.5469 -4.49609 55.085 -6.71484 82.6279c-4.3291 53.7178 -7.49121 107.386 -9.45215 161.241c-3.97168 109.09 -4.05469 217.702 -0.0078125 326.792c2.61328 70.4121 117.877 70.666 116.854 0
c-1.5498 -107.494 -2.16504 -215.154 -1.30957 -322.657c0.191406 -23.874 0.423828 -47.752 0.672852 -71.6299c6.18262 16.457 13.4326 32.5781 21.9912 48.2627c19.1084 35.0293 45.5498 70.79 83.2881 86.9775c32.1836 13.7979 67.4795 10.8232 95.7324 -8.83301
c12.6348 -2.75098 20.9609 -8.52637 30.7412 -19.6484c4.79492 -5.45117 10.4707 -9.48145 15.0996 -15.0781c6.37793 -7.71094 9.99219 -17.9111 13.5449 -27.2637c12.9336 -34.0527 17.791 -66.9297 19.54 -103.368c1.66992 -34.8135 2.45508 -69.6562 3.41504 -104.495z
" />
    <glyph glyph-name="i" unicode="i" horiz-adv-x="200" 
d="M97.041 487.632c29.9941 1.25098 66.6592 -26.3369 63.3896 -58.9482c-6.86816 -68.6094 -10.4541 -137.609 -11.0811 -206.56c-0.303711 -33.6211 2.7041 -67.6621 -0.237305 -101.175c-3.14551 -35.8564 -13.5947 -69.4648 -18.6309 -104.785
c-3.35742 -23.5576 -33.7705 -27.3174 -43.0361 -5.41699c-13.8145 32.6484 -30.7246 62.8623 -39.7656 97.4307c-9.27734 35.4619 -10.2041 73.4746 -12.6387 109.892c-4.69043 70.1797 -4.80664 140.363 -1.39551 210.609
c1.69141 34.8057 29.6289 57.5449 63.3955 58.9531zM89.3691 677.081c48.0303 25.5234 104.171 -25.4238 101.906 -77.875c-1.22168 -28.3691 -16.2041 -57.0879 -41.6904 -70.8857c-25.7227 -13.9316 -53.2275 -6.31543 -77.6123 6.02051
c-50.3652 2.62207 -50.3652 78.29 -38.457 113.116c8.6084 25.1865 33.7246 33.4883 55.8535 29.624zM138.338 573.684c8.50488 9.42285 12.5156 21.9873 12.3867 34.5684c-0.182617 18.5684 -9.95508 31.4902 -23.3174 34.9434
c0.71875 -5.80859 -0.00878906 -12.2158 -2.62598 -19.1416c-7.24219 -19.1543 -3.88477 -41.2959 -9.07422 -60.1172c4.52832 -3.09961 20.0508 6.88477 22.6309 9.74707z" />
    <glyph glyph-name="i" unicode="&#xef;" horiz-adv-x="200" 
d="M97.041 487.632c29.9941 1.25098 66.6592 -26.3369 63.3896 -58.9482c-6.86816 -68.6094 -10.4541 -137.609 -11.0811 -206.56c-0.303711 -33.6211 2.7041 -67.6621 -0.237305 -101.175c-3.14551 -35.8564 -13.5947 -69.4648 -18.6309 -104.785
c-3.35742 -23.5576 -33.7705 -27.3174 -43.0361 -5.41699c-13.8145 32.6484 -30.7246 62.8623 -39.7656 97.4307c-9.27734 35.4619 -10.2041 73.4746 -12.6387 109.892c-4.69043 70.1797 -4.80664 140.363 -1.39551 210.609
c1.69141 34.8057 29.6289 57.5449 63.3955 58.9531zM89.3691 677.081c48.0303 25.5234 104.171 -25.4238 101.906 -77.875c-1.22168 -28.3691 -16.2041 -57.0879 -41.6904 -70.8857c-25.7227 -13.9316 -53.2275 -6.31543 -77.6123 6.02051
c-50.3652 2.62207 -50.3652 78.29 -38.457 113.116c8.6084 25.1865 33.7246 33.4883 55.8535 29.624zM138.338 573.684c8.50488 9.42285 12.5156 21.9873 12.3867 34.5684c-0.182617 18.5684 -9.95508 31.4902 -23.3174 34.9434
c0.71875 -5.80859 -0.00878906 -12.2158 -2.62598 -19.1416c-7.24219 -19.1543 -3.88477 -41.2959 -9.07422 -60.1172c4.52832 -3.09961 20.0508 6.88477 22.6309 9.74707z" />
    <glyph glyph-name="i" unicode="&#xee;" horiz-adv-x="200" 
d="M97.041 487.632c29.9941 1.25098 66.6592 -26.3369 63.3896 -58.9482c-6.86816 -68.6094 -10.4541 -137.609 -11.0811 -206.56c-0.303711 -33.6211 2.7041 -67.6621 -0.237305 -101.175c-3.14551 -35.8564 -13.5947 -69.4648 -18.6309 -104.785
c-3.35742 -23.5576 -33.7705 -27.3174 -43.0361 -5.41699c-13.8145 32.6484 -30.7246 62.8623 -39.7656 97.4307c-9.27734 35.4619 -10.2041 73.4746 -12.6387 109.892c-4.69043 70.1797 -4.80664 140.363 -1.39551 210.609
c1.69141 34.8057 29.6289 57.5449 63.3955 58.9531zM89.3691 677.081c48.0303 25.5234 104.171 -25.4238 101.906 -77.875c-1.22168 -28.3691 -16.2041 -57.0879 -41.6904 -70.8857c-25.7227 -13.9316 -53.2275 -6.31543 -77.6123 6.02051
c-50.3652 2.62207 -50.3652 78.29 -38.457 113.116c8.6084 25.1865 33.7246 33.4883 55.8535 29.624zM138.338 573.684c8.50488 9.42285 12.5156 21.9873 12.3867 34.5684c-0.182617 18.5684 -9.95508 31.4902 -23.3174 34.9434
c0.71875 -5.80859 -0.00878906 -12.2158 -2.62598 -19.1416c-7.24219 -19.1543 -3.88477 -41.2959 -9.07422 -60.1172c4.52832 -3.09961 20.0508 6.88477 22.6309 9.74707z" />
    <glyph glyph-name="i" unicode="&#xed;" horiz-adv-x="200" 
d="M97.041 487.632c29.9941 1.25098 66.6592 -26.3369 63.3896 -58.9482c-6.86816 -68.6094 -10.4541 -137.609 -11.0811 -206.56c-0.303711 -33.6211 2.7041 -67.6621 -0.237305 -101.175c-3.14551 -35.8564 -13.5947 -69.4648 -18.6309 -104.785
c-3.35742 -23.5576 -33.7705 -27.3174 -43.0361 -5.41699c-13.8145 32.6484 -30.7246 62.8623 -39.7656 97.4307c-9.27734 35.4619 -10.2041 73.4746 -12.6387 109.892c-4.69043 70.1797 -4.80664 140.363 -1.39551 210.609
c1.69141 34.8057 29.6289 57.5449 63.3955 58.9531zM89.3691 677.081c48.0303 25.5234 104.171 -25.4238 101.906 -77.875c-1.22168 -28.3691 -16.2041 -57.0879 -41.6904 -70.8857c-25.7227 -13.9316 -53.2275 -6.31543 -77.6123 6.02051
c-50.3652 2.62207 -50.3652 78.29 -38.457 113.116c8.6084 25.1865 33.7246 33.4883 55.8535 29.624zM138.338 573.684c8.50488 9.42285 12.5156 21.9873 12.3867 34.5684c-0.182617 18.5684 -9.95508 31.4902 -23.3174 34.9434
c0.71875 -5.80859 -0.00878906 -12.2158 -2.62598 -19.1416c-7.24219 -19.1543 -3.88477 -41.2959 -9.07422 -60.1172c4.52832 -3.09961 20.0508 6.88477 22.6309 9.74707z" />
    <glyph glyph-name="i" unicode="&#xec;" horiz-adv-x="200" 
d="M97.041 487.632c29.9941 1.25098 66.6592 -26.3369 63.3896 -58.9482c-6.86816 -68.6094 -10.4541 -137.609 -11.0811 -206.56c-0.303711 -33.6211 2.7041 -67.6621 -0.237305 -101.175c-3.14551 -35.8564 -13.5947 -69.4648 -18.6309 -104.785
c-3.35742 -23.5576 -33.7705 -27.3174 -43.0361 -5.41699c-13.8145 32.6484 -30.7246 62.8623 -39.7656 97.4307c-9.27734 35.4619 -10.2041 73.4746 -12.6387 109.892c-4.69043 70.1797 -4.80664 140.363 -1.39551 210.609
c1.69141 34.8057 29.6289 57.5449 63.3955 58.9531zM89.3691 677.081c48.0303 25.5234 104.171 -25.4238 101.906 -77.875c-1.22168 -28.3691 -16.2041 -57.0879 -41.6904 -70.8857c-25.7227 -13.9316 -53.2275 -6.31543 -77.6123 6.02051
c-50.3652 2.62207 -50.3652 78.29 -38.457 113.116c8.6084 25.1865 33.7246 33.4883 55.8535 29.624zM138.338 573.684c8.50488 9.42285 12.5156 21.9873 12.3867 34.5684c-0.182617 18.5684 -9.95508 31.4902 -23.3174 34.9434
c0.71875 -5.80859 -0.00878906 -12.2158 -2.62598 -19.1416c-7.24219 -19.1543 -3.88477 -41.2959 -9.07422 -60.1172c4.52832 -3.09961 20.0508 6.88477 22.6309 9.74707z" />
    <glyph glyph-name="j" unicode="j" horiz-adv-x="282" 
d="M240.674 326.818c1.85742 -76.9814 9.87012 -156.898 1.56836 -233.609c-7.47852 -69.1621 -30.5254 -171.937 -112.654 -187.306c-64.3799 -12.0488 -135.494 35.3037 -135.59 103.526c-0.0371094 27.1807 42.1758 26.3535 44.4072 -0.000976562
c1.67871 -19.8018 19.2666 -51.0176 42.8242 -39.9863c17.5166 8.20215 26.5156 29.2588 31.4141 46.5518c15.5811 54.998 13.4375 112.65 10.7207 169.198c-6.17383 128.56 -11.583 257.011 -15.6045 385.661c-2.33105 74.5967 120.088 74.1396 123.283 0
c3.50293 -81.3271 7.66992 -162.654 9.63086 -244.035zM116.749 656.159c-50.3652 2.61719 -50.3652 78.2891 -38.4619 113.119c8.61328 25.1865 33.7295 33.4883 55.8584 29.624c48.0303 25.5195 104.171 -25.4229 101.906 -77.8779
c-1.22168 -28.3691 -16.2041 -57.0879 -41.6904 -70.8857c-25.7266 -13.9316 -53.2275 -6.31543 -77.6123 6.02051zM169.565 745.875c-7.24219 -19.1543 -3.8877 -41.2998 -9.07324 -60.1211c4.52832 -3.09961 20.0508 6.88867 22.6309 9.74707
c8.50098 9.41895 12.5107 21.9873 12.3857 34.5723c-0.182617 18.5684 -9.95508 31.4902 -23.3174 34.9434c0.71875 -5.80859 -0.00878906 -12.2158 -2.62598 -19.1416z" />
    <glyph glyph-name="k" unicode="k" horiz-adv-x="467" 
d="M429.926 42.8545c13.5361 19.8066 46.7617 3.5625 34.8164 -18.9238c-40.3477 -75.9463 -156.804 0.34082 -196.163 39.1387c-30.6631 30.2266 -49.4346 66.9346 -70.0342 104.149c-11.1562 20.1514 -25.2451 42.999 -43.9502 58.6338
c0.208008 -18.4229 0.411133 -36.8496 0.631836 -55.2725c0.31543 -26.1758 0.792969 -52.3389 1.75684 -78.498c1.03906 -28.1865 6.0166 -58.3838 -3.76367 -85.4072c-11.6543 -32.2002 -64.0928 -44.3154 -81.9834 -9.96289
c-14.3799 27.6094 -14.6211 56.6562 -17.0557 87.1113c-2.20215 27.5469 -4.49609 55.085 -6.71484 82.6279c-4.3291 53.7178 -7.49121 107.386 -9.45215 161.241c-3.97168 109.09 -4.05469 217.702 -0.0078125 326.792c2.61328 70.4121 117.877 70.666 116.854 0
c-1.55371 -107.494 -2.16895 -215.154 -1.31348 -322.657c0.0332031 -4.4541 0.0869141 -8.91211 0.124023 -13.3662c70.0967 48.8906 140.197 97.7812 210.298 146.672c23.4746 16.374 48.4121 -20.5918 23.5908 -37.5352
c-76.3457 -52.1182 -152.691 -104.241 -229.037 -156.359c46.9209 -24.626 72.1494 -77.2305 99.0107 -124.766c18.7549 -33.1895 43.2764 -62.2812 75.1895 -83.5498c20.7539 -13.8359 77.1064 -49.4766 97.2031 -20.0684z" />
    <glyph glyph-name="l" unicode="l" horiz-adv-x="198" 
d="M156.983 92.0859c1.03906 -28.1865 6.01465 -58.3857 -3.76172 -85.4092c-11.6543 -32.2002 -64.0928 -44.3154 -81.9834 -9.96289c-14.3799 27.6094 -14.6211 56.6562 -17.0557 87.1113c-2.20215 27.5469 -4.49609 55.085 -6.71484 82.6279
c-4.3291 53.7178 -7.49121 107.386 -9.45215 161.241c-3.97656 109.09 -4.05566 217.702 -0.00878906 326.792c2.61328 70.4121 117.877 70.666 116.854 0c-1.55371 -107.494 -2.16895 -215.154 -1.31348 -322.657c0.427734 -53.7471 1.03027 -107.498 1.67871 -161.245
c0.31543 -26.1758 0.792969 -52.3389 1.75684 -78.498z" />
    <glyph glyph-name="m" unicode="m" horiz-adv-x="675" 
d="M641.251 135.234c0.831055 -40.8174 8.94531 -89.0547 -5.53809 -127.882c-16.0664 -43.0527 -74.542 -40.9629 -91.2734 0c-9.17773 22.4775 -8.31348 45.9482 -8.5918 69.7891c-0.257812 22.1289 -0.519531 44.2617 -0.777344 66.3906
c-0.515625 44.249 0.290039 88.5352 1.2002 132.776c0.897461 43.6426 1.87402 87.5557 5.74609 131.049c3.08691 34.6514 14.1309 75.3066 -15.9336 101.586c-27.6797 24.1982 -64.6787 0.860352 -82.877 -23.6494c-22.7559 -30.6504 -31.6602 -70.333 -39.9697 -106.875
c-8.22266 -36.1426 -14.0645 -72.6924 -17.6748 -109.459c0.336914 -7.76562 0.673828 -15.5352 1.01074 -23.3047c1.63281 -37.6475 6.21973 -79.6943 -4.27539 -116.511c0.0126953 -0.245117 0.0214844 -0.490234 0.0341797 -0.735352
c0.282227 -5.72168 -1.6709 -10.1172 -4.84961 -13.2168c-0.0126953 -0.0253906 -0.0214844 -0.0507812 -0.0302734 -0.0761719c-7.4707 -17.9326 -38.8486 -27.9248 -49.124 -5.97461c-9.88477 21.123 -13.4824 38.9014 -14.9326 62.1729
c-1.28809 20.6787 -2.40137 41.2246 -2.43066 61.9453c-0.0585938 41.2988 -0.121094 82.5977 -0.179688 123.893c-0.0458984 33.1104 0.626953 66.4111 -0.59082 99.4961c-1.23828 33.5791 -2.06934 63.1328 -17.7285 93.8623
c-13.2129 25.9307 -37.3857 50.0371 -64.999 26.9072c-22.166 -18.5635 -35.9307 -48.2705 -44.8633 -75.1445c-21.8799 -65.8174 -19.4951 -137.917 -22.2207 -206.422c-1.50781 -37.8379 -3.01172 -75.6758 -4.51562 -113.514
c0.120117 -9.46875 0.232422 -18.9414 0.361328 -28.4102c0.332031 -24.7842 0.880859 -49.5342 1.91992 -74.2969c1.00098 -23.915 5.64648 -50.4189 -3.62305 -73.0586c-13.4326 -32.8105 -62.4062 -44.0244 -82.6904 -10.0498
c-14.9453 25.0332 -14.4551 54.7607 -16.9648 83.1094c-2.07324 23.3955 -4.2627 46.7793 -6.36914 70.1709c-4.33789 48.1543 -7.50781 96.2637 -9.47266 144.576c-3.98828 97.9922 -4.07129 195.448 -0.0244141 293.437c2.9043 70.3584 117.989 70.6992 116.854 0
c-0.237305 -14.6787 -0.40332 -29.3701 -0.594727 -44.0576c5.48828 11.7041 11.8789 23.043 19.4785 33.8496c17.1592 24.4102 40.9619 46.4727 72.0195 49.1279c31.9346 2.72949 58.8916 -16.8652 77.2598 -41.3535c21.3018 -28.3984 33.3965 -66.5107 43.584 -100.136
c4.11328 -13.5693 6.79297 -27.6416 8.6377 -41.9014c14.168 43.7676 36.5752 85.1455 79.1211 105.559c26.1172 12.5312 57.3574 15.4482 84.3809 3.93555c29.7773 -12.6885 46.1514 -38.5361 60.8057 -65.9209c18.252 -34.1025 24.04 -68.7207 27.8291 -106.875
c4.10938 -41.3535 6.26172 -82.9766 8.22266 -124.479c1.89453 -40.1113 3.83105 -80.1768 4.64941 -120.329z" />
    <glyph glyph-name="n" unicode="n" horiz-adv-x="488" 
d="M456.572 66.0967c0.112305 -23.9648 1.46191 -50.834 -19.4785 -66.6934c-13.2207 -10.0176 -32.8525 -15.8506 -48.209 -5.78711c-13.6572 8.9541 -22.6396 18.0654 -26.1426 34.2734c-2.61719 12.1201 -3.46484 25.8145 -4.33301 38.2129
c-1.50781 21.543 -1.62793 43.2773 -2.44238 64.8574c-1.68262 44.5898 -3.36523 89.1797 -5.04395 133.77c-1.44629 38.3662 -0.802734 76.79 -2.33594 115.164c-1.52441 38.1543 -5.55469 77.1182 -4.93945 115.264c0.237305 14.8164 3.37012 28.9883 -6.43945 41.7354
c-9.11621 11.8418 -23.8164 15.7393 -38.1504 14.0938c-33.0557 -3.78906 -54.54 -31.668 -69.0449 -59.0898c-33.8574 -64.0176 -49.7119 -139.964 -59.8535 -211.078c-7.12988 -49.9785 -10.8398 -100.348 -13.4824 -150.767
c0.336914 -16.8066 0.768555 -33.6133 1.4707 -50.415c1.00098 -23.915 5.64648 -50.4189 -3.62305 -73.0586c-13.4326 -32.8105 -62.4062 -44.0244 -82.6904 -10.0498c-14.9453 25.0332 -14.4551 54.7607 -16.9648 83.1094
c-2.07324 23.3955 -4.2627 46.7793 -6.36914 70.1709c-4.33789 48.1543 -7.50781 96.2637 -9.47266 144.576c-3.98828 97.9922 -4.07129 195.448 -0.0244141 293.437c2.9043 70.3584 117.989 70.6992 116.854 0c-0.943359 -58.6289 -1.4834 -117.324 -1.6123 -176.012
c5.29785 18.6885 11.3057 37.1689 18.2148 55.3379c12.5557 33.0225 27.5215 66.5977 53.2109 91.6475c24.7129 24.0986 59.8633 38.0752 94.4688 32.9814c35.4072 -5.21387 57.9141 -31.6348 76.96 -59.8008c48.4414 -71.6377 47.7979 -171.441 52.1064 -255.087
c2.36426 -45.8857 3.21191 -91.9053 4.81543 -137.824c0.851562 -24.2891 2.43848 -48.6699 2.55078 -72.9678z" />
    <glyph glyph-name="n" unicode="&#xf1;" horiz-adv-x="488" 
d="M456.572 66.0967c0.112305 -23.9648 1.46191 -50.834 -19.4785 -66.6934c-13.2207 -10.0176 -32.8525 -15.8506 -48.209 -5.78711c-13.6572 8.9541 -22.6396 18.0654 -26.1426 34.2734c-2.61719 12.1201 -3.46484 25.8145 -4.33301 38.2129
c-1.50781 21.543 -1.62793 43.2773 -2.44238 64.8574c-1.68262 44.5898 -3.36523 89.1797 -5.04395 133.77c-1.44629 38.3662 -0.802734 76.79 -2.33594 115.164c-1.52441 38.1543 -5.55469 77.1182 -4.93945 115.264c0.237305 14.8164 3.37012 28.9883 -6.43945 41.7354
c-9.11621 11.8418 -23.8164 15.7393 -38.1504 14.0938c-33.0557 -3.78906 -54.54 -31.668 -69.0449 -59.0898c-33.8574 -64.0176 -49.7119 -139.964 -59.8535 -211.078c-7.12988 -49.9785 -10.8398 -100.348 -13.4824 -150.767
c0.336914 -16.8066 0.768555 -33.6133 1.4707 -50.415c1.00098 -23.915 5.64648 -50.4189 -3.62305 -73.0586c-13.4326 -32.8105 -62.4062 -44.0244 -82.6904 -10.0498c-14.9453 25.0332 -14.4551 54.7607 -16.9648 83.1094
c-2.07324 23.3955 -4.2627 46.7793 -6.36914 70.1709c-4.33789 48.1543 -7.50781 96.2637 -9.47266 144.576c-3.98828 97.9922 -4.07129 195.448 -0.0244141 293.437c2.9043 70.3584 117.989 70.6992 116.854 0c-0.943359 -58.6289 -1.4834 -117.324 -1.6123 -176.012
c5.29785 18.6885 11.3057 37.1689 18.2148 55.3379c12.5557 33.0225 27.5215 66.5977 53.2109 91.6475c24.7129 24.0986 59.8633 38.0752 94.4688 32.9814c35.4072 -5.21387 57.9141 -31.6348 76.96 -59.8008c48.4414 -71.6377 47.7979 -171.441 52.1064 -255.087
c2.36426 -45.8857 3.21191 -91.9053 4.81543 -137.824c0.851562 -24.2891 2.43848 -48.6699 2.55078 -72.9678z" />
    <glyph glyph-name="o" unicode="o" horiz-adv-x="420" 
d="M453.556 424.914c3.24121 23.0469 41.5654 24.3867 39.7285 -0.00195312c-5.28906 -70.1299 -44.2197 -137.754 -105.034 -174.213c-1.17578 -0.706055 -2.36816 -1.36621 -3.55664 -2.03906c0.956055 -34.4854 -3.14062 -69.0996 -12.4971 -102.089
c-18.1729 -64.0801 -59.4053 -126.531 -125.351 -148.062c-66.9268 -21.8506 -132.146 15.0732 -174.238 65.3516c-51.4658 61.4756 -56.2061 142.578 -46.5879 219.206c9.57324 76.2832 21.751 165.019 104.79 193.633c3.69336 1.27148 7.2832 1.94043 10.7529 2.16504
c27.2598 24.7383 66.7305 33.6709 105.961 18.9131c61.9033 -23.2881 100.668 -91.0869 120.229 -150.834c5.55957 -16.9766 9.73926 -34.4639 12.5938 -52.1973c38.9688 30.0059 65.917 78.3438 73.209 130.167zM163.676 404.2
c-6.49414 -3.41992 -11.4053 -8.66406 -15.2822 -14.8545c0.0205078 -3.13281 0.186523 -6.26562 0.527344 -9.37305c5.64258 -51.5322 49.3105 -94.0654 97.1328 -109.135c33.4756 -10.5488 65.0771 -9.04102 93.1143 1.08887
c-2.57617 24.0029 -7.86914 47.7148 -15.7549 70.4209c-15.5977 44.9102 -45.9238 101.536 -93.4883 118.679c-20.2471 7.2998 -37.5273 4.2168 -50.9014 -4.99023c8.83691 -17.459 6.44824 -40.3564 -15.3477 -51.8359zM336.949 189.722
c2.27637 13.6074 3.54199 27.3838 3.89941 41.1982c-53.9883 -14.0723 -113.793 -3.92578 -160.053 28.1748c-22.2451 15.4355 -41.1621 35.6865 -54.4453 58.8037c-4.93555 -21.7461 -8.90723 -43.8037 -11.2295 -65.8447
c-3.31934 -31.4814 -3.71777 -64.1553 1.24316 -95.5322c4.03809 -25.5527 9.31934 -55.8047 24.1191 -77.5303c30.1104 -44.208 79.8232 -54.8779 124.517 -23.8867c42.7529 29.6445 63.6807 85.2529 71.9492 134.617z" />
    <glyph glyph-name="o" unicode="&#xf8;" horiz-adv-x="420" 
d="M453.556 424.914c3.24121 23.0469 41.5654 24.3867 39.7285 -0.00195312c-5.28906 -70.1299 -44.2197 -137.754 -105.034 -174.213c-1.17578 -0.706055 -2.36816 -1.36621 -3.55664 -2.03906c0.956055 -34.4854 -3.14062 -69.0996 -12.4971 -102.089
c-18.1729 -64.0801 -59.4053 -126.531 -125.351 -148.062c-66.9268 -21.8506 -132.146 15.0732 -174.238 65.3516c-51.4658 61.4756 -56.2061 142.578 -46.5879 219.206c9.57324 76.2832 21.751 165.019 104.79 193.633c3.69336 1.27148 7.2832 1.94043 10.7529 2.16504
c27.2598 24.7383 66.7305 33.6709 105.961 18.9131c61.9033 -23.2881 100.668 -91.0869 120.229 -150.834c5.55957 -16.9766 9.73926 -34.4639 12.5938 -52.1973c38.9688 30.0059 65.917 78.3438 73.209 130.167zM163.676 404.2
c-6.49414 -3.41992 -11.4053 -8.66406 -15.2822 -14.8545c0.0205078 -3.13281 0.186523 -6.26562 0.527344 -9.37305c5.64258 -51.5322 49.3105 -94.0654 97.1328 -109.135c33.4756 -10.5488 65.0771 -9.04102 93.1143 1.08887
c-2.57617 24.0029 -7.86914 47.7148 -15.7549 70.4209c-15.5977 44.9102 -45.9238 101.536 -93.4883 118.679c-20.2471 7.2998 -37.5273 4.2168 -50.9014 -4.99023c8.83691 -17.459 6.44824 -40.3564 -15.3477 -51.8359zM336.949 189.722
c2.27637 13.6074 3.54199 27.3838 3.89941 41.1982c-53.9883 -14.0723 -113.793 -3.92578 -160.053 28.1748c-22.2451 15.4355 -41.1621 35.6865 -54.4453 58.8037c-4.93555 -21.7461 -8.90723 -43.8037 -11.2295 -65.8447
c-3.31934 -31.4814 -3.71777 -64.1553 1.24316 -95.5322c4.03809 -25.5527 9.31934 -55.8047 24.1191 -77.5303c30.1104 -44.208 79.8232 -54.8779 124.517 -23.8867c42.7529 29.6445 63.6807 85.2529 71.9492 134.617z" />
    <glyph glyph-name="o" unicode="&#xf6;" horiz-adv-x="420" 
d="M453.556 424.914c3.24121 23.0469 41.5654 24.3867 39.7285 -0.00195312c-5.28906 -70.1299 -44.2197 -137.754 -105.034 -174.213c-1.17578 -0.706055 -2.36816 -1.36621 -3.55664 -2.03906c0.956055 -34.4854 -3.14062 -69.0996 -12.4971 -102.089
c-18.1729 -64.0801 -59.4053 -126.531 -125.351 -148.062c-66.9268 -21.8506 -132.146 15.0732 -174.238 65.3516c-51.4658 61.4756 -56.2061 142.578 -46.5879 219.206c9.57324 76.2832 21.751 165.019 104.79 193.633c3.69336 1.27148 7.2832 1.94043 10.7529 2.16504
c27.2598 24.7383 66.7305 33.6709 105.961 18.9131c61.9033 -23.2881 100.668 -91.0869 120.229 -150.834c5.55957 -16.9766 9.73926 -34.4639 12.5938 -52.1973c38.9688 30.0059 65.917 78.3438 73.209 130.167zM163.676 404.2
c-6.49414 -3.41992 -11.4053 -8.66406 -15.2822 -14.8545c0.0205078 -3.13281 0.186523 -6.26562 0.527344 -9.37305c5.64258 -51.5322 49.3105 -94.0654 97.1328 -109.135c33.4756 -10.5488 65.0771 -9.04102 93.1143 1.08887
c-2.57617 24.0029 -7.86914 47.7148 -15.7549 70.4209c-15.5977 44.9102 -45.9238 101.536 -93.4883 118.679c-20.2471 7.2998 -37.5273 4.2168 -50.9014 -4.99023c8.83691 -17.459 6.44824 -40.3564 -15.3477 -51.8359zM336.949 189.722
c2.27637 13.6074 3.54199 27.3838 3.89941 41.1982c-53.9883 -14.0723 -113.793 -3.92578 -160.053 28.1748c-22.2451 15.4355 -41.1621 35.6865 -54.4453 58.8037c-4.93555 -21.7461 -8.90723 -43.8037 -11.2295 -65.8447
c-3.31934 -31.4814 -3.71777 -64.1553 1.24316 -95.5322c4.03809 -25.5527 9.31934 -55.8047 24.1191 -77.5303c30.1104 -44.208 79.8232 -54.8779 124.517 -23.8867c42.7529 29.6445 63.6807 85.2529 71.9492 134.617z" />
    <glyph glyph-name="o" unicode="&#xf5;" horiz-adv-x="420" 
d="M453.556 424.914c3.24121 23.0469 41.5654 24.3867 39.7285 -0.00195312c-5.28906 -70.1299 -44.2197 -137.754 -105.034 -174.213c-1.17578 -0.706055 -2.36816 -1.36621 -3.55664 -2.03906c0.956055 -34.4854 -3.14062 -69.0996 -12.4971 -102.089
c-18.1729 -64.0801 -59.4053 -126.531 -125.351 -148.062c-66.9268 -21.8506 -132.146 15.0732 -174.238 65.3516c-51.4658 61.4756 -56.2061 142.578 -46.5879 219.206c9.57324 76.2832 21.751 165.019 104.79 193.633c3.69336 1.27148 7.2832 1.94043 10.7529 2.16504
c27.2598 24.7383 66.7305 33.6709 105.961 18.9131c61.9033 -23.2881 100.668 -91.0869 120.229 -150.834c5.55957 -16.9766 9.73926 -34.4639 12.5938 -52.1973c38.9688 30.0059 65.917 78.3438 73.209 130.167zM163.676 404.2
c-6.49414 -3.41992 -11.4053 -8.66406 -15.2822 -14.8545c0.0205078 -3.13281 0.186523 -6.26562 0.527344 -9.37305c5.64258 -51.5322 49.3105 -94.0654 97.1328 -109.135c33.4756 -10.5488 65.0771 -9.04102 93.1143 1.08887
c-2.57617 24.0029 -7.86914 47.7148 -15.7549 70.4209c-15.5977 44.9102 -45.9238 101.536 -93.4883 118.679c-20.2471 7.2998 -37.5273 4.2168 -50.9014 -4.99023c8.83691 -17.459 6.44824 -40.3564 -15.3477 -51.8359zM336.949 189.722
c2.27637 13.6074 3.54199 27.3838 3.89941 41.1982c-53.9883 -14.0723 -113.793 -3.92578 -160.053 28.1748c-22.2451 15.4355 -41.1621 35.6865 -54.4453 58.8037c-4.93555 -21.7461 -8.90723 -43.8037 -11.2295 -65.8447
c-3.31934 -31.4814 -3.71777 -64.1553 1.24316 -95.5322c4.03809 -25.5527 9.31934 -55.8047 24.1191 -77.5303c30.1104 -44.208 79.8232 -54.8779 124.517 -23.8867c42.7529 29.6445 63.6807 85.2529 71.9492 134.617z" />
    <glyph glyph-name="o" unicode="&#xf4;" horiz-adv-x="420" 
d="M453.556 424.914c3.24121 23.0469 41.5654 24.3867 39.7285 -0.00195312c-5.28906 -70.1299 -44.2197 -137.754 -105.034 -174.213c-1.17578 -0.706055 -2.36816 -1.36621 -3.55664 -2.03906c0.956055 -34.4854 -3.14062 -69.0996 -12.4971 -102.089
c-18.1729 -64.0801 -59.4053 -126.531 -125.351 -148.062c-66.9268 -21.8506 -132.146 15.0732 -174.238 65.3516c-51.4658 61.4756 -56.2061 142.578 -46.5879 219.206c9.57324 76.2832 21.751 165.019 104.79 193.633c3.69336 1.27148 7.2832 1.94043 10.7529 2.16504
c27.2598 24.7383 66.7305 33.6709 105.961 18.9131c61.9033 -23.2881 100.668 -91.0869 120.229 -150.834c5.55957 -16.9766 9.73926 -34.4639 12.5938 -52.1973c38.9688 30.0059 65.917 78.3438 73.209 130.167zM163.676 404.2
c-6.49414 -3.41992 -11.4053 -8.66406 -15.2822 -14.8545c0.0205078 -3.13281 0.186523 -6.26562 0.527344 -9.37305c5.64258 -51.5322 49.3105 -94.0654 97.1328 -109.135c33.4756 -10.5488 65.0771 -9.04102 93.1143 1.08887
c-2.57617 24.0029 -7.86914 47.7148 -15.7549 70.4209c-15.5977 44.9102 -45.9238 101.536 -93.4883 118.679c-20.2471 7.2998 -37.5273 4.2168 -50.9014 -4.99023c8.83691 -17.459 6.44824 -40.3564 -15.3477 -51.8359zM336.949 189.722
c2.27637 13.6074 3.54199 27.3838 3.89941 41.1982c-53.9883 -14.0723 -113.793 -3.92578 -160.053 28.1748c-22.2451 15.4355 -41.1621 35.6865 -54.4453 58.8037c-4.93555 -21.7461 -8.90723 -43.8037 -11.2295 -65.8447
c-3.31934 -31.4814 -3.71777 -64.1553 1.24316 -95.5322c4.03809 -25.5527 9.31934 -55.8047 24.1191 -77.5303c30.1104 -44.208 79.8232 -54.8779 124.517 -23.8867c42.7529 29.6445 63.6807 85.2529 71.9492 134.617z" />
    <glyph glyph-name="o" unicode="&#xf3;" horiz-adv-x="420" 
d="M453.556 424.914c3.24121 23.0469 41.5654 24.3867 39.7285 -0.00195312c-5.28906 -70.1299 -44.2197 -137.754 -105.034 -174.213c-1.17578 -0.706055 -2.36816 -1.36621 -3.55664 -2.03906c0.956055 -34.4854 -3.14062 -69.0996 -12.4971 -102.089
c-18.1729 -64.0801 -59.4053 -126.531 -125.351 -148.062c-66.9268 -21.8506 -132.146 15.0732 -174.238 65.3516c-51.4658 61.4756 -56.2061 142.578 -46.5879 219.206c9.57324 76.2832 21.751 165.019 104.79 193.633c3.69336 1.27148 7.2832 1.94043 10.7529 2.16504
c27.2598 24.7383 66.7305 33.6709 105.961 18.9131c61.9033 -23.2881 100.668 -91.0869 120.229 -150.834c5.55957 -16.9766 9.73926 -34.4639 12.5938 -52.1973c38.9688 30.0059 65.917 78.3438 73.209 130.167zM163.676 404.2
c-6.49414 -3.41992 -11.4053 -8.66406 -15.2822 -14.8545c0.0205078 -3.13281 0.186523 -6.26562 0.527344 -9.37305c5.64258 -51.5322 49.3105 -94.0654 97.1328 -109.135c33.4756 -10.5488 65.0771 -9.04102 93.1143 1.08887
c-2.57617 24.0029 -7.86914 47.7148 -15.7549 70.4209c-15.5977 44.9102 -45.9238 101.536 -93.4883 118.679c-20.2471 7.2998 -37.5273 4.2168 -50.9014 -4.99023c8.83691 -17.459 6.44824 -40.3564 -15.3477 -51.8359zM336.949 189.722
c2.27637 13.6074 3.54199 27.3838 3.89941 41.1982c-53.9883 -14.0723 -113.793 -3.92578 -160.053 28.1748c-22.2451 15.4355 -41.1621 35.6865 -54.4453 58.8037c-4.93555 -21.7461 -8.90723 -43.8037 -11.2295 -65.8447
c-3.31934 -31.4814 -3.71777 -64.1553 1.24316 -95.5322c4.03809 -25.5527 9.31934 -55.8047 24.1191 -77.5303c30.1104 -44.208 79.8232 -54.8779 124.517 -23.8867c42.7529 29.6445 63.6807 85.2529 71.9492 134.617z" />
    <glyph glyph-name="o" unicode="&#xf2;" horiz-adv-x="420" 
d="M453.556 424.914c3.24121 23.0469 41.5654 24.3867 39.7285 -0.00195312c-5.28906 -70.1299 -44.2197 -137.754 -105.034 -174.213c-1.17578 -0.706055 -2.36816 -1.36621 -3.55664 -2.03906c0.956055 -34.4854 -3.14062 -69.0996 -12.4971 -102.089
c-18.1729 -64.0801 -59.4053 -126.531 -125.351 -148.062c-66.9268 -21.8506 -132.146 15.0732 -174.238 65.3516c-51.4658 61.4756 -56.2061 142.578 -46.5879 219.206c9.57324 76.2832 21.751 165.019 104.79 193.633c3.69336 1.27148 7.2832 1.94043 10.7529 2.16504
c27.2598 24.7383 66.7305 33.6709 105.961 18.9131c61.9033 -23.2881 100.668 -91.0869 120.229 -150.834c5.55957 -16.9766 9.73926 -34.4639 12.5938 -52.1973c38.9688 30.0059 65.917 78.3438 73.209 130.167zM163.676 404.2
c-6.49414 -3.41992 -11.4053 -8.66406 -15.2822 -14.8545c0.0205078 -3.13281 0.186523 -6.26562 0.527344 -9.37305c5.64258 -51.5322 49.3105 -94.0654 97.1328 -109.135c33.4756 -10.5488 65.0771 -9.04102 93.1143 1.08887
c-2.57617 24.0029 -7.86914 47.7148 -15.7549 70.4209c-15.5977 44.9102 -45.9238 101.536 -93.4883 118.679c-20.2471 7.2998 -37.5273 4.2168 -50.9014 -4.99023c8.83691 -17.459 6.44824 -40.3564 -15.3477 -51.8359zM336.949 189.722
c2.27637 13.6074 3.54199 27.3838 3.89941 41.1982c-53.9883 -14.0723 -113.793 -3.92578 -160.053 28.1748c-22.2451 15.4355 -41.1621 35.6865 -54.4453 58.8037c-4.93555 -21.7461 -8.90723 -43.8037 -11.2295 -65.8447
c-3.31934 -31.4814 -3.71777 -64.1553 1.24316 -95.5322c4.03809 -25.5527 9.31934 -55.8047 24.1191 -77.5303c30.1104 -44.208 79.8232 -54.8779 124.517 -23.8867c42.7529 29.6445 63.6807 85.2529 71.9492 134.617z" />
    <glyph glyph-name="p" unicode="p" horiz-adv-x="477" 
d="M358.094 625.93c70.6445 -22.9141 110.754 -94.5254 109.217 -166.467c-1.50781 -70.5332 -37.0488 -139.412 -92.2041 -183.092c-59.5137 -47.1328 -136.785 -63.374 -210.667 -47.7764c-3.78516 0.801758 -6.81836 2.20996 -9.20312 4.02539
c0.303711 -26.2295 0.635742 -52.4629 0.989258 -78.6885c0.332031 -24.7832 0.880859 -49.5332 1.91992 -74.2959c1.00098 -23.915 5.64648 -50.4189 -3.62305 -73.0586c-13.4326 -32.8105 -62.4062 -44.0244 -82.6904 -10.0498
c-14.9453 25.0332 -14.4551 54.7607 -16.9648 83.1094c-2.07324 23.3955 -4.2627 46.7793 -6.36914 70.1709c-4.33789 48.1543 -7.50781 96.2637 -9.47266 144.576c-3.98828 97.9922 -4.07129 195.448 -0.0244141 293.437c2.9043 70.3584 117.989 70.6992 116.855 0
c-0.257812 -16.042 -0.449219 -32.0879 -0.652344 -48.1377c4.96094 7.5498 10.3369 14.9082 16.2363 22.0176c44.0459 53.0947 118.077 86.4746 186.653 64.2295zM361.599 322.855c40.3564 40.1025 64.166 98.0967 59.1514 155.205
c-4.94824 56.3691 -45.5576 111.03 -105.807 111.924c-58.625 0.868164 -104.939 -40.9463 -131.514 -89.7949c-14.002 -25.7393 -22.9434 -53.4648 -29.1797 -81.959c-0.112305 -39.916 -0.0625 -79.8359 0.291016 -119.723
c0.108398 -12.0078 0.25 -24.0195 0.378906 -36.0312c4.94043 5.23145 12.4189 8.35156 21.4766 6.46094c66.7021 -13.9268 136.707 5.72559 185.202 53.918z" />
    <glyph glyph-name="q" unicode="q" horiz-adv-x="475" 
d="M434.059 79.6338c1.00098 -23.915 5.64844 -50.4209 -3.625 -73.0566c-13.4326 -32.8105 -62.4062 -44.0244 -82.6904 -10.0498c-14.9453 25.0332 -14.4551 54.7607 -16.9648 83.1094c-2.07324 23.3955 -4.2627 46.7793 -6.36914 70.1709
c-4.33789 48.1543 -7.50781 96.2637 -9.47266 144.576c-0.287109 7.10059 -0.511719 14.1973 -0.760742 21.2939c-9.41504 -20.3916 -20.957 -39.4834 -34.8838 -56.5186c-24.3311 -29.7695 -58.6416 -51.1836 -97.7471 -52.9658
c-39.376 -1.79102 -75.6895 20.0557 -100.456 49.248c-52.6543 62.0566 -80.9072 157.402 -64.3789 237.521c16.0127 77.625 76.7695 135.984 156.477 143.019c52.8701 4.66992 102.978 -14.4756 141.751 -47.8975c3.19141 70.084 117.965 70.3418 116.831 -0.265625
c-1.54102 -96.3721 -2.16016 -192.931 -1.30859 -289.307c0.427734 -48.1924 1.03027 -96.3887 1.67871 -144.581c0.332031 -24.7832 0.880859 -49.5332 1.91992 -74.2959zM275.342 332.99c27.9209 62.4805 37.0898 131.248 29.6572 199.034
c-0.162109 1.4707 -0.158203 2.8457 -0.0166016 4.12988c-36.6709 44.2158 -92.9854 70.1045 -151.406 52.1719c-56.9258 -17.4707 -89.9736 -76.8564 -92.9609 -133.79c-1.87402 -35.7568 5.7832 -70.9277 18.5098 -104.204
c11.6338 -30.418 27.3643 -63.0625 52.8379 -84.3066c60.5234 -50.4854 118.861 12.0996 143.379 66.9648z" />
    <glyph glyph-name="r" unicode="r" horiz-adv-x="454" 
d="M383.21 628.851c39.6787 -30.4756 74.0176 -89.7676 69.8008 -141.246c-1.82422 -22.2695 -36.2344 -28.2646 -42.4629 -5.34668c-6.05762 22.2988 -7.50781 44.5234 -17.7207 65.8047c-9.15723 19.0752 -22.2158 36.1934 -38.9434 49.2148
c-31.8008 24.7549 -73.2998 31.0117 -110.183 14.1016c-45.9482 -21.0693 -72.4893 -60.752 -88.9014 -105.845c-0.698242 -69.0117 -0.864258 -138.062 -0.253906 -207.023c0.427734 -48.1924 1.03027 -96.3887 1.67871 -144.581
c0.332031 -24.7842 0.880859 -49.5342 1.91992 -74.2969c1.00098 -23.915 5.64648 -50.4189 -3.62305 -73.0586c-13.4326 -32.8105 -62.4062 -44.0244 -82.6904 -10.0498c-14.9453 25.0332 -14.4551 54.7607 -16.9648 83.1094
c-2.07324 23.3955 -4.2627 46.7793 -6.36914 70.1709c-4.33789 48.1543 -7.50781 96.2637 -9.47266 144.576c-3.98828 97.9922 -4.07129 195.448 -0.0244141 293.437c2.83398 68.6924 112.543 70.6035 116.682 4.86133c21.0029 27.0068 48.5459 48.7119 85.1504 61.5459
c48.5908 17.0391 102.026 5.61719 142.378 -25.374z" />
    <glyph glyph-name="s" unicode="s" horiz-adv-x="365" 
d="M348.458 406.596c2.29395 -25.9932 -40.873 -25.8291 -43.2334 0.00195312c-6.29492 68.8252 -13.998 150.726 -72.748 196.898c-37.0156 29.0879 -118.667 33.2012 -122.111 -28.9883c-1.5166 -27.3389 11.0312 -54.5986 18.8926 -80.0137
c8.42578 -27.2432 19.6689 -54.4619 31.4814 -80.4092c27.3887 -60.1748 72.1572 -108.683 108.305 -163.294c29.416 -44.4404 65.5254 -127.264 27.3135 -174.841c-21.9961 -85.6357 -121.396 -134.737 -199.226 -83.9814
c-86.0596 56.124 -79.457 168.338 -41.1328 250.849c9.13672 19.665 47.1533 5.64258 37.9131 -14.8662c-27.0732 -60.0791 -40.3643 -142.848 15.6475 -191.717c22.0293 -19.2246 57.4697 -28.9639 84.7754 -15.041c23.3916 11.9287 30.9785 35.6201 32.9189 59.8262
c-7.3252 13.1504 -9.08691 27.7549 -16.1543 42.6455c-8.36328 17.6211 -17.458 35.0635 -27.6709 51.7412c-22.4404 36.6416 -51.375 68.3809 -76.4873 103.095c-44.1494 61.0352 -76.8398 141.581 -75.3525 217.848c1.19629 61.3301 29.6611 133.517 89.8398 159.064
c59.0068 25.0498 123.984 2.41406 164.199 -44.9346c48.3291 -56.9053 56.5186 -132.328 62.8301 -203.883z" />
    <glyph glyph-name="t" unicode="t" horiz-adv-x="284" 
d="M263.12 360.049c26.5283 -0.532227 25.6035 -35.8184 0.00585938 -38.041c-27.0645 -2.34766 -54.3281 -3.41504 -81.6465 -3.61816c0.0458984 -6.62695 0.0458984 -13.2578 0.104492 -19.8809c0.427734 -48.1924 1.03027 -96.3887 1.67871 -144.581
c0.332031 -24.7842 0.880859 -49.5342 1.91992 -74.2969c1.00098 -23.915 5.64648 -50.4189 -3.62305 -73.0586c-13.4326 -32.8105 -62.4062 -44.0244 -82.6904 -10.0498c-14.9453 25.0332 -14.4551 54.7607 -16.9648 83.1094
c-2.07324 23.3955 -4.2627 46.7793 -6.36914 70.1709c-4.33789 48.1543 -7.50781 96.2637 -9.47266 144.576c-0.370117 9.10742 -0.673828 18.207 -0.977539 27.3018c-11.1436 0.615234 -22.2656 1.27148 -33.3506 1.96582
c-28.9307 1.80762 -29.0225 44.4277 -0.000976562 42.3838c10.7236 -0.755859 21.4473 -1.3623 32.1631 -1.89453c-1.61621 74.5674 -0.947266 148.973 2.13574 223.686c2.9043 70.3584 117.989 70.6992 116.854 0c-1.20898 -75.5059 -1.81934 -151.124 -1.63281 -226.688
c27.2637 -0.307617 54.5439 -0.540039 81.8662 -1.08398z" />
    <glyph glyph-name="u" unicode="u" horiz-adv-x="446" 
d="M414.028 468.433c-6.51855 -73.8525 -9.91992 -148.397 -10.7051 -222.528c-0.772461 -73.0879 9.59375 -151.723 -13.7568 -222.105c-7.99805 -24.0977 -44.2158 -29.5576 -57.6689 -7.00879c-23.8613 39.9863 -33.6797 86.2217 -38.1797 133.139
c-29.8652 -57.9062 -90.127 -115.114 -160.581 -89.5449c-73.6367 26.7285 -86.9658 120.482 -97.2578 187.426c-12.5439 81.5967 -16.998 165.703 -4.22168 247.292c2.91211 18.585 27.8125 26.9814 43.4844 22.96c18.4727 -4.74023 28.5234 -22.2031 24.6885 -40.4385
c-13.998 -66.5273 -23.7744 -132.473 -18.4102 -200.596c2.58398 -32.8232 7.66504 -65.3809 15.5303 -97.3604c6.88477 -27.9834 17.1309 -59.0947 42.5459 -75.7393c56.9463 -37.2939 106.206 40.7676 125.971 82.9893c9.15332 19.5566 17.0312 39.5996 23.7539 60
c-1.67871 74.2637 2.30566 147.7 10.873 221.516c3.50684 30.2061 24.9873 52.9785 56.9668 52.9785c27.1562 0 59.6309 -22.8438 56.9678 -52.9785z" />
    <glyph glyph-name="u" unicode="&#xfc;" horiz-adv-x="446" 
d="M414.028 468.433c-6.51855 -73.8525 -9.91992 -148.397 -10.7051 -222.528c-0.772461 -73.0879 9.59375 -151.723 -13.7568 -222.105c-7.99805 -24.0977 -44.2158 -29.5576 -57.6689 -7.00879c-23.8613 39.9863 -33.6797 86.2217 -38.1797 133.139
c-29.8652 -57.9062 -90.127 -115.114 -160.581 -89.5449c-73.6367 26.7285 -86.9658 120.482 -97.2578 187.426c-12.5439 81.5967 -16.998 165.703 -4.22168 247.292c2.91211 18.585 27.8125 26.9814 43.4844 22.96c18.4727 -4.74023 28.5234 -22.2031 24.6885 -40.4385
c-13.998 -66.5273 -23.7744 -132.473 -18.4102 -200.596c2.58398 -32.8232 7.66504 -65.3809 15.5303 -97.3604c6.88477 -27.9834 17.1309 -59.0947 42.5459 -75.7393c56.9463 -37.2939 106.206 40.7676 125.971 82.9893c9.15332 19.5566 17.0312 39.5996 23.7539 60
c-1.67871 74.2637 2.30566 147.7 10.873 221.516c3.50684 30.2061 24.9873 52.9785 56.9668 52.9785c27.1562 0 59.6309 -22.8438 56.9678 -52.9785z" />
    <glyph glyph-name="u" unicode="&#xfb;" horiz-adv-x="446" 
d="M414.028 468.433c-6.51855 -73.8525 -9.91992 -148.397 -10.7051 -222.528c-0.772461 -73.0879 9.59375 -151.723 -13.7568 -222.105c-7.99805 -24.0977 -44.2158 -29.5576 -57.6689 -7.00879c-23.8613 39.9863 -33.6797 86.2217 -38.1797 133.139
c-29.8652 -57.9062 -90.127 -115.114 -160.581 -89.5449c-73.6367 26.7285 -86.9658 120.482 -97.2578 187.426c-12.5439 81.5967 -16.998 165.703 -4.22168 247.292c2.91211 18.585 27.8125 26.9814 43.4844 22.96c18.4727 -4.74023 28.5234 -22.2031 24.6885 -40.4385
c-13.998 -66.5273 -23.7744 -132.473 -18.4102 -200.596c2.58398 -32.8232 7.66504 -65.3809 15.5303 -97.3604c6.88477 -27.9834 17.1309 -59.0947 42.5459 -75.7393c56.9463 -37.2939 106.206 40.7676 125.971 82.9893c9.15332 19.5566 17.0312 39.5996 23.7539 60
c-1.67871 74.2637 2.30566 147.7 10.873 221.516c3.50684 30.2061 24.9873 52.9785 56.9668 52.9785c27.1562 0 59.6309 -22.8438 56.9678 -52.9785z" />
    <glyph glyph-name="u" unicode="&#xfa;" horiz-adv-x="446" 
d="M414.028 468.433c-6.51855 -73.8525 -9.91992 -148.397 -10.7051 -222.528c-0.772461 -73.0879 9.59375 -151.723 -13.7568 -222.105c-7.99805 -24.0977 -44.2158 -29.5576 -57.6689 -7.00879c-23.8613 39.9863 -33.6797 86.2217 -38.1797 133.139
c-29.8652 -57.9062 -90.127 -115.114 -160.581 -89.5449c-73.6367 26.7285 -86.9658 120.482 -97.2578 187.426c-12.5439 81.5967 -16.998 165.703 -4.22168 247.292c2.91211 18.585 27.8125 26.9814 43.4844 22.96c18.4727 -4.74023 28.5234 -22.2031 24.6885 -40.4385
c-13.998 -66.5273 -23.7744 -132.473 -18.4102 -200.596c2.58398 -32.8232 7.66504 -65.3809 15.5303 -97.3604c6.88477 -27.9834 17.1309 -59.0947 42.5459 -75.7393c56.9463 -37.2939 106.206 40.7676 125.971 82.9893c9.15332 19.5566 17.0312 39.5996 23.7539 60
c-1.67871 74.2637 2.30566 147.7 10.873 221.516c3.50684 30.2061 24.9873 52.9785 56.9668 52.9785c27.1562 0 59.6309 -22.8438 56.9678 -52.9785z" />
    <glyph glyph-name="u" unicode="&#xf9;" horiz-adv-x="446" 
d="M414.028 468.433c-6.51855 -73.8525 -9.91992 -148.397 -10.7051 -222.528c-0.772461 -73.0879 9.59375 -151.723 -13.7568 -222.105c-7.99805 -24.0977 -44.2158 -29.5576 -57.6689 -7.00879c-23.8613 39.9863 -33.6797 86.2217 -38.1797 133.139
c-29.8652 -57.9062 -90.127 -115.114 -160.581 -89.5449c-73.6367 26.7285 -86.9658 120.482 -97.2578 187.426c-12.5439 81.5967 -16.998 165.703 -4.22168 247.292c2.91211 18.585 27.8125 26.9814 43.4844 22.96c18.4727 -4.74023 28.5234 -22.2031 24.6885 -40.4385
c-13.998 -66.5273 -23.7744 -132.473 -18.4102 -200.596c2.58398 -32.8232 7.66504 -65.3809 15.5303 -97.3604c6.88477 -27.9834 17.1309 -59.0947 42.5459 -75.7393c56.9463 -37.2939 106.206 40.7676 125.971 82.9893c9.15332 19.5566 17.0312 39.5996 23.7539 60
c-1.67871 74.2637 2.30566 147.7 10.873 221.516c3.50684 30.2061 24.9873 52.9785 56.9668 52.9785c27.1562 0 59.6309 -22.8438 56.9678 -52.9785z" />
    <glyph glyph-name="v" unicode="v" horiz-adv-x="412" 
d="M385.582 626.732c7.12109 23.6953 47.3408 14.2422 39.999 -10.2588c-27.4922 -91.7471 -54.9844 -183.499 -82.4727 -275.251c-24.3477 -81.2646 -48.6992 -162.529 -73.0469 -243.794c-6.27832 -20.9609 -12.8389 -41.8643 -18.5938 -62.9795
c-4.13379 -15.1777 -6.50586 -31.4482 -17.0137 -43.7256c-10.2588 -11.9824 -25.1621 -15.7344 -39.8291 -9.04102c-16.0332 7.32129 -21.3721 24.6055 -29.9062 38.7607c-10.7197 17.7832 -23.3799 34.1201 -32.4248 52.9082
c-9.01172 18.7178 -16.457 38.333 -24.2021 57.6035c-15.124 37.6221 -28.2949 76.6523 -39.8457 115.517c-23.1924 78.0361 -41.1914 156.841 -55.0938 237.042c-5.68359 32.8105 9.77637 63.1035 43.8711 71.8535c27.9658 7.17969 72.4688 -7.90234 77.2637 -40.7959
c11.9033 -81.6719 26.7109 -163.24 44.0537 -243.932c13.9102 -64.7324 33.1973 -130.657 40.5762 -196.711c1.32129 3.55273 2.55957 7.03418 3.54395 10.3037c10.6367 35.3789 21.2734 70.7578 31.9141 106.141c43.7344 145.453 87.4727 290.906 131.207 436.359z" />
    <glyph glyph-name="w" unicode="w" horiz-adv-x="592" 
d="M536.526 576.725c4.5 26.3418 48.0801 16.0342 43.3896 -11.1094c-14.2217 -82.1914 -28.4395 -164.379 -42.6611 -246.57c-12.3564 -71.4141 -24.709 -142.823 -37.0654 -214.237c-6.29883 -36.4053 -12.5273 -72.8018 -18.2656 -109.298
c-3.65234 -23.2295 -8.55078 -54.7646 -38.7148 -55.0801c-32.6279 -0.34082 -41.3408 42.3838 -51.2539 65.917c-14.3799 34.1367 -28.7598 68.2686 -43.1357 102.405c-20.1514 47.8389 -40.3027 95.6816 -60.4541 143.521
c-10.9727 -53.4189 -21.9453 -106.838 -32.918 -160.253c-9.58105 -46.6504 -14.3721 -138.768 -85.0166 -124.981c-64.3379 12.5557 -75.9004 94.1357 -91.0322 147.201c-37.3604 131.04 -50.8516 270.917 -56.3486 406.631c-2.70508 66.752 107.286 66.4033 110.427 0
c6.81836 -144.028 29.6406 -286.104 55.6543 -427.734c3.36133 -18.3018 6.72656 -36.6084 9.58887 -54.998c0.199219 -1.27539 0.335938 -2.43848 0.485352 -3.63086c2.04004 8.09766 3.48633 16.3906 5.22754 24.5508c3.66504 17.1924 7.33398 34.3896 10.999 51.582
l47.3789 222.205c4.56641 21.4014 36.2637 16.4199 40.0615 -2.20996c2.88379 -2.29395 5.30176 -5.31836 6.91406 -9.17871c31.7178 -75.917 63.4316 -151.83 95.1494 -227.743c8.45898 -20.2422 16.9141 -40.4844 25.373 -60.7314
c3.02441 -7.24219 6.04883 -14.4844 9.07324 -21.7217c1.4707 7.85254 2.94531 15.709 4.39941 23.5654c3.48145 18.8252 6.63477 37.7002 9.85938 56.5713c27.626 161.777 55.2559 323.551 82.8857 485.328z" />
    <glyph glyph-name="x" unicode="x" horiz-adv-x="411" 
d="M420.936 -15.3506c14.1475 -21.0439 -18.1826 -39.9277 -34.4111 -24.7041c-38.3369 35.9766 -70.2549 82.7686 -102.501 124.176c-29.1426 37.4229 -57.3994 75.5146 -85.0371 114.06c-23.0635 -43.1602 -45.5996 -86.6035 -68.917 -129.631
c-25.1123 -46.3428 -58.8662 -86.79 -88.2988 -130.412c-13.499 -20.0059 -53.8926 -8.66699 -44.3193 17.376c18.5059 50.3447 31.9678 101.927 55.3926 150.318c22.7812 47.0664 46.2979 93.7715 69.4238 140.672c6 12.165 11.875 24.3799 17.6631 36.6367
c-42.4912 63.166 -82.8848 127.729 -121.135 193.566c-15.543 26.7568 27.9248 48.4121 42.3799 23.0381c32.291 -56.6719 66.1367 -112.442 101.553 -167.199c30.75 67.7744 59.9502 136.226 92.2334 203.348c13.7812 28.6562 57.3867 33.709 82.3369 20.0811
c28.2529 -15.4307 36.6455 -48.9561 21.5879 -76.5732c-43.5967 -79.9727 -91.4648 -157.386 -135.78 -236.922c2.00684 -2.8916 3.98047 -5.80859 5.99512 -8.69238c29.666 -42.4795 60.5078 -84.1484 92.2139 -125.124
c16.2451 -20.9902 32.7314 -41.7891 49.4629 -62.3926c16.5527 -20.3838 35.5068 -39.8369 50.1572 -61.6211z" />
    <glyph glyph-name="y" unicode="y" horiz-adv-x="490" 
d="M450.741 127.016c0.744141 -63.1455 -6.94922 -126.67 -49.4033 -176.366c-20.5869 -24.1064 -48.3828 -40.4512 -79.2529 -47.8262c-33.3838 -7.98145 -62.1807 -1.80762 -92.5771 11.334c-47.6475 20.5996 -82.5146 70.4746 -89.0879 121.102
c-3.22461 24.834 39.4707 28.5322 45.333 5.70996c6.66895 -25.9551 22.5488 -50.8096 49.8916 -57.208c11.7295 -2.74609 19.0381 -0.97168 30.6846 2.44336c7.93945 2.33105 20.8857 7.67383 24.4297 10.1543c12.0195 8.40137 17.4873 14.2842 23.4492 24.5381
c4.23828 7.28809 7.60742 18.1484 10.1299 30.8496c0.486328 2.45508 0.947266 5.48828 1.50781 13.5693c0.449219 6.46484 0.748047 12.9795 1.04297 19.4482c0.685547 15.1572 0.573242 30.3057 0.332031 45.4668c-1.37109 86.874 -2.9668 173.744 -4.58691 260.613
c-3.75195 -7.69922 -7.64062 -15.3359 -11.6875 -22.9023c-29.624 -55.3887 -68.376 -121.737 -130.532 -144.589c-29.4785 -10.8398 -63.7852 -10.3867 -91.0654 6.32422c-26.7324 16.3789 -41.4736 45.583 -50.0283 74.7461
c-10.624 36.2178 -13.3457 73.7197 -19.2578 110.776c-2.94141 18.4395 -6.91309 35.4912 -5.89941 54.375c1.14648 21.3145 4.71973 42.6953 8.60449 63.6523c8.7168 47.0244 90.3594 28.9883 78.3145 -20.0801c-15.1074 -61.5332 -26.8447 -123.935 -13.7197 -186.785
c4.70703 -22.5322 11.7539 -51.0557 34.3145 -62.2031c23.0508 -11.3887 50.6143 -1.52051 69.5605 13.2461c43.3271 33.7705 73.0713 91.5312 96.2676 140.172c13.1836 27.6377 24.1064 56.2773 33.0479 85.5312c-0.477539 25.7979 -0.959961 51.5957 -1.42578 77.3936
c-1.3584 75.5723 123.943 75.4473 125.036 -0.000976562c1.17188 -80.5039 2.33984 -161.009 3.50781 -241.509c1.02637 -70.6572 2.23926 -141.314 3.07031 -211.976z" />
    <glyph glyph-name="y" unicode="&#xff;" horiz-adv-x="490" 
d="M450.741 127.016c0.744141 -63.1455 -6.94922 -126.67 -49.4033 -176.366c-20.5869 -24.1064 -48.3828 -40.4512 -79.2529 -47.8262c-33.3838 -7.98145 -62.1807 -1.80762 -92.5771 11.334c-47.6475 20.5996 -82.5146 70.4746 -89.0879 121.102
c-3.22461 24.834 39.4707 28.5322 45.333 5.70996c6.66895 -25.9551 22.5488 -50.8096 49.8916 -57.208c11.7295 -2.74609 19.0381 -0.97168 30.6846 2.44336c7.93945 2.33105 20.8857 7.67383 24.4297 10.1543c12.0195 8.40137 17.4873 14.2842 23.4492 24.5381
c4.23828 7.28809 7.60742 18.1484 10.1299 30.8496c0.486328 2.45508 0.947266 5.48828 1.50781 13.5693c0.449219 6.46484 0.748047 12.9795 1.04297 19.4482c0.685547 15.1572 0.573242 30.3057 0.332031 45.4668c-1.37109 86.874 -2.9668 173.744 -4.58691 260.613
c-3.75195 -7.69922 -7.64062 -15.3359 -11.6875 -22.9023c-29.624 -55.3887 -68.376 -121.737 -130.532 -144.589c-29.4785 -10.8398 -63.7852 -10.3867 -91.0654 6.32422c-26.7324 16.3789 -41.4736 45.583 -50.0283 74.7461
c-10.624 36.2178 -13.3457 73.7197 -19.2578 110.776c-2.94141 18.4395 -6.91309 35.4912 -5.89941 54.375c1.14648 21.3145 4.71973 42.6953 8.60449 63.6523c8.7168 47.0244 90.3594 28.9883 78.3145 -20.0801c-15.1074 -61.5332 -26.8447 -123.935 -13.7197 -186.785
c4.70703 -22.5322 11.7539 -51.0557 34.3145 -62.2031c23.0508 -11.3887 50.6143 -1.52051 69.5605 13.2461c43.3271 33.7705 73.0713 91.5312 96.2676 140.172c13.1836 27.6377 24.1064 56.2773 33.0479 85.5312c-0.477539 25.7979 -0.959961 51.5957 -1.42578 77.3936
c-1.3584 75.5723 123.943 75.4473 125.036 -0.000976562c1.17188 -80.5039 2.33984 -161.009 3.50781 -241.509c1.02637 -70.6572 2.23926 -141.314 3.07031 -211.976z" />
    <glyph glyph-name="y" unicode="&#xfd;" horiz-adv-x="490" 
d="M450.741 127.016c0.744141 -63.1455 -6.94922 -126.67 -49.4033 -176.366c-20.5869 -24.1064 -48.3828 -40.4512 -79.2529 -47.8262c-33.3838 -7.98145 -62.1807 -1.80762 -92.5771 11.334c-47.6475 20.5996 -82.5146 70.4746 -89.0879 121.102
c-3.22461 24.834 39.4707 28.5322 45.333 5.70996c6.66895 -25.9551 22.5488 -50.8096 49.8916 -57.208c11.7295 -2.74609 19.0381 -0.97168 30.6846 2.44336c7.93945 2.33105 20.8857 7.67383 24.4297 10.1543c12.0195 8.40137 17.4873 14.2842 23.4492 24.5381
c4.23828 7.28809 7.60742 18.1484 10.1299 30.8496c0.486328 2.45508 0.947266 5.48828 1.50781 13.5693c0.449219 6.46484 0.748047 12.9795 1.04297 19.4482c0.685547 15.1572 0.573242 30.3057 0.332031 45.4668c-1.37109 86.874 -2.9668 173.744 -4.58691 260.613
c-3.75195 -7.69922 -7.64062 -15.3359 -11.6875 -22.9023c-29.624 -55.3887 -68.376 -121.737 -130.532 -144.589c-29.4785 -10.8398 -63.7852 -10.3867 -91.0654 6.32422c-26.7324 16.3789 -41.4736 45.583 -50.0283 74.7461
c-10.624 36.2178 -13.3457 73.7197 -19.2578 110.776c-2.94141 18.4395 -6.91309 35.4912 -5.89941 54.375c1.14648 21.3145 4.71973 42.6953 8.60449 63.6523c8.7168 47.0244 90.3594 28.9883 78.3145 -20.0801c-15.1074 -61.5332 -26.8447 -123.935 -13.7197 -186.785
c4.70703 -22.5322 11.7539 -51.0557 34.3145 -62.2031c23.0508 -11.3887 50.6143 -1.52051 69.5605 13.2461c43.3271 33.7705 73.0713 91.5312 96.2676 140.172c13.1836 27.6377 24.1064 56.2773 33.0479 85.5312c-0.477539 25.7979 -0.959961 51.5957 -1.42578 77.3936
c-1.3584 75.5723 123.943 75.4473 125.036 -0.000976562c1.17188 -80.5039 2.33984 -161.009 3.50781 -241.509c1.02637 -70.6572 2.23926 -141.314 3.07031 -211.976z" />
    <glyph glyph-name="z" unicode="z" horiz-adv-x="405" 
d="M388.777 27.7314c25.8389 -9.56836 14.2275 -47.8047 -11.499 -38.7725c-70.4873 24.7422 -149.832 46.0605 -225.732 42.7197c-3.19922 -3.61914 -6.72656 -6.99707 -10.7812 -9.98828c0.158203 0.556641 0.320312 1.11719 0.478516 1.67773
c-11.4551 -11.6875 -27.0859 -17.4873 -45.6123 -15.4219c-24.9502 2.78418 -46.3848 23.126 -46.5879 49.0771c-0.307617 39.0469 29.7529 79.4111 47.8848 113.012c17.8535 33.085 36.3174 65.6592 55.8115 97.8096c19.6562 32.416 39.6074 63.8809 62.3721 94.2109
c12.3271 16.4238 25.4941 32.1045 38.7402 47.7266c-77.7959 7.66113 -155.263 21.1641 -231.434 37.8457c-34.5889 7.57422 -18.7676 57.8271 14.5996 49.252c91.8223 -23.6035 184.26 -32.1455 278.974 -31.3145c17.4297 0.15332 40.2686 -18.7266 31.4316 -38.375
c-14.8828 -33.085 -26.7412 -67.6445 -41.4248 -100.771c-15.8467 -35.7529 -33.0557 -70.2754 -51.1123 -104.952c-17.3428 -33.3008 -34.793 -66.498 -52.5381 -99.5869c-8.13086 -15.165 -16.1826 -30.3799 -24.1846 -45.6201
c29.4492 -4.03809 58.9863 -7.49512 88.1738 -13.4033c41.7109 -8.44727 82.541 -20.3506 122.44 -35.125z" />
    <glyph glyph-name="braceleft" unicode="{" horiz-adv-x="280" 
d="M242.299 720.539c21.6758 -20.2383 22.2412 -55.9355 0.00488281 -76.0869c-25.7812 -23.3418 -44.7607 -50.8096 -55.6465 -84.1562c-12.8096 -39.2344 -10.4375 -76.0293 -8.53418 -117.623c2.16016 -47.2158 1.66992 -98.2041 -35.1045 -132.681
c-12.6387 -11.8457 -23.8896 -24.0605 -36.3545 -34.46c33.3887 -24.46 49.5303 -67.1592 59.2441 -109.311c4.00977 -17.3799 5.58887 -33.7539 4.84473 -51.6367c-0.785156 -18.9209 -6.23242 -36.7949 -8.7998 -55.4922
c-2.37207 -17.2969 -2.75879 -35.8486 -0.864258 -53.1826c1.85742 -16.9854 7.98535 -32.9277 10.5742 -49.6963c3.73926 -24.2432 -28.3027 -38.0371 -42.1846 -16.5361c-14.9619 23.167 -19.9893 53.5098 -23.1016 80.5117
c-3.50293 30.3887 -4.5791 64.3379 -1.06836 94.6846c3.36914 29.1426 12.3105 60.3662 1.79883 88.8232c-8.14746 22.0537 -26.209 45.0264 -51.2217 47.2822c-26.2383 2.37207 -32.0049 34.3564 -6.29004 43.2314c13.084 4.51172 30.958 17.0723 32.8193 31.834
c1.01758 8.06445 -2.86719 17.1924 -3.32031 25.3027c-0.552734 9.86328 -0.561523 19.7021 -1.23047 29.5781c-2.8623 42.2422 -10.9268 84.6631 -11.0137 127.034c-0.166016 80.6455 35.5449 157.377 93.6465 212.578
c22.0293 20.9326 59.7432 20.6006 81.8018 0.000976562z" />
    <glyph glyph-name="verticalbar" unicode="|" horiz-adv-x="210" 
d="M162.125 309.367c1.42969 -71.5469 3.33887 -143.052 2.78223 -214.61c-0.282227 -35.6445 -0.361328 -71.75 -2.85449 -107.308c-1.21777 -17.3428 -1.4043 -36.3633 -6.93457 -52.9248c-5.71289 -17.1221 -6.36133 -37.7676 -17.3965 -52.6836
c-14.3262 -19.3701 -40.0029 -18.4229 -54.4863 0c-11.21 14.2598 -13.1914 35.6943 -19.0244 52.6836c-5.72949 16.6777 -6.54785 35.5078 -8.29688 52.9248c-3.56445 35.5283 -4.93164 71.6338 -6.38574 107.308c-2.91211 71.5088 -3.36523 143.047 -4.28809 214.61
c-1.84863 143.118 -1.3418 286.099 -0.335938 429.225c0.444336 62.7051 100.934 62.1895 103.418 0c5.72168 -143.089 10.9355 -286.049 13.8027 -429.225z" />
    <glyph glyph-name="braceright" unicode="}" horiz-adv-x="280" 
d="M230.251 294.214c25.9434 -8.9541 19.7021 -40.8789 -6.29492 -43.2266c-25.124 -2.27246 -42.9355 -25.2402 -51.2207 -47.2812c-10.6777 -28.4062 -1.53711 -59.7295 1.79883 -88.8213c3.48633 -30.376 2.48535 -64.2754 -1.06738 -94.6846
c-3.15723 -27.0273 -8.11426 -57.3037 -23.1006 -80.5127c-13.9648 -21.6348 -45.8945 -7.54102 -42.1797 16.5361c2.58887 16.7686 8.74219 32.6982 10.5742 49.6953c1.87793 17.4258 1.4873 35.7939 -0.868164 53.1816
c-2.52637 18.6719 -8.10254 36.5957 -8.80078 55.4922c-0.660156 17.9033 0.84375 34.2822 4.84473 51.6367c9.69727 42.0635 25.8096 84.6963 59.0732 109.177c-13.4785 11.0684 -25.5361 24.2354 -38.6943 36.9287c-34.9092 33.6748 -34.6641 85.0742 -32.5908 130.35
c1.96094 42.874 4.27539 80.3877 -9.56836 120.794c-10.9189 31.8721 -29.7109 58.4463 -54.6113 80.9902c-22.3486 20.2383 -21.7627 55.7539 0 76.0752c22.0537 20.5957 59.8047 20.9033 81.8047 0c58.1055 -55.2051 93.8086 -131.933 93.6465 -212.578
c-0.0917969 -43.5889 -8.37695 -87.3232 -11.4014 -130.783c-0.685547 -9.80957 -0.178711 -19.6816 -0.972656 -29.4619c-0.59375 -7.30469 -4.64844 -16.1084 -3.26465 -23.5332c2.55957 -13.7363 20.8613 -25.8184 32.8936 -29.9736z" />
    <glyph glyph-name="asciitilde" unicode="~" horiz-adv-x="491" 
d="M429.387 255.325c13.7695 15.0781 43.8643 -4.47461 30.7305 -22.0576c-20.8281 -27.9043 -51.5449 -45.6455 -86.3506 -48.9111c-15.8428 -1.4873 -32.4453 -2.31836 -48.0762 -0.307617c-23.2676 2.99609 -39.6211 12.4355 -57.9609 26.5459
c-24.9746 19.2158 -45.5869 39.8027 -79.0957 30.8154c-34.7676 -9.32324 -61.4912 -38.7686 -86.167 -63.2158c-37.9834 -37.6387 -103.015 18.1738 -62.7959 58.4014c60.5615 60.582 140.156 117.125 228.542 77.2012c32.2705 -14.5752 65.5596 -43.7129 88.3369 -70.6533
c1.43359 -1.69141 3.0752 -3.40723 4.42578 -4.97754c1.5498 -1.79883 2.91309 -2.9834 3.88086 -3.73145c6.75977 -2.59277 12.71 -3.49902 20.4922 -2.72168c17.9326 1.79492 32.0596 10.4912 44.0381 23.6123zM365.773 233.762c0.519531 -0.34082 0.631836 -0.348633 0 0
z" />
    <glyph glyph-name="nonbreakingspace" unicode="&#xa0;" 
 />
    <glyph glyph-name="cent" unicode="&#xa2;" horiz-adv-x="465" 
d="M388.843 234.971c10.9893 22.3652 46.5098 3.91211 35.8232 -19.4795c-37.1689 -81.29 -88.751 -168.371 -189.02 -172.223c-22.9639 -0.880859 -43.0654 4.99023 -61.6914 14.7334c-15.0615 -54.7236 -29.6455 -109.576 -43.7012 -164.591
c-6.73047 -26.3418 -50.9795 -15.9131 -43.9453 11.2676c15.5811 60.2119 31.6357 120.32 48.0264 180.333c-33.584 27.5088 -53.4688 62.6299 -68.6924 102.795c-34.0078 89.7158 -35.6162 187.297 -15.9219 280.457c17.9443 84.9004 62.4883 189.818 163.775 192.058
c23.3213 0.515625 45.5244 -4.3623 66.4736 -12.9961c4.46191 30.1729 11.0645 59.8633 19.9893 89.0723c8.87109 29.0254 41.4365 44.3525 70.0762 37.0029c26.5078 -6.80176 50.5186 -36.999 39.7861 -65.1689c-14.0352 -36.8369 -30.5088 -72.5146 -50.3984 -106.605
c-0.99707 -1.70801 -2.05664 -3.39453 -3.09082 -5.08984c26.2832 -24.2559 49.1143 -52.4463 67.8613 -79.0625c28.918 -41.0537 -42.4541 -77.0967 -69.1162 -37.5713c-10.8193 16.042 -22.5029 31.4775 -33.4346 47.4072
c-2.49316 -6.74316 -4.98633 -13.4619 -7.69922 -19.9893c-26.8408 -64.6201 -47.2822 -133.142 -67.6865 -200.043c-19.4941 -63.9062 -38.2822 -127.999 -56.4141 -192.274c0.182617 -0.249023 0.344727 -0.514648 0.527344 -0.759766
c17.3506 -22.9346 48.7734 -28.6475 75.1113 -20.9404c64.4209 18.8633 96.1055 86.1924 123.361 141.668zM164.544 193.812c11.8076 41.7891 23.7549 83.5342 36.0078 125.187c19.7559 67.167 41.041 134.629 57.2529 202.723
c4.05469 17.0186 9.31445 34.0371 13.0127 51.1719c-21.2891 7.46582 -43.8623 5.7373 -60.2236 -8.05273c-17.6289 -14.8662 -28.0156 -39.9619 -35.9219 -63.2246c-10.8359 -31.876 -19.835 -65.1768 -23.79 -98.6689
c-8.17285 -69.1533 -3.12012 -141.46 13.6279 -208.997c0.0126953 -0.0458984 0.0253906 -0.0957031 0.0341797 -0.137695z" />
    <glyph glyph-name="sterling" unicode="&#xa3;" horiz-adv-x="480" 
d="M355.272 88.4492c39.5 -3.61426 80.126 -28.9053 89.1006 -69.8096c8.56738 -39.0928 -14.2471 -81.0732 -55.0059 -88.4648c-41.125 -7.45801 -81.6309 23.4043 -80.4463 66.0166c0.577148 20.7744 35.8848 26.4414 39.5947 4.98145
c2.09863 -12.1406 6.32422 -25.0293 19.0127 -29.4668c11.459 -4.00977 22.9766 1.10059 28.96 11.334c10.5449 18.04 2.01074 40.1484 -13.8232 51.7197c-37.8711 27.6797 -84.9043 3.16211 -120.748 -20.8945c-14.3838 -32.3037 -64.2627 -45.7158 -84.6963 -9.88867
c-13.3457 23.4004 -11.127 48.5205 -13.6035 74.4883c-2.06055 21.626 -4.08398 43.2607 -6.00391 64.9033c-3.95996 44.5898 -6.93066 89.2217 -8.86719 133.944c-0.577148 13.2998 -0.947266 26.6123 -1.22168 39.9287
c-27.4717 2.64258 -54.6357 6.47754 -81.0234 11.0645c-29.375 5.10645 -15.9502 46.4883 12.2695 41.3906c22.6816 -4.09668 45.4668 -7.22559 68.3438 -9.40723c0.141602 49.3428 2.22754 98.6943 6.10449 147.847c3.13281 39.708 8.07715 80.0977 16.0918 119.133
c7.27051 35.4121 21.9121 73.126 48.1338 98.7861c24.4512 23.9277 61.5537 41.5859 96.3506 34.9629c24.9287 -4.74512 52.5713 -9.49414 74.7578 -22.707c54.2539 -32.3037 72.8506 -96.8701 56.6094 -155.948c-7.02539 -25.5527 -49.9658 -15.4316 -42.8193 10.9766
c9.10742 33.6504 4.43359 73.4326 -22.3359 98.2168c-10.0752 9.32324 -22.6895 15.5225 -36.2422 17.8945c-3.02441 0.623047 -6.08691 0.901367 -9.16602 0.97168c-0.307617 -0.270508 -0.793945 -0.631836 -1.47559 -1.08887
c-5.27637 -3.29492 -11.8076 -9.66406 -15.9414 -14.2842c-40.8467 -45.6865 -39.2432 -120.947 -44.5322 -182.88c-4.36719 -51.1211 -6.29492 -102.342 -7.24609 -153.596c20.7988 1.31738 41.5693 3.07031 62.5225 4.27539
c23.9277 1.37988 29.4785 -34.7881 5.74609 -39.4912c-22.5068 -4.46191 -45.5664 -7.24609 -68.8711 -8.71289c-0.15332 -15.1523 -0.269531 -30.3047 -0.361328 -45.4531c-0.245117 -40.5889 0.132812 -81.1816 0.302734 -121.771
c0.0917969 -21.6348 0.283203 -43.2695 0.520508 -64.9082c0.0537109 -4.91504 0.37793 -9.96289 0.743164 -15.0693c27.5547 14.4502 57.2246 23.9395 89.2666 21.0059z" />
    <glyph glyph-name="currency" unicode="&#xa4;" horiz-adv-x="462" 
d="M421.968 245.59c25.6895 -9.14453 14.0771 -46.916 -11.3467 -38.2402c-22.4238 7.64453 -54.3125 16.8809 -77.8916 9.49805c-29.9727 -9.38574 5.33984 -37.4023 17.917 -45.7324c24.501 -16.2334 0.0244141 -52.3018 -23.002 -36.5967
c-19.9395 13.5986 -43.4639 35.1416 -50.0908 59.0527c-29.2627 -19.1582 -65.875 -24.2393 -101.623 -10.9023c-14.6836 5.47656 -28.041 13.6201 -40.252 23.3047c-0.249023 -2.9502 -1.22559 -5.8291 -3.14062 -8.38477
c-5.06055 -6.75195 -10.125 -13.499 -15.1855 -20.2461c-5.42578 -7.2373 -10.5283 -15.3721 -17.1475 -21.5674c-6.68066 -6.25293 -17.5078 -7.4209 -25.4893 -3.05859c-6.99219 3.81836 -13.2373 13.9814 -9.66797 22.0918
c6.93848 15.7676 18.5098 29.9023 28.1367 44.1738c4.08008 6.04492 10.6992 9.63086 17.6465 10.291c-0.805664 0.880859 -1.64453 1.73633 -2.43848 2.625c-22.041 24.6963 -33.7324 48.5488 -38.249 81.3682c-4.11328 29.9189 0.34082 59.8047 11.501 87.0518
c-15.0322 10.582 -29.1875 22.8848 -43.5762 34.0527c-10.1543 7.88184 -8.66309 24.1816 0 32.2754c9.82227 9.16992 24.7461 8.20605 34.7051 0c10.4033 -8.5752 21.5137 -16.8223 31.9883 -25.6387c9.16992 12.1943 19.8691 23.3213 31.877 33.0107
c17.8574 14.4131 43.8789 16.5117 61.5576 0c2.11523 -1.97754 3.96387 -4.25488 5.57617 -6.70605c20.7617 -3.44434 40.8213 -10.873 58.7578 -21.75c13.7568 15.6924 26.9404 32.7227 42.376 46.6992c16.167 14.6377 46.8711 -3.38574 33.4971 -24.0352
c-11.6963 -18.0615 -27.1357 -34.2236 -40.7764 -50.8555c-0.112305 -0.141602 -0.237305 -0.261719 -0.349609 -0.398438c8.24707 -9.12012 15.4512 -19.2412 21.1973 -30.376c20.1924 -39.1221 23.9736 -86.8359 8.96191 -128.21
c31.4893 5.43066 69.6475 -3.93848 94.5312 -12.7969zM247.572 226.636c44.752 25.5938 55.1963 88.082 36.541 132.83c-14.2715 34.2197 -44.1328 57.1758 -78.498 65.6396c-1.91113 -3.12012 -4.3457 -5.96582 -7.41992 -8.34668
c-35.9893 -27.8252 -55.5332 -72.627 -45.7148 -118.16c5.34766 -24.8047 8.22656 -47.7852 29.3955 -64.6455c19.4902 -15.5186 43.4844 -20.0186 65.6963 -7.31738z" />
    <glyph glyph-name="yen" unicode="&#xa5;" horiz-adv-x="577" 
d="M525.2 128.178c23.9277 1.37988 29.4805 -34.7871 5.73926 -39.4941c-30.9326 -6.12793 -62.8955 -9.11523 -95.1328 -9.79199c-11.0811 -58.0312 -32.8066 -116.569 -89.9072 -143.335c-65.0146 -30.4756 -133.096 0.834961 -177.125 52.1553
c-42.2676 49.2637 -56.9053 115.912 -63.7021 178.87c-2.33105 21.6055 34.9375 25.2197 39.5947 4.98535c8.7334 -37.9258 14.4795 -76.9893 32.2295 -112.123c12.5977 -24.9336 35.8232 -58.8584 66.1621 -62.3232c57.4863 -6.56445 77.8408 40.2188 85.207 87.1689
c-21.8301 2.48047 -43.4102 5.66309 -64.4873 9.32812c-29.375 5.11035 -15.9502 46.4932 12.2695 41.3955c18.6758 -3.37402 37.4268 -6.0791 56.2354 -8.15625c1.23828 19.0586 2.25586 38.1045 3.0498 57.1377c-24.2393 2.57617 -48.2041 6.02441 -71.5547 10.084
c-29.375 5.11035 -15.9502 46.4932 12.2695 41.3955c20.168 -3.63965 40.4102 -6.53125 60.7314 -8.66309c1.09277 42.6162 1.21289 85.1953 0.552734 127.771c-1.80273 -2.95801 -3.61035 -5.9209 -5.47168 -8.8252c-35.3701 -55.2676 -89.499 -105.766 -159.508 -103.713
c-75.502 2.21875 -114.541 65.4805 -126.582 133.038c-14.3594 80.5625 -10.7861 162.891 8.55469 242.298c6.92578 28.4277 54.7686 17.1885 47.3271 -12.1318c-16.4453 -64.8037 -21.1572 -131.672 -13.5244 -198.142c6.29004 -54.8105 25.1777 -126.91 94.0029 -122.95
c59.8965 3.44434 99.8662 58.4834 126.877 106.098c10.167 17.9199 18.6426 36.2549 25.8594 54.9639c-2.03613 53.5107 -4.99023 107.046 -8.44727 160.685c-2.30566 35.8232 33.8584 59.5391 65.4395 60.8564c33.501 1.39648 65.2812 -27.1055 65.4395 -60.8555
c0.411133 -87.3438 0.951172 -174.766 -0.723633 -262.097c-0.764648 -39.9658 -2.02734 -80.0605 -4.51172 -120.06c24.3555 1.33789 48.624 3.47754 73.1416 4.89062c23.9277 1.375 29.4785 -34.7891 5.74609 -39.4922
c-26.79 -5.30566 -54.3447 -8.28027 -82.1865 -9.42676c-1.6748 -19.0127 -3.71094 -37.9834 -6.1709 -56.8926c27.5381 1.23828 54.9141 3.75586 82.6064 5.35156z" />
    <glyph glyph-name="copyright" unicode="&#xa9;" horiz-adv-x="578" 
d="M336.551 477.016c57.0049 -12.3066 99.8672 -67.6475 96.6719 -125.895c-2.80078 -51.0879 -88.7148 -50.0205 -84.1357 0c1.90332 20.8115 -5.7041 45.998 -29.3535 50.0654c-23.2295 3.99316 -41.1328 -15.6631 -45.7197 -36.6826
c-2.85449 -13.0713 -2.62988 -28.0244 -2.04004 -41.374c0.635742 -14.3594 -1.10938 -31.6104 5.45117 -44.582c15.8213 -31.2861 53.8633 -44.7393 83.9609 -25.4814c18.9873 12.1484 45.2705 -16.6865 25.8428 -31.1494
c-46.0693 -34.2979 -105.538 -22.8721 -145.117 16.1709c-43.0488 42.4668 -71.8672 95.8604 -51.5459 157.244c20.0518 60.582 83.874 95.0918 145.985 81.6836zM508.933 451.669c58.7744 -78.4854 39.8828 -185.045 -24.2227 -254.298
c-67.3711 -72.7803 -177.795 -95.1914 -272.588 -76.2744c-48.1338 9.60645 -99.6455 40.6885 -132.863 76.541c-38.79 41.8604 -54.1133 94.9014 -44.4365 150.921c2.62207 15.1777 16.5537 24.958 31.4609 28.5391c2.10645 97.7012 104.855 171.924 195.955 183.287
c93.3262 11.6416 190.708 -33.9492 246.694 -108.716zM471.232 251.604c20.8369 30.7422 32.832 67.6797 30.6094 105.011c-2.31055 38.8398 -23.126 72.7354 -50.1738 99.6045c-53.5977 53.2402 -128.597 78.3643 -202.869 60.6104
c-66.9766 -16.0088 -144.876 -72.9346 -141.769 -148.499c11.4756 -9.90918 16.5068 -25.502 13.4277 -41.7266c-7.3457 -38.6777 16.5742 -73.7402 44.6689 -97.543c29.0342 -24.5928 69.627 -45.7285 106.348 -55.501c74.4014 -19.7939 156.934 14.874 199.758 78.0439z
" />
    <glyph glyph-name="softhyphen" unicode="&#xad;" horiz-adv-x="0" 
 />
    <glyph glyph-name="registered" unicode="&#xae;" horiz-adv-x="578" 
d="M508.932 451.667c58.7705 -78.4854 39.8809 -185.045 -24.2246 -254.298c-67.3711 -72.7803 -177.795 -95.1914 -272.588 -76.2744c-48.1338 9.60645 -99.6494 40.6885 -132.867 76.541c-38.7852 41.8604 -54.1084 94.9014 -44.4316 150.921
c2.62207 15.1777 16.5488 24.958 31.4609 28.5391c2.10254 97.7012 104.856 171.924 195.956 183.287c93.3262 11.6416 190.703 -33.9492 246.694 -108.716zM471.229 251.603c20.8408 30.7422 32.8311 67.6797 30.6123 105.011
c-2.30566 38.8398 -23.126 72.7354 -50.1738 99.6045c-53.5977 53.2402 -128.597 78.3643 -202.869 60.6104c-14.2344 -3.40234 -28.959 -8.67871 -43.3018 -15.5635c25.5771 -0.344727 50.9629 -15.9463 51.1211 -46.8213
c0.0253906 -4.77344 0.112305 -9.54297 0.245117 -14.3125c9.23633 10.9395 19.7021 20.8818 31.377 29.5283c30.3887 22.5068 77.833 41.332 108.305 7.94336c30.5088 -33.4258 3.58105 -79.7773 -23.8281 -104.873c-16.6982 -15.2861 -36.3711 -26.5586 -57.498 -33.6055
c6.31543 -6.86816 12.1113 -14.4346 17.5625 -22.5449c16.5488 -24.6172 33.1807 -64.8193 67.5957 -66.6436c28.1865 -1.49121 28.373 -42.7197 0 -41.2949c-33.1348 1.66211 -58.8447 19.4824 -78.6465 45.1846c-18.543 24.0605 -31.9336 60.877 -60.8311 74.7041
c0.120117 -12.3486 0.128906 -24.8047 -1.05078 -36.9248c-1.74121 -17.9033 -10.2383 -36.5 -13.4961 -54.6113c-3.61914 -20.1094 -36.418 -22.1455 -45.3887 -5.51758c-8.75879 16.2334 -22.083 32.1299 -28.5273 49.123
c-6.48535 17.1016 -9.60156 37.0576 -12.6758 55.1104c-6.60645 38.7939 -6.36133 79.4824 -6.56055 118.733c-0.0253906 4.91504 0.65625 9.40234 1.81543 13.5449c-29.3037 -26.084 -49.6006 -60.3408 -47.9844 -99.6582
c11.4795 -9.90918 16.5068 -25.502 13.4277 -41.7266c-7.3457 -38.6777 16.5742 -73.7402 44.6689 -97.543c29.0303 -24.5928 69.623 -45.7285 106.344 -55.501c74.4014 -19.7939 156.938 14.874 199.758 78.0439zM265.426 372.484
c23.666 0.801758 46.3145 7.96484 65.6348 22.1533c10.2627 7.53711 48.8281 43.2148 29.5039 57.5449c-17.8164 13.2129 -53.1201 -20.0967 -64.3262 -31.6387c-13.5078 -13.915 -23.6162 -30.2852 -30.8125 -48.0596z" />
    <glyph glyph-name="onequarter" unicode="&#xbc;" horiz-adv-x="499" 
d="M325.535 756.861c29.4707 -6.27344 54.6787 -41.1836 43.4609 -71.1855c-43.9043 -117.475 -84.2686 -236.249 -120.785 -356.225c-18.2607 -60.0039 -35.0547 -120.424 -53.3691 -180.407c-8.97852 -29.3994 -17.292 -58.9697 -27.4092 -87.9951
c-6.06641 -17.4043 -14.8418 -31.1445 -24.1738 -46.5176c-10.2129 -16.8184 -16.5322 -26.1416 -36.1436 -32.9268c-11.127 -3.85156 -25.5195 0.44043 -33.8252 8.31348c-15.3896 14.584 -14.1553 27.0732 -15.6846 46.1895
c-0.615234 7.67773 -3.24902 15.5137 -3.00781 23.3037c0.291016 9.63086 2.9502 19.8145 4.50781 29.4082c5.13965 31.6514 12.7471 62.7959 20.1016 93.999c14.0762 59.7344 31.5928 118.575 49.4004 177.296c36.3965 120.005 76.6113 238.817 120.383 356.329
c11.9453 32.0713 43.2939 47.498 76.5449 40.418zM107.797 476.362c-4.12598 -30.4512 -48.4932 -31.5146 -51.4141 0c-3.32422 35.8975 -18.2734 68.7246 -18.3691 104.789c-0.0957031 34.9258 0.427734 69.8643 0.643555 104.79
c0.357422 58.0391 97.9297 57.6738 95.8193 0c-1.27539 -34.9258 -2.25195 -69.876 -3.83105 -104.789c-0.365234 -8.08105 -0.789062 -16.1416 -1.76562 -24.1816c-1.31738 -10.8232 -5.80469 -19.3154 -8.65918 -29.5986
c-4.69531 -16.8936 -10.0762 -33.6504 -12.4238 -51.0098zM358.565 255.315c2.95801 64.8535 110.668 64.7402 107.506 0.00390625c-1.6582 -33.9785 -3.32031 -67.957 -4.97852 -101.936c-1.66992 -34.1445 1.47559 -73.6035 -9.85059 -106.132
c-14.4834 -41.5898 -84.6465 -47.4316 -96.3428 0c-6.38574 25.8926 -4.57031 53.5303 -2.62598 80.5576c-6.97168 -2.01465 -13.96 -3.95898 -20.9736 -5.77441c-17.6045 -4.56641 -37.082 -5.38086 -49.8623 9.87207c-15.2109 18.1484 -8.08496 44.3945 -5.69629 65.6885
c3.22852 28.7559 6.45703 57.5156 9.68164 86.2715c2.97949 26.5371 47.5527 26.4004 44.4072 0c-4.65332 -39.085 -11.5508 -78.6846 -13.9688 -117.969c-0.224609 -1.80273 -0.307617 -3.60547 -0.311523 -5.41699c0.834961 0.411133 2.23926 0.53125 4.2627 0.319336
c9.46875 0.860352 20.1592 5.79199 29.3203 8.42578c1.85742 0.532227 3.71875 1.06836 5.57617 1.60059c1.28418 28.1611 2.56836 56.3271 3.85645 84.4883z" />
    <glyph glyph-name="onehalf" unicode="&#xbd;" horiz-adv-x="530" 
d="M325.539 756.861c29.4707 -6.27344 54.6748 -41.1836 43.4648 -71.1855c-43.9043 -117.475 -84.2725 -236.249 -120.789 -356.225c-18.2607 -60.0039 -35.0547 -120.424 -53.3691 -180.407c-8.97461 -29.3994 -17.2881 -58.9697 -27.4092 -87.9951
c-6.06641 -17.4043 -14.8418 -31.1445 -24.1738 -46.5176c-10.2129 -16.8184 -16.5322 -26.1416 -36.1436 -32.9268c-11.127 -3.85156 -25.5156 0.44043 -33.8252 8.31348c-15.3896 14.584 -14.1553 27.0732 -15.6846 46.1895
c-0.615234 7.67773 -3.24902 15.5137 -3.00781 23.3037c0.294922 9.63086 2.9541 19.8145 4.51172 29.4082c5.13965 31.6514 12.7471 62.7959 20.1016 93.999c14.0762 59.7344 31.5928 118.575 49.4004 177.296c36.3926 120.005 76.6074 238.817 120.379 356.329
c11.9453 32.0713 43.2939 47.498 76.5449 40.418zM107.797 476.362c-4.12207 -30.4512 -48.4941 -31.5146 -51.415 0c-3.32422 35.8975 -18.2734 68.7246 -18.3691 104.789c-0.0917969 34.9258 0.431641 69.8643 0.647461 104.79
c0.353516 58.0391 97.9307 57.6738 95.8203 0c-1.27539 -34.9258 -2.25195 -69.876 -3.83105 -104.789c-0.370117 -8.08105 -0.793945 -16.1416 -1.77051 -24.1816c-1.31738 -10.8232 -5.80469 -19.3154 -8.65918 -29.5986
c-4.69043 -16.8936 -10.0713 -33.6504 -12.4229 -51.0098zM469.565 29.9023c23.5039 -14.3213 0.954102 -47.6807 -21.5195 -34.252c-19.4238 11.5967 -38.8643 23.1719 -58.3086 34.7305c-16.8564 -16.54 -37.1816 -28.8633 -59.9834 -33.8828
c-31.9092 -7.02539 -66.8389 15.2031 -73.8359 47.7646c-5.8584 27.2725 13.167 50.9844 38.1621 59.2939c15.4893 5.14746 30.9414 4.16699 45.749 -0.162109c1.89453 2.45117 3.70996 4.93164 5.33887 7.42871c9.79297 15.0156 15.1855 31.0283 21.3975 47.6182
c6.57715 17.5713 13.8857 30.6719 6.05762 49.2734c-7.64941 18.1777 -25.7891 31.2285 -45.7734 23.0684c-17.6289 -7.2002 -22.0742 -28.1113 -13.0254 -43.6299c13.915 -23.8613 -24.4844 -42.9736 -37.8379 -20.5703c-34.9131 58.5713 22.7725 122.714 85.8018 105.488
c27.7998 -7.59473 45.8779 -30.3594 56.6055 -55.9404c10.1045 -24.1025 24.5967 -51.915 22.2578 -78.6846c-2.18164 -24.9834 -11.0771 -51.25 -25.1699 -74.3887c18.0527 -11.0186 36.0352 -22.1572 54.084 -33.1553z" />
    <glyph glyph-name="threequarters" unicode="&#xbe;" horiz-adv-x="558" 
d="M384.613 756.861c29.4746 -6.27344 54.6787 -41.1836 43.4648 -71.1855c-43.9043 -117.475 -84.2725 -236.249 -120.789 -356.225c-18.2607 -60.0039 -35.0547 -120.424 -53.3691 -180.407c-8.97461 -29.3994 -17.2881 -58.9697 -27.4092 -87.9951
c-6.06641 -17.4043 -14.8418 -31.1445 -24.1738 -46.5176c-10.2129 -16.8184 -16.5322 -26.1416 -36.1436 -32.9268c-11.127 -3.85156 -25.5156 0.44043 -33.8252 8.31348c-15.3896 14.584 -14.1553 27.0732 -15.6846 46.1895
c-0.615234 7.67773 -3.24902 15.5137 -3.00781 23.3037c0.294922 9.63086 2.9541 19.8145 4.51172 29.4082c5.13965 31.6514 12.7471 62.7959 20.1016 93.999c14.0762 59.7344 31.5928 118.575 49.4004 177.296c36.3926 120.005 76.6074 238.817 120.379 356.329
c11.9453 32.0713 43.2939 47.498 76.5449 40.418zM417.642 255.315c2.96289 64.8535 110.666 64.7402 107.5 0.00390625c-1.66211 -33.9785 -3.32031 -67.957 -4.97852 -101.936c-1.66602 -34.1445 1.47949 -73.6035 -9.85059 -106.132
c-14.4834 -41.5898 -84.6465 -47.4316 -96.3428 0c-6.38184 25.8926 -4.57031 53.5303 -2.62598 80.5576c-6.97559 -2.01465 -13.96 -3.95898 -20.9736 -5.77441c-17.6084 -4.56641 -37.0859 -5.38086 -49.8662 9.87207c-15.207 18.1484 -8.08105 44.3945 -5.69238 65.6885
c3.22852 28.7559 6.45312 57.5156 9.68164 86.2715c2.97949 26.5371 47.5527 26.4004 44.4072 0c-4.65723 -39.085 -11.5547 -78.6846 -13.9727 -117.969c-0.219727 -1.80273 -0.302734 -3.60547 -0.306641 -5.41699c0.838867 0.411133 2.23926 0.53125 4.2627 0.319336
c9.47266 0.860352 20.1592 5.79199 29.3252 8.42578c1.85742 0.532227 3.71875 1.06836 5.57617 1.60059c1.28418 28.1611 2.57227 56.3271 3.85645 84.4883zM179.886 462.521c-32.2744 -31.8799 -77.1104 -14.4443 -109.057 7.48926
c-24.9951 17.1592 -0.265625 54.2744 23.8867 38.0039c11.002 -7.41211 35.4824 -27.4014 49.2266 -15.8672c10.2002 8.55859 6.00391 22.6064 -0.361328 33.1221c-1.98633 -0.219727 -3.96777 -0.439453 -5.9541 -0.660156
c-52.5801 -5.82129 -64.9697 78.4473 -12.6562 86.9893c15.6934 2.56348 30.9248 9.80957 38.7314 26.0264c7.60742 15.8008 7.08789 39.9824 -1.76562 50.0742c-14.8369 16.9062 -40.9961 17.6416 -59.7637 7.54102c-23.5166 -12.6602 -31.124 -39.5791 -30.8291 -64.5703
c0.336914 -28.6182 -46.8789 -28.5479 -47.3271 0c-0.660156 42.0508 17.4883 84.7461 56.6934 104.187c35.0166 17.3633 78.7881 15.248 110.585 -8.00293c34.8887 -25.5107 61.1973 -64.7285 52.9541 -109.879c-5.7627 -31.5518 -26.2793 -59.0029 -53.373 -75.5518
c10.7773 -26.3916 10.7314 -57.4453 -10.9902 -78.9014z" />
    </font>
</defs>
</svg>
